<svg xmlns="http://www.w3.org/2000/svg" class="hidden"><symbol id="global/add-plus" viewBox="0 0 20 20"><polygon points="20,9 11,9 11,0 9,0 9,9 0,9 0,11 9,11 9,20 11,20 11,11 20,11 "></polygon></symbol><symbol id="global/added-status" viewBox="0 0 26 26"><path d="M5 12l5.02 4.9L21.15 4c.65-.66 1.71-.66 2.36 0 .65.67.65 1.74 0 2.4l-12.3 14.1c-.33.33-.76.5-1.18.5-.43 0-.86-.17-1.18-.5l-6.21-6.1c-.65-.66-.65-1.74 0-2.41.65-.65 1.71-.65 2.36.01z"></path></symbol><symbol id="global/arrow_down" viewBox="0 0 16 16"><path fill-rule="evenodd" clip-rule="evenodd" d="M8 8.71976L3.48679 4.5L2 5.89012L8 11.5L14 5.89012L12.5132 4.5L8 8.71976Z"></path></symbol><symbol id="global/arrow-next" viewBox="0 0 14 29"><g>
	<polygon points="2.8,0 0,2.8 9,14.5 0,26.2 2.8,29 14,14.5 	"></polygon>
</g></symbol><symbol id="global/arrow-popup" viewBox="0 0 10 9"><path d="M9.297,4.024L1.879,3.996L5.056,0.72L4.365,0.008L0,4.5l4.365,4.492L5.056,8.28L1.879,5.004l7.418,0.02V4.024z"></path></symbol><symbol id="global/arrow-readmore" viewBox="0 0 100 100"><g><path d="M72.707,49.773l-5.255-5.258l-0.302-0.369L42.281,19.277c-3.04-3.037-7.963-3.037-11.002,0   c-3.039,3.04-3.039,7.965,0,11.004l19.438,19.436L31.279,69.154c-3.039,3.04-3.039,7.965,0,11.005   c1.52,1.517,3.51,2.276,5.501,2.276s3.981-0.76,5.501-2.276l22.507-22.51l0.021,0.021L72.707,49.773z"></path></g></symbol><symbol id="global/arrow-right" viewBox="0 0 9 16"><path fill-rule="evenodd" clip-rule="evenodd" d="M9 8L1.41444 16L0 14.487L5.96185 8L9.88477e-07 1.51297L1.41444 0L9 8Z" fill="currentColor"></path></symbol><symbol id="global/arrow-up" viewBox="0 0 29 14"><g>
	<polygon points="14.5,0 0,11 3.04,14 14.5,5 26.04,14 29,11 	"></polygon>
</g></symbol><symbol id="global/arrow" viewBox="0 0 21 45"><path id="SVGID_1_" d="M2.1,44.6C1.8,44.9,1.5,45,1.2,45c-0.3,0-0.6-0.1-0.9-0.4c-0.5-0.5-0.5-1.4,0-2l17.7-20.1L0.4,2.4
			c-0.5-0.5-0.5-1.4,0-2c0.5-0.5,1.2-0.5,1.7,0l18.6,21.1c0.5,0.5,0.5,1.4,0,2L2.1,44.6z"></path></symbol><symbol id="global/back" viewBox="0 0 20 14"><polygon points="17.999,6 4,6 8.5,1.5 7,0 0,7 7,14 8.5,12.5 4,8 18,8 "></polygon></symbol><symbol id="global/back2" viewBox="0 0 14 14"><polygon points="14,6 3.8,6 8.4,1.4 7,0 0,7 7,14 8.4,12.6 3.8,8 14,8 "></polygon></symbol><symbol id="global/back3" viewBox="0 0 16 16"><path d="M15 7H5L9.3 2.5L7.8 1L1 8L7.8 15L9.3 13.5L5 9H15V7Z"></path></symbol><symbol id="global/basket-theme-01" viewBox="0 0 28 32"><path d="M20.92,6C20.434,2.609,17.526,0,14,0S7.566,2.609,7.08,6H0v26h28V6H20.92z M14,2c2.415,0,4.434,1.721,4.899,4H9.101
	C9.566,3.721,11.585,2,14,2z M26,30H2V8h24V30z"></path></symbol><symbol id="global/basket-theme-02" viewBox="0 0 22 20"><circle cx="17" cy="18" r="2"></circle>
<circle cx="8" cy="18" r="2"></circle>
<polygon points="0,2 3.5,2 6,14 19,14 22,4 10,4 11,6 19.3,6 17.7,12 7.5,12 5,0 0,0 "></polygon></symbol><symbol id="global/basket-theme-04" viewBox="0 0 22 20"><g>
	<circle cx="17" cy="18" r="2"></circle>
	<circle cx="8" cy="18" r="2"></circle>
	<polygon points="0,2 3.5,2 6,14 19,14 22,4 10,4 11,6 19.3,6 17.7,12 7.5,12 5,0 0,0 	"></polygon>
</g></symbol><symbol id="global/broken_image" viewBox="0 0 62 58"><path fill-rule="evenodd" clip-rule="evenodd" d="M47.812 0L43.057 7.688H3C1.343 7.688 0 9.031 0 10.688V47.313C0 48.97 1.343 50.313 3 50.313H16.691L12.938 56.381L15.478 58L50.353 1.62L47.812 0ZM8.317 19.376C8.317 16.856 10.334 14.839 12.854 14.839C15.374 14.839 17.391 16.855 17.391 19.376C17.391 21.896 15.374 23.913 12.854 23.913C10.334 23.913 8.317 21.896 8.317 19.376ZM12.854 42.815L21.927 26.937L28.013 32.009L21.328 42.815H12.854Z" fill="#EE5253"></path>
<path fill-rule="evenodd" clip-rule="evenodd" d="M59 7.68799H50.142L39.568 24.781L52.927 42.815H28.413L23.775 50.312H59C60.657 50.312 62 48.969 62 47.312V10.688C62 9.03099 60.657 7.68799 59 7.68799Z" fill="#EE5253"></path></symbol><symbol id="global/card-amex" viewBox="0 0 32 22"><path fill="#5FBAE6" d="M30,22H2c-1.1,0-2-0.9-2-2V2c0-1.1,0.9-2,2-2h28c1.1,0,2,0.9,2,2v18C32,21.1,31.1,22,30,22z"></path>
<path fill="#FFFFFF" d="M6.9,11.3h1.5L7.7,9.5"></path>
<path fill="#FFFFFF" d="M28.5,7.8h-3.7c-0.1,0-0.1,0-0.2,0.1c-0.3,0.3-0.5,0.6-0.8,0.9c-0.3-0.3-0.5-0.6-0.7-0.9
	c-0.1-0.1-0.1-0.1-0.2-0.1h-8.6c-0.1,0-0.1,0-0.2,0.1l-0.7,1.5c-0.2-0.5-0.4-1-0.6-1.5c0-0.1-0.1-0.2-0.2-0.1H6.4
	c-0.1,0-0.2,0-0.2,0.2l-2.7,6.2h3.2c0,0,0.1-0.1,0.1-0.1c0.1-0.3,0.2-0.6,0.3-0.8c0,0,0.1-0.1,0.1-0.1H8c0.1,0,0.1,0,0.2,0.1
	c0.1,0.2,0.2,0.5,0.3,0.7c0,0.1,0.1,0.2,0.2,0.2c4.6,0,9.3,0,13.9,0c0.2,0,0.3-0.1,0.4-0.2c0.2-0.3,0.5-0.5,0.7-0.8
	c0.3,0.3,0.5,0.6,0.8,0.9c0.1,0.1,0.1,0.1,0.2,0.1h3.6c-0.9-1.1-1.9-2.1-2.8-3.2C26.5,10,28.5,7.8,28.5,7.8L28.5,7.8z M16.6,13.3
	h-1.1V9.8c0,0-1.1,2.3-1.5,3.4c0,0.1-0.1,0.1-0.2,0.1h-0.7c-0.1,0-0.1,0-0.2-0.1l-1.5-3.4v3.5H9.3c-0.1,0-0.2,0-0.2-0.1
	c-0.1-0.3-0.2-0.5-0.3-0.8c0-0.1-0.1-0.1-0.1-0.1c-0.7,0-1.4,0-2,0c-0.1,0-0.1,0-0.1,0.1c-0.1,0.3-0.2,0.6-0.3,0.8
	c0,0-0.1,0.1-0.1,0.1c-0.4,0-0.7,0-1.1,0l1.9-4.5c0-0.1,0.1-0.1,0.2-0.1c0.4,0,0.9,0,1.3,0c0.1,0,0.1,0,0.2,0.1l1.8,4.1V8.7H12
	c0.1,0,0.1,0,0.2,0.1l1.3,3l1.3-3c0,0,0.1-0.1,0.1-0.1h1.7L16.6,13.3L16.6,13.3z M26.4,13.3h-1.2c-0.2,0-0.3,0-0.4-0.2
	c0,0-1.1-1.3-1.2-1.4c0,0-1,1.1-1.3,1.4c0,0-0.1,0.1-0.2,0.1h-4.7V8.7h4.8c0.1,0,0.2,0,0.3,0.1c0.4,0.5,0.8,0.9,1.1,1.4L25,8.8
	c0,0,0.1-0.1,0.1-0.1c0.4,0,0.9,0,1.3,0c-0.7,0.8-1.4,1.5-2.1,2.3C25,11.8,25.7,12.5,26.4,13.3L26.4,13.3z"></path>
<path fill="#FFFFFF" d="M21.1,8.9v0.7h-2.6v0.8h2.6v0.9h-2.6v0.9h2.6V13c0.6-0.7,1.2-1.4,1.9-2L21.1,8.9C21.1,8.9,21.1,8.9,21.1,8.9
	z"></path></symbol><symbol id="global/card-discover" viewBox="0 0 32 22"><circle id="SVGID_1_" cx="16.8" cy="9.5" r="2.3"></circle></symbol><symbol id="global/card-paypal-white" viewBox="0 0 79 21"><path id="li0ha" d="M640.949 1667.54c1.472 0 2.582.401 3.207 1.16.57.69.759 1.677.562 2.932-.437 2.87-2.11 4.318-5.01 4.318h-1.392c-.3 0-.557.226-.604.532l-.504 3.302a.432.432 0 0 1-.423.373h-2.258a.375.375 0 0 1-.362-.437l1.78-11.647a.618.618 0 0 1 .603-.533zm.505 4.254c.087-.573.017-.987-.214-1.266-.386-.467-1.135-.467-1.927-.467h-.304a.37.37 0 0 0-.361.319l-.465 3.044h.662c1.165 0 2.369 0 2.609-1.63zm12.17-.017c.222 0 .391.202.357.425l-1.12 7.24a.605.605 0 0 1-.592.519h-1.864a.366.366 0 0 1-.356-.426l.092-.588s-1.022 1.21-2.866 1.21c-1.074 0-1.975-.316-2.607-1.075-.687-.827-.968-2.01-.77-3.25.38-2.484 2.334-4.255 4.62-4.255.998 0 1.997.223 2.445.888l.145.214.091-.591a.363.363 0 0 1 .356-.311zm-2.887 4.117c.09-.585-.034-1.116-.35-1.496-.315-.377-.792-.577-1.378-.577-1.178 0-2.13.838-2.317 2.036-.097.587.018 1.115.324 1.486.309.373.788.57 1.388.57 1.196 0 2.133-.81 2.333-2.02zm5.462-8.034c.027-.184.173-.32.344-.32h1.932c.214 0 .377.208.344.438l-1.692 11.647c-.045.306-.288.532-.574.532h-1.725c-.214 0-.378-.207-.345-.437z"></path><path id="li0hb" d="M610.003 1667.54c1.473 0 2.582.401 3.209 1.16.57.69.758 1.677.562 2.932-.438 2.87-2.112 4.318-5.012 4.318h-1.393a.618.618 0 0 0-.605.532l-.48 3.143a.618.618 0 0 1-.604.532h-2.103a.375.375 0 0 1-.362-.437l1.78-11.647a.618.618 0 0 1 .604-.533zm.508 4.254c.087-.573.017-.987-.214-1.266-.387-.467-1.138-.467-1.933-.467h-.304a.37.37 0 0 0-.363.319l-.466 3.044h.665c1.167 0 2.374 0 2.615-1.63zm12.166-.017c.221 0 .39.202.356.425l-1.12 7.24a.605.605 0 0 1-.593.519h-1.866a.366.366 0 0 1-.356-.426l.093-.588s-1.023 1.21-2.868 1.21c-1.074 0-1.976-.316-2.608-1.075-.688-.827-.97-2.01-.771-3.25.38-2.484 2.335-4.255 4.623-4.255.998 0 1.998.223 2.446.888l.145.214.091-.591a.363.363 0 0 1 .357-.311zm-2.887 4.117c.091-.585-.034-1.116-.35-1.496-.316-.377-.794-.577-1.382-.577-1.18 0-2.134.838-2.32 2.036-.098.587.017 1.115.324 1.486.309.373.79.57 1.39.57 1.199 0 2.138-.81 2.338-2.02zm14.003-4.316a.37.37 0 0 1 .301.58l-7.022 10.257a.607.607 0 0 1-.502.266h-2.11a.37.37 0 0 1-.298-.584l2.187-3.123-2.325-6.907a.37.37 0 0 1 .346-.49h2.076a.61.61 0 0 1 .584.44l1.235 4.172 2.913-4.341a.608.608 0 0 1 .504-.27z"></path><path id="li0hc" d="M594.618 1668.245c.233-1.554-.002-2.611-.807-3.569-.887-1.054-2.489-1.506-4.538-1.506h-5.949a.863.863 0 0 0-.84.75l-2.478 16.393c-.049.323.191.616.505.616h3.672l-.253 1.677c-.043.283.166.54.44.54h3.096a.755.755 0 0 0 .736-.657l.03-.164.583-3.86.038-.212a.755.755 0 0 1 .735-.656h.463c3 0 5.348-1.272 6.034-4.95.286-1.536.138-2.818-.62-3.72a2.971 2.971 0 0 0-.847-.682"></path><path id="li0hd" d="M594.618 1668.245c.233-1.554-.002-2.611-.807-3.569-.887-1.054-2.489-1.506-4.538-1.506h-5.949a.863.863 0 0 0-.84.75l-2.478 16.393c-.049.323.191.616.505.616h3.672l.923-6.105-.029.191c.065-.431.419-.75.838-.75h1.745c3.428 0 6.112-1.453 6.897-5.657.023-.124.043-.245.06-.363"></path></symbol><symbol id="global/card-stripe" viewBox="0 0 360 149.8"><style type="text/css">
	.st22{fill:#6772E5;}
</style>
<g>
	<path class="st22" d="M360,77.4c0-25.6-12.4-45.8-36.1-45.8c-23.8,0-38.2,20.2-38.2,45.6c0,30.1,17,45.3,41.4,45.3
		c11.9,0,20.9-2.7,27.7-6.5V96c-6.8,3.4-14.6,5.5-24.5,5.5c-9.7,0-18.3-3.4-19.4-15.2h48.9C359.8,85,360,79.8,360,77.4z M310.6,67.9
		c0-11.3,6.9-16,13.2-16c6.1,0,12.6,4.7,12.6,16H310.6z"></path>
	<path class="st22" d="M247.1,31.6c-9.8,0-16.1,4.6-19.6,7.8l-1.3-6.2h-22v116.6l25-5.3l0.1-28.3c3.6,2.6,8.9,6.3,17.7,6.3
		c17.9,0,34.2-14.4,34.2-46.1C281.1,47.4,264.6,31.6,247.1,31.6z M241.1,100.5c-5.9,0-9.4-2.1-11.8-4.7l-0.1-37.1
		c2.6-2.9,6.2-4.9,11.9-4.9c9.1,0,15.4,10.2,15.4,23.3C256.5,90.5,250.3,100.5,241.1,100.5z"></path>
	<polygon class="st22" points="169.8,25.7 194.9,20.3 194.9,0 169.8,5.3 	"></polygon>
	<rect x="169.8" y="33.3" class="st22" width="25.1" height="87.5"></rect>
	<path class="st22" d="M142.9,40.7l-1.6-7.4h-21.6v87.5h25V61.5c5.9-7.7,15.9-6.3,19-5.2v-23C160.5,32.1,148.8,29.9,142.9,40.7z"></path>
	<path class="st22" d="M92.9,11.6l-24.4,5.2l-0.1,80.1c0,14.8,11.1,25.7,25.9,25.7c8.2,0,14.2-1.5,17.5-3.3V99
		c-3.2,1.3-19,5.9-19-8.9V54.6h19V33.3h-19L92.9,11.6z"></path>
	<path class="st22" d="M25.3,58.7c0-3.9,3.2-5.4,8.5-5.4c7.6,0,17.2,2.3,24.8,6.4V36.2c-8.3-3.3-16.5-4.6-24.8-4.6
		C13.5,31.6,0,42.2,0,59.9C0,87.5,38,83.1,38,95c0,4.6-4,6.1-9.6,6.1c-8.3,0-18.9-3.4-27.3-8v23.8c9.3,4,18.7,5.7,27.3,5.7
		c20.8,0,35.1-10.3,35.1-28.2C63.4,64.6,25.3,69.9,25.3,58.7z"></path>
</g></symbol><symbol id="global/chat" viewBox="0 0 24 24"><path fill-rule="evenodd" clip-rule="evenodd" d="M12 20C16.4183 20 20 16.4183 20 12C20 7.58172 16.4183 4 12 4C7.58172 4 4 7.58172 4 12C4 13.3176 4.31698 14.5553 4.87709 15.6466C5.17635 16.2297 5.30572 16.9349 5.15893 17.6533L4.89083 18.9654L6.11109 18.716C6.85595 18.5638 7.5865 18.7083 8.18304 19.0329C9.31546 19.6491 10.6138 20 12 20ZM22 12C22 17.5228 17.5228 22 12 22C10.2715 22 8.6455 21.5615 7.22708 20.7896C7.00831 20.6706 6.7555 20.6257 6.51148 20.6755L3.80825 21.2279C3.10562 21.3715 2.48473 20.7506 2.6283 20.0479L3.19941 17.2529C3.24751 17.0175 3.20747 16.7736 3.09777 16.5599C2.39601 15.1926 2 13.6425 2 12C2 6.47715 6.47715 2 12 2C17.5228 2 22 6.47715 22 12Z" fill="white"></path>
<rect x="7" y="9" width="10" height="2" fill="white"></rect>
<rect x="7" y="13" width="7" height="2" fill="white"></rect></symbol><symbol id="global/check" viewBox="0 0 12 10"><path d="M12,1.8L10.3,0L4.1,6.5L1.7,4L0,5.8L4.1,10L12,1.8z"></path></symbol><symbol id="global/choose" viewBox="0 0 50 50"><g>
	<polygon points="10,0 10,8 12,8 12,2 48,2 48,38 42,38 42,40 50,40 50,0 	"></polygon>
	<path d="M0,50h40V10H0V50z M2,12h36v36H2V12z"></path>
	<path d="M4,28h32V15H4V28z M6,17h28v9H6V17z"></path>
	<path d="M4,45h14V31H4V45z M6,33h10v10H6V33z"></path>
	<rect x="21" y="32" width="14" height="2"></rect>
	<rect x="21" y="37" width="14" height="2"></rect>
	<rect x="21" y="42" width="7" height="2"></rect>
</g></symbol><symbol id="global/circle" viewBox="-301 391 12 12"><path d="M-295,400.5c-1.9,0-3.5-1.6-3.5-3.5s1.6-3.5,3.5-3.5s3.5,1.6,3.5,3.5S-293.1,400.5-295,400.5z M-295,392c-2.8,0-5,2.2-5,5
	s2.2,5,5,5s5-2.2,5-5S-292.2,392-295,392z"></path></symbol><symbol id="global/clock" viewBox="0 0 36 44"><g><g><path fill="#c5cfd5" d="M32.883 13.936c.412-.556.618-1.25.618-2.014 0-1.945-1.578-3.542-3.499-3.542-.891 0-1.715.347-2.332.903a18.585 18.585 0 0 1 5.213 4.653z"></path></g><g><path fill="#c5cfd5" d="M8.12 9.283a3.493 3.493 0 0 0-2.333-.903 3.55 3.55 0 0 0-3.567 3.542c0 .764.206 1.389.617 2.014 1.44-1.875 3.224-3.473 5.282-4.653z"></path></g><g><path fill="#c5cfd5" d="M18 11.985h.07c3.635 0 7.065 1.458 9.671 4.097 2.607 2.639 3.979 6.11 3.979 9.861 0 3.68-1.44 7.153-4.047 9.722-2.607 2.64-6.037 4.028-9.604 4.028h-.137c-7.546-.07-13.72-6.389-13.651-14.027 0-7.57 6.173-13.68 13.72-13.68zM.714 29.137C2.36 37.68 9.494 43.651 18 43.651c1.235 0 2.539-.139 3.773-.416 9.124-1.875 15.298-11.32 13.583-20.487-1.44-7.569-6.791-12.986-14.268-14.444-.343-.07-.55-.139-.686-.139l-.412-.07c-.069-.208 0-2.291 0-2.36v-.348h2.332c1.235-.07 1.578-.833 1.647-1.458.068-.764.068-1.667 0-2.57C23.9.526 23.35.04 22.597.04h-9.33c-.891 0-1.577.694-1.577 1.667v1.597c0 1.458.686 2.083 2.126 2.153h2.47v.347c0 .139.068 1.875 0 2.083v.14l-.137.069c-.07.069-.275.138-.755.208-.137 0-.274.07-.412.07-.068 0-.205.069-.343.069-4.458.833-8.574 3.542-11.181 7.5A17.342 17.342 0 0 0 .714 29.137z"></path></g><g><path fill="#c5cfd5" d="M25.614 23.304a1.2 1.2 0 0 0-1.51-.763l-4.252 1.527c-.48-.486-1.098-.694-1.784-.694-1.44 0-2.538 1.18-2.538 2.57a2.548 2.548 0 0 0 2.538 2.569c1.235 0 2.264-.903 2.538-2.153l4.253-1.528c.618-.139.96-.833.755-1.528z"></path></g></g></symbol><symbol id="global/cross_10-shadow" viewBox="0 0 12 12"><polygon points="11,2.4 9.6,1 6,4.6 2.4,1 1,2.4 4.6,6 1,9.6 2.4,11 6,7.4 9.6,11 11,9.6 7.4,6 "></polygon>
<path opacity="0.7" fill="#FFFFFF" d="M8.39,6L12,2.4L9.6,0L6,3.61L2.4,0L0,2.4L3.61,6L0,9.6L2.4,12L6,8.39L9.6,12L12,9.6L8.39,6z
	 M6,7.4L2.4,11L1,9.6L4.6,6L1,2.4L2.4,1L6,4.6L9.6,1L11,2.4L7.4,6L11,9.6L9.6,11L6,7.4z"></path></symbol><symbol id="global/cross_10" viewBox="0 0 10 10"><polygon points="10,1.4 8.6,0 5,3.6 1.4,0 0,1.4 3.6,5 0,8.6 1.4,10 5,6.4 8.6,10 10,8.6 6.4,5 "></polygon></symbol><symbol id="global/cross_12" viewBox="0 0 12 12"><polygon points="12,1.415 10.585,0 6,4.585 1.415,0 0,1.415 4.585,6 0,10.585 1.415,12 6,7.415 10.585,12 12,10.585 7.415,6 "></polygon></symbol><symbol id="global/cross_14" viewBox="0 0 14 14"><polygon points="14,1.417 12.583,0 7,5.583 1.417,0 0,1.417 5.583,7 0,12.583 1.417,14 7,8.417 12.583,14 14,12.583 8.417,7 "></polygon></symbol><symbol id="global/cross_18" viewBox="0 0 18 18"><path fill-rule="evenodd" clip-rule="evenodd" d="M7.6 9L0 1.4L1.4 0L9 7.6L16.6 0L18 1.4L10.4 9L18 16.6L16.6 18L9 10.4L1.4 18L0 16.6L7.6 9Z"></path></symbol><symbol id="global/cross_20" viewBox="0 0 20 20"><polygon points="20,1.5 18.5,0 10,8.5 1.5,0 0,1.5 8.5,10 0,18.5 1.5,20 10,11.5 18.5,20 20,18.5 11.5,10 "></polygon></symbol><symbol id="global/dailymotion-play" viewBox="0 0 81 81"><circle cx="40.705" cy="40.705" r="40.078" fill="currentColor" fill-opacity=".4"></circle><path d="M55.42 40.705L33.504 55.734V25.675z"></path></symbol><symbol id="global/error-video" viewBox="0 0 62 58"><path d="M62,29c0,0,0.002-10.277-1.3-15.17c-0.689-2.718-2.798-4.812-5.44-5.55c-1.403-0.37-4.021-0.633-7.03-0.82L36.6,26.25L41,29
	l-10,6.2l-9.65,15.66C26.523,51.001,31,51,31,51s19.397,0,24.26-1.359c2.642-0.699,4.742-2.833,5.44-5.511
	C62.002,39.131,62,29,62,29z"></path>
<path d="M46,0l-4.5,7.17C35.933,7.002,31,7,31,7S11.642,7,6.74,8.32c-2.642,0.738-4.752,2.87-5.48,5.55C-0.004,18.724,0,29,0,29
	s-0.004,10.188,1.26,15.12c0.728,2.68,2.876,4.842,5.48,5.58c1.542,0.406,4.541,0.71,7.92,0.9L11,56.5l2.5,1.5l35-56.5L46,0z M25,34
	V19l6.65,4.15L25,34z"></path></symbol><symbol id="global/facebook" viewBox="0 0 44 44"><path fill="#405B97" d="M41.6,0H2.4C1.1,0,0,1.1,0,2.4v39.1C0,42.9,1.1,44,2.4,44h21.1V27h-5.7v-6.6h5.7v-4.9c0-5.7,3.5-8.8,8.5-8.8
	c2.4,0,4.5,0.2,5.1,0.3v5.9l-3.5,0c-2.8,0-3.3,1.3-3.3,3.2v4.2h6.6L36.1,27h-5.7v17h11.2c1.3,0,2.4-1.1,2.4-2.4V2.4
	C44,1.1,42.9,0,41.6,0z"></path></symbol><symbol id="global/fullname" viewBox="0 0 16 16"><path d="M15.9,13.2c-0.1-0.7-4.1-1.6-4.4-1.8c-0.9-0.3-0.9-0.3-0.9-1.1l0-0.3c0-0.3,0-0.4,0.2-0.6c0.3-0.4,0.6-0.8,0.8-2
	c0-0.3,0.1-0.3,0.1-0.4c0.1-0.2,0.3-0.5,0.4-1.2c0.1-0.5,0-0.8,0-1.1c0-0.1,0-0.1,0-0.1l0-0.3c0-0.3,0.1-0.6,0.1-1.1
	c0.1-0.6-0.2-1.2-1-2C10.7,0.7,9.7,0,8,0C6.3,0,5.3,0.7,4.8,1.3c-0.7,0.8-1,1.4-1,2c0,0.5,0.1,0.8,0.1,1.1l0,0.3c0,0,0,0,0,0.1
	C3.9,5,3.8,5.3,3.9,5.9c0.2,0.8,0.3,1,0.4,1.2c0.1,0.1,0.1,0.1,0.1,0.4c0.2,1.2,0.5,1.7,0.8,2c0.1,0.2,0.2,0.2,0.2,0.6l0,0.3
	c0,0.8,0,0.8-0.9,1.1c-0.3,0.1-4.3,1.1-4.4,1.7C0,13.9,0,15.5,0,15.5V16h16v-0.5C16,15.5,16,13.9,15.9,13.2z M5.2,6.6
	C5.1,6.5,5,6.3,4.9,5.7c-0.1-0.3,0-0.4,0-0.5C4.9,5,5,4.8,5,4.6l0-0.3c0-0.3-0.1-0.6-0.1-1.1C4.8,2.9,5,2.6,5.5,2C6.1,1.3,7,1,8,1
	c1,0,1.9,0.3,2.5,1c0.6,0.6,0.7,1,0.7,1.3c0,0.5-0.1,0.8-0.1,1.1l0,0.3c0,0.2,0,0.4,0.1,0.5c0,0.1,0.1,0.2,0,0.5
	c-0.2,0.7-0.2,0.8-0.3,0.9c-0.1,0.2-0.2,0.3-0.3,0.8c-0.2,1.1-0.4,1.4-0.6,1.6C9.8,9.2,9,9.9,8,10.1c-1.2-0.2-1.8-0.9-2-1.1
	C5.9,8.7,5.7,8.4,5.5,7.4C5.4,6.9,5.3,6.7,5.2,6.6z M1,15c0-0.3,0-1.3,0.1-1.6c0-0.1,3.4-1.1,3.8-1.2c1.4-0.5,1.6-0.4,1.6-1.8
	c0,0,1.2,0.4,1.6,0.4c0.4,0,1.6-0.4,1.6-0.4c0,1.3,0.2,1.4,1.6,1.8c0.3,0.1,3.7,1.1,3.8,1.2c0,0.3,0.1,1.2,0.1,1.6H1z"></path></symbol><symbol id="global/geo_address" viewBox="0 0 10 14"><path d="M5,0C2.2,0,0,2.3,0,5c0,4.3,5,9,5,9s5-4.7,5-9C10,2.3,7.8,0,5,0z M5,7C3.9,7,3,6.1,3,5s0.9-2,2-2s2,0.9,2,2S6.1,7,5,7z"></path></symbol><symbol id="global/google" viewBox="0 0 44 44"><path fill="#FBBC05" d="M9.5,22c0-1.4,0.2-2.8,0.7-4.1l-7.4-5.7c-1.4,2.9-2.3,6.2-2.3,9.7c0,3.5,0.8,6.8,2.3,9.7l7.4-5.7
	C9.7,24.8,9.5,23.4,9.5,22z"></path>
<path fill="#EA4335" d="M22.5,9c3.1,0,5.9,1.1,8.1,2.9L37,5.5C33.1,2.1,28.1,0,22.5,0C13.8,0,6.3,5,2.8,12.3l7.4,5.7
	C11.9,12.7,16.7,9,22.5,9z"></path>
<path fill="#34A853" d="M22.5,35c-5.8,0-10.6-3.7-12.3-8.9l-7.4,5.7C6.3,39,13.8,44,22.5,44c5.4,0,10.5-1.9,14.3-5.5l-7-5.4
	C27.8,34.3,25.3,35,22.5,35z"></path>
<path fill="#4285F4" d="M40.5,18h-8.2h-9.8v8.5h11.8c-0.6,2.9-2.2,5.1-4.5,6.6l7,5.4c4-3.8,6.7-9.3,6.7-16.5c0-1.3-0.2-2.7-0.5-4
	H40.5z"></path></symbol><symbol id="global/help" viewBox="0 0 24 24"><path fill-rule="evenodd" clip-rule="evenodd" d="M20 12C20 16.4183 16.4183 20 12 20C7.58172 20 4 16.4183 4 12C4 7.58172 7.58172 4 12 4C16.4183 4 20 7.58172 20 12ZM22 12C22 17.5228 17.5228 22 12 22C6.47715 22 2 17.5228 2 12C2 6.47715 6.47715 2 12 2C17.5228 2 22 6.47715 22 12ZM14.4613 6.95828C13.7279 6.40828 13.0083 6.13328 11.9083 6.13328C11.0833 6.13328 10.35 6.31661 9.8 6.68328C8.79167 7.32495 8.33334 8.33328 8.24167 9.70828H10.35C10.35 9.34161 10.4417 8.88328 10.7167 8.51661C10.9917 8.14995 11.3583 7.96661 11.9083 7.96661C12.4583 7.96661 12.765 8.05563 13.1 8.42495C13.3815 8.7353 13.4667 9.06661 13.4667 9.43328C13.4667 9.79995 13.375 10.0749 13.1917 10.3499C13.1154 10.5025 12.9842 10.6072 12.8296 10.7306C12.7984 10.7556 12.7662 10.7813 12.7333 10.8083C12.6294 10.8936 12.5834 10.9236 12.5056 10.9741C12.4369 11.0187 12.3436 11.0793 12.1641 11.2082C11.781 11.4832 11.175 11.9999 11.0833 12.2749C10.9917 12.5499 11 13.5 11 14.5H13C13 14.3637 13.0012 13.7609 13 13.6553C12.9912 12.9082 12.9824 12.8485 13.5446 12.3666C13.6834 12.2278 13.9141 12.0234 14.1572 11.8079C14.5564 11.4542 14.989 11.0709 15.1029 10.8999C15.3779 10.4416 15.5613 9.89161 15.5613 9.24995C15.5613 8.24161 15.1946 7.50828 14.4613 6.95828ZM10.9917 17C10.9917 17.5523 11.4394 18 11.9917 18C12.544 18 12.9917 17.5523 12.9917 17C12.9917 16.4477 12.544 16 11.9917 16C11.4394 16 10.9917 16.4477 10.9917 17Z" fill="white"></path></symbol><symbol id="global/limit_reached" viewBox="0 0 350 198"><path opacity="0.5" fill="#E3E6E8" enable-background="new    " d="M345.4,34h-37.1v149.9h37.1c4.6,0,4.6-4.5,4.6-4.5V38.5
	C350,36,347.9,34,345.4,34z M345.4,36c1.4,0,2.6,1.1,2.6,2.5V51h-39.2V36H345.4z M347.6,180.8c-0.3,0.8-1,1.2-2.2,1.2h-36.6V53H348
	v126.4C348,179.7,347.9,180.3,347.6,180.8z"></path>
<path opacity="0.5" fill="#E3E6E8" enable-background="new    " d="M0,38.5V51v2v126.5c0,2.5,2.1,4.5,4.6,4.5h37.6V34H4.6
	C2.1,34,0,36,0,38.5z M41.6,181.9h-37c-1.4,0-2.6-1.1-2.6-2.5V53h39.6V181.9z M41.6,51H2V38.5C2,37.2,3.2,36,4.6,36h37V51z"></path>
<path fill="#E3E6E8" d="M304,0H46c-3.3,0-6,2.7-6,6v186c0,3.3,2.7,6,6,6h258c6,0,6-6,6-6V6C310,2.7,307.3,0,304,0z M46,3h258
	c1.6,0,3,1.4,3,3c0,0,0,5.7,0,15H43V6C43,4.4,44.4,3,46,3z M306.6,193.7c-0.5,0.9-1.2,1.3-2.6,1.3H46c-1.6,0-3-1.4-3-3V24h264
	c0,46.7,0,168.3,0,168.5C306.9,192.9,306.8,193.3,306.6,193.7z"></path>
<rect x="115" y="161" opacity="0.5" fill="#E3E6E8" enable-background="new    " width="120" height="5"></rect>
<rect x="125" y="173" opacity="0.5" fill="#E3E6E8" enable-background="new    " width="100" height="5"></rect>
<rect x="104" y="146" fill="#E3E6E8" width="100" height="8"></rect>
<rect x="210" y="146" fill="#E3E6E8" width="37" height="8"></rect>
<rect x="55" y="49" opacity="0.5" fill="#E3E6E8" enable-background="new    " width="240" height="87"></rect>
<rect x="264" y="34" fill="#E3E6E8" width="31" height="5"></rect>
<circle fill="#E3E6E8" cx="55" cy="12" r="3"></circle>
<circle fill="#E3E6E8" cx="67" cy="12" r="3"></circle>
<circle fill="#E3E6E8" cx="79" cy="12" r="3"></circle>
<rect x="55" y="34" fill="#E3E6E8" width="31" height="5"></rect>
<rect x="189" y="34" fill="#E3E6E8" width="31" height="5"></rect>
<rect x="229" y="34" fill="#E3E6E8" width="26" height="5"></rect>
<path fill="#FF334C" d="M121.1,117c0.1-0.2,0.2-0.4,0.3-0.6c-0.3-1-0.4-1.9-0.9-2.9c-0.3,0.5-0.6,0.9-0.9,1.3
	c-0.3-0.1-0.6-0.2-0.9-0.3c0-0.2,0-0.4,0-0.6l-3,0.8c-0.4,5.3-0.8,10.7-1.1,16.2c-2.2-3-7-10.1-9-13.2c-1.2,0.1-4.3,0.9-5,1.4
	c0.9,4,2.3,7.9,3,11.9c0.3,2,1.2,4,1.8,6c0,0.1,0.1,0.1,0.1,0.2c0.3,0.2,0.5,0.3,0.8,0.5c0.8-0.3,1.8,0.1,2.6-0.6
	c0,0-0.6-2.5-0.9-3.5c-0.3-0.8-0.2-1.9-1.1-2.4c0.1-0.3,0.1-0.7,0.2-1.1l-1.9-7.2c1.9,2.7,7.4,10.7,8.3,12c0.3,0.4,0.5,0.8,0.8,0.8
	c1.1-0.4,1.9-0.7,2.8-1l1.3-16.2c0.8,2.4,1.2,4.8,2.1,7.2c0,0.6,1.5,6.6,2.1,7.6c0.6-0.1,1.1-0.4,1.7-0.4c0.6-0.1,1.2,0,1.7-0.5
	C122.8,121.8,122.8,118.5,121.1,117z M118,117.4c0-0.3-0.2-1.1-0.3-1.4c0,0,0.1,0,0.1,0.1c0,0,0,0,0-0.1c0.4,0.2,0.6,0.3,0.9,0.4
	C118.5,116.7,118.3,116.9,118,117.4z M120,118.7c-0.2-0.5-0.1-0.7,0.4-0.6C120.3,118.3,120.2,118.5,120,118.7z M121.1,124.8
	L121.1,124.8H121c0-0.2-0.1-0.4-0.2-0.7c0.3-0.1,0.5-0.2,0.8-0.3l0.2,0.8L121.1,124.8z"></path>
<path fill="#FF334C" d="M270.6,80.4c-2.6-5-6.2-5.3-11.3-4.3c-2.7,0.5-4.6,1.3-5.6,1.6c0.1,0.4,0.2,0.8,0.2,1.1
	c3.4,10.9,0.7,2.9,2.9,9.4c-0.1,0.9,1.6,7.3,2.2,8.3c8.2-1.5,14.3-3.7,12.9-11.9C271.7,83.2,271.3,81.7,270.6,80.4z M265.2,78.7
	c0.2-0.1,0.3-0.1,0.5-0.2l0.1,0.3c-0.2,0-0.3,0.1-0.5,0.1C265.2,78.8,265.2,78.8,265.2,78.7L265.2,78.7L265.2,78.7z M266.2,91.8
	c-1.4,0.5-2.9,1.1-4.5,1.6c-0.4-1-0.7-1.9-1.1-3c0-1.2-2-7.8-2.8-11.2c1.7-0.3,3.2-0.6,4.7-0.9c2.8,1.3,5.8,1.8,5.8,10.3
	C267.6,89.6,266.9,90.7,266.2,91.8z"></path>
<path fill="#FF334C" d="M167.8,107.7c-0.3-1.2-0.5-2.6-1.5-3.7c-3.5-1.5-2.5-2.3-12.8,0.6c-0.2,0.3-0.3,0.6-0.5,0.9
	c2.1,7.8,1.8,7.2,2.4,8.4c0,0.5,0,0.9,0.1,1.2c2.2,7.7,1.8,8,2.8,8.6c1-0.3,2-0.4,2.9-0.9l-2.2-8.2l2.6-0.7c2.2,2.4,4.3,4.8,6.4,7.2
	c0.8-0.3,3-0.7,3.6-1.2c-2.2-2.5-4.4-4.9-6.7-7.4C166.7,111.5,167.7,110,167.8,107.7z M163.6,109.9c-1.5,1.3-3.1,2.3-5.1,2.4
	l-1.6-6.1c1.7-0.4,6.2-2.5,7.3,1.4C164,108.3,163.8,109.1,163.6,109.9z"></path>
<path fill="#FF334C" d="M235.7,89.1c-0.3-0.3-0.5-0.6-0.8-0.8c0.2-0.2,0.3-0.5,0.3-0.5c-0.4-1.6-0.9-3-1.3-4.4
	c-1.4-0.2-2.5,0.2-3.6,0.6l0.7,2.6c0.3,0.1,0.6,0.2,0.9,0.7c0.3-0.2,0.6-0.4,0.9-0.6c0.2,0.1,0.3,0.1,0.4,0.2
	c-0.5,0.6-1.6,0.5-1.8,1.6l0.9,3.5c-1.2,0.9-2.7,1-4,1.4s-2.7,0.8-4.1,1.1c-1-2.7-0.9-5.5-2.1-8.1c-1.3,0.3-2.5,0.5-3.7,1
	c0.6,2.3-0.5-1.7,5.1,18.2c0.1,0.2,0.1,0.4,0.2,0.5c0.7-0.1,1.2-0.2,1.7-0.3c0.5-0.1,0.9-0.2,1.5-0.4c-0.2-1.5-0.6-2.9-1.1-4
	c-0.2-1.7-0.8-3-1-4.5l8.2-2.2c0.9,3.1,2.4,8.5,2.4,8.5c0.6-0.2,1.2-0.4,1.7-0.5c0.6-0.2,1.1-0.3,1.8-0.5
	C238,98.2,236.5,94,235.7,89.1z M222.3,95.5c0.8-0.3,1-0.2,1.1,0.6C222.8,96.4,222.6,95.9,222.3,95.5z M235.6,97.6L235.6,97.6
	L235.6,97.6c-0.1-0.2-0.2-0.4-0.3-0.7c0.1-0.1,0.3-0.2,0.5-0.3l0.2,0.9L235.6,97.6z"></path>
<path fill="#FF334C" d="M188.5,95c0,0-0.4,5.5-0.5,8.4c-0.2,2.8-0.3,5.5-0.5,8.3c-0.1,1.3-0.1,2.6-0.2,4l3.6-1
	c0.1-1.5,0.2-3,0.3-4.5c1.6-0.5,3.1-1,4.8-1.6c0.1-0.1,0.3-0.3,0.4-0.4c0.6,0.1,1.1,0.1,1.7,0.2c0.8,1.3,1.7,2.6,2.5,3.9
	c1.3-0.4,2.5-0.8,3.9-0.9c-3.7-6-7.8-11.4-11.3-17.5L188.5,95z M190.7,96.8c-0.1,0-0.2,0-0.3,0c0,0-0.2-0.4-0.3-0.5
	c0.2-0.1,0.3-0.1,0.6-0.2C190.7,96.4,190.7,96.6,190.7,96.8z M191.2,107.7c0.1-3.5,0.2-6.9,0.3-10.2c1.8,2.8,3.5,5.7,5.3,8.6
	C196.1,106.5,192.9,107.4,191.2,107.7z"></path>
<path fill="#FF334C" d="M246.8,97l-1.6-5.8c1-0.2,5.8-1.5,6.7-1.9l-0.7-2.5c-2.1,1-4.3,1.4-6.4,2c-0.3-0.4-0.6-0.7-0.9-1
	c0.1-0.4,0.1-0.7,0.2-1c-0.1-0.6-0.3-1.2-0.4-1.7c-0.1-0.5-0.4-1.1-0.3-1.8c7.2-1.8,0.1,0.1,6.9-1.8l-0.7-2.5
	c-0.4-0.1-10.3,2.6-10.7,2.7l5.1,19.1c3.6-1.3,7.4-1.7,11.1-2.8l-0.7-2.6C253,95.4,248.7,97.3,246.8,97z"></path>
<path fill="#FF334C" d="M178.1,115.5c-0.3-1-0.6-1.9-0.8-2.9c-0.2-0.9-1.1-1.7-0.9-2.8c2.2-0.7,4.5-1.1,6.7-2l-0.7-2.5
	c-2.2,0.9-4.5,1.5-6.8,2c-0.5-1.8-1-3.6-1.4-5.4c0.6-0.2,6.7-1.8,7.2-2.2l-0.7-2.5c-3.7,1-7.2,1.9-10.5,3l2.5,9.2
	c0.1,0,0.3,0,0.5,0.1c-0.1,0.3-0.2,0.6-0.3,0.8c0.8,2.9,1.5,5.7,2.3,8.6l0.1,0.1c0,0,0,0,0.2,0.1c1.1-0.3,2.3-0.4,3.4-1.1
	c1.3,0.3,2.4-0.9,3.8-0.6c0.5,0.1,3.1-0.8,3.8-1.2c-0.3-0.7-0.6-1.5-1-2.3C179.4,115.5,179.1,115.9,178.1,115.5z"></path>
<path fill="#FF334C" d="M216.2,105.2c-0.7,0.7-1.5,1.3-2.5,1.4c-0.6,0.1-1.3,0-1.8,0c-1-0.5-1.8-1-2.6-1.4c-2.4-2.4-3.9-6.5-2.6-9.9
	c1.3-3.3,1.3-2.4,3.3-3.6c1.6-0.2,3.1,0.1,4.6,0.6c0.5-0.9,1.5-1.4,1.6-2.6c-3.2-2.2-6.3-0.7-7.5-0.5c-1.7,0.3-3.1,1.2-4.2,2.6
	c-1.2,1.6-1.9,3.4-2,5.4c0,4.5,2,10.7,7.9,12.1c0.9,0.2,1.9,0.2,2.9,0c0.4,0,0.8-0.2,0.9-0.7c0.3,0.1,0.4,0.2,0.5,0.3
	c2.4-0.3,5.2-2.6,5.5-4.4c-0.9-0.3-1.7-0.6-2.6-0.9C217.1,104.1,216.7,104.7,216.2,105.2z M205.5,95.5c-0.2-0.1-0.4-0.3-0.6-0.5
	c0.2-0.7,0.6-1.1,1.2-1.4l0,0c0,0,0,0,0.1,0c0.2,0.2,0.4,0.4,0.6,0.5C206.6,95,205.9,95.1,205.5,95.5z"></path>
<path fill="#FF334C" d="M144.2,107.1c-1.9,0.3-11.6,2.9-12.2,3.3l0.6,2.2c1.5-0.3,3-0.9,4.6-1.1l4.4,16.6c1.2-0.4,2.4-0.6,3.5-1
	c-0.1-0.3-0.1-0.6-0.2-0.8c-5.5-20.9-3.4-10.1-4.2-15.8c1.5-0.4,3-0.7,4.5-1C145,108.6,145,107.7,144.2,107.1z"></path>
<path fill="#FF334C" d="M86.9,140.1c-3.8-12.6-4.8-16.5-4.8-16.5c-1.1,0.3-2.2,0.5-3.2,0.9c2.5,9.3,1.7,7,2.6,7.9
	c-0.1,0.4-0.2,0.7-0.3,0.9c0.9,3.3,1.8,6.7,2.7,9.9c0.2,0.2,0.2,0.2,0.4,0.3c3.2-1.2,6.8-1.4,10.2-2.6c-0.2-1-0.4-1.9-1.1-2.5
	C91.2,138.9,89.1,139.6,86.9,140.1z"></path>
<path fill="#FF334C" d="M95.4,120.3c0-0.1-0.1-0.1-0.1-0.1c0-0.1-0.1-0.1-0.1-0.1l-3.3,0.9c0.4,2.1,4.8,18.2,5.3,19
	c1-0.3,2.2-0.4,3.1-0.9c0.1-0.2,0.1-0.3,0.1-0.4C100.4,138.7,95.4,120.3,95.4,120.3z M95.4,129.8c0.1-0.5,0.2-0.8,0.2-1.1h0.6
	C96.2,129.2,95.9,129.5,95.4,129.8z"></path>
<path fill="#FF334C" d="M95.4,129.8c0.5-0.3,0.8-0.6,0.8-1.1h-0.1C96.2,129.2,95.9,129.4,95.4,129.8z"></path>
<path fill="#FF334C" d="M129.6,113c-0.1-0.7,0-1.4-0.5-1.9l-3.1,0.8c0,0.3,0.1,0.5,0,0.8c0.4,1.9,1.3,3.7,1.3,5.6
	c0,0.1,0.1,0.2,0.1,0.3c1.3,3.2,2.7,10.2,3.6,12.4c1.2-0.4,2.5-0.3,3.4-1.3C133.9,127.6,131.2,117.7,129.6,113z M129.4,119.1
	c0.4-0.3,0.8-0.4,1.1,0C130,119.8,129.9,119.8,129.4,119.1z"></path>
<path fill="#FF334C" d="M129.4,119.1c0.2-0.1,0.4-0.2,0.6-0.3C129.8,118.8,129.6,118.9,129.4,119.1z"></path>
<path fill="#FF334C" d="M76.5,156.5l-8.9-33.4c-0.5-1.9-1-3.8-1.5-5.6c-0.2-0.8-0.2-1.4,0.4-2.1c0.3-0.1,0.6-0.1,0.9-0.3
	c2.3-0.7,4.5-1.5,6.8-2.1c2.7-0.7,5.3-1.2,8.1-1.9c0.3,0.1,0.7,0.2,1.1,0.4c0.3-0.4,0.7-0.8,1.1-1.3c1.9-0.5,3.9-1.2,5.9-1.5
	c2.7-0.4,5.2-1.3,7.8-1.9c2.6-0.6,5.2-1.2,7.8-2.1c3.3-1.2,6.8-1.9,10.1-2.9c0.4-0.1,0.8-0.1,1-0.1c1-0.3,1.7-0.7,2.5-0.7
	c0.6,0,1.2-0.2,1.7-0.3c0.2,0,0.4-0.1,0.6-0.2c5.3-1.5,10.5-3.2,15.9-4.4c4.1-1,8.2-1.9,12.2-3.1c2.5-0.8,5-1.7,7.6-2.2
	c2.7-0.5,5.3-1.1,7.9-2c4.4-1.5,9-2.7,13.5-3.7c3.1-0.8,6.3-1.3,9.4-2.4c4-1.4,8.1-2.3,12.2-3.4c4-1.1,8.1-2.3,12.2-3.2
	c2.7-0.6,5.4-1.1,8-2c2.7-1,5.5-1.8,8.3-2.3c2.6-0.5,5.2-1.1,7.7-2c3.9-1.4,8-2.3,12-3.3c2.1-0.5,4.2-0.8,6.2-1.5
	c1.9-0.7,3.9-1.2,5.8-1.8c0.6-0.2,1.2-0.2,1.9-0.2c0.4,0,0.9,0.1,1.3-0.2c0.7-0.5,1.6-0.6,2.3-0.8c1-0.3,2-0.5,3-0.8
	c0.9-0.3,1.8-0.6,2.7-1c0.8-0.3,1.6-0.3,2.5-0.1c0.1,0.2,0.4,0.5,0.5,0.8c0.7,2.2,1.4,4.5,2.1,6.7c0.3,1,0.6,2,0.8,3.1
	c1,5.2,2.5,10.2,3.9,15.4c-0.1,0.3-0.1,0.7-0.2,1.1c0.1,0.1,0.3,0.2,0.6,0.3l0.2,0.9c0.8,3.1,1.6,6.2,2.5,9.3c0.3,0.9,0.7,1.8,1,2.7
	c-0.1,0.5-0.2,1-0.3,1.5c-0.6,0.6-1.3,0.8-2.1,1c-19.5,5.2-38.9,10.4-58.4,15.6c-3,1.2-6.1,2-9.2,2.7c-6.7,1.4-13.2,3.4-19.8,5.1
	s-13.2,3.5-19.8,5.3l-19.8,5.3c-6.6,1.8-13.2,3.5-19.8,5.3c-1,0.3-1.9,0.8-2.9,1c-3.8,0.6-7.4,1.9-11.1,2.8c-0.3,0.1-0.5,0-0.8,0.1
	c-0.2,0-0.4,0-0.6,0.1c-0.7,0.6-1.5,0.6-2.3,0.8c-10.4,2.8-20.7,5.6-31.1,8.3c-0.5,0.1-1.1,0.2-1.5,0.6c-0.2,0.2-0.6,0.3-0.9,0.3
	c-1.6,0-3.1,0.7-4.6,1c-0.5,0.1-0.9,0.2-1.4,0.4C78,157.8,77.1,157.5,76.5,156.5 M283.8,101.2c0.1-0.5,0.3-1,0.3-1.3
	c-0.2-0.7-0.4-1.1-0.6-1.6c-0.8-2.8-1.5-5.6-2.2-8.4c-0.2-0.6-0.3-1.2-0.7-1.8c-0.3-0.4-0.4-0.9-0.4-1.4c0.1-0.7-0.1-1.3-0.3-1.9
	c-2.2-7.7-3.9-15.6-6.5-23.2c-0.1-0.2-0.2-0.3-0.3-0.5l-1.5,0.4l-18.3,4.9l-18.3,5c-6.1,1.6-12.2,3.2-18.3,4.9
	c-6.1,1.7-12.3,3.1-18.3,5.1c-3.4,1.1-6.9,2-10.4,2.6c-17,4.5-33.9,9.1-50.9,13.6c-0.6,0.2-1.3,0.4-2,0.3c-0.4,0-0.8,0.2-1.3,0.4
	c-0.4,0.2-0.9,0.4-1.3,0.5c-7.5,2-15,4-22.5,6c-0.8,0.2-1.6,0.6-2.6,0.5c-0.1,0-0.4,0-0.4,0.1c-0.4,0.5-1,0.5-1.5,0.6
	c-4.2,1.1-8.3,2.2-12.5,3.4c-8.2,2.2-16.4,4.4-24.6,6.6c-0.4,0.1-0.8,0.3-1.3,0.4c0.1,0.4,0.1,0.7,0.1,0.9
	c1.4,5.2,2.8,10.4,4.2,15.5c0.1,0.3,0.3,0.6,0.4,0.9c0.5,1.2,0.9,2.5,1,3.8c0.2,0.4,0.4,0.9,0.5,1.3c1.4,5.3,2.9,10.7,4.3,16
	l0.3,1.1c0.5,0,0.9,0,1.3-0.1c1.1-0.3,2.2-0.8,3.3-1.1c3.4-0.9,6.7-1.9,10.1-2.7s6.7-1.9,10.1-2.5c2.6-0.5,5.2-1.5,7.8-2.2
	c4.1-1.2,8.2-2.4,12.4-3.2c2.6-0.5,5.2-1.2,7.7-2.2c1.7-0.7,3.6-1,5.3-1.5c0.3,0.1,0.5,0.2,0.7,0.3c0.5-0.6,1.1-1.1,1.9-0.6
	c0.6,0.3,0.8-0.2,1-0.6c1-0.2,1.9-0.3,2.8-0.5c3.5-0.9,6.9-1.9,10.3-3c4.7-1.5,9.6-2.7,14.4-3.9c4.8-1.2,9.6-2.7,14.5-3.7
	c3.2-0.6,6.4-1.6,9.5-2.5c3.2-0.9,6.4-1.6,9.5-2.7c1.8-0.7,3.9-0.9,5.8-1.4c3.6-0.9,7.3-1.9,10.9-2.9c1.4-0.4,2.9-0.9,4.3-1.4
	c0.2-0.1,0.4-0.3,0.5-0.4c0.2,0,0.4,0.1,0.5,0.1c0.8-0.2,1.6-0.4,2.4-0.6c0.8-0.2,1.7-0.2,2.6-0.5c2.2-0.6,4.4-1.3,6.6-2
	c2.8-0.9,5.6-1.5,8.4-2.1c3.8-0.9,7.6-1.9,11.3-3.1c2.9-1,5.8-1.9,8.9-2.2c0.8-0.1,1.6-0.6,2.4-0.9c4.8-1.3,9.6-2.6,14.4-3.9
	c0.3-0.1,0.6-0.2,0.8-0.2C281.7,102,282.7,101.4,283.8,101.2"></path></symbol><symbol id="global/link" viewBox="0 0 14 14"><path d="M7.4,5.1C6.9,5.5,6.6,6.4,7.2,6.8c0.4,0.5,0.9,0.7,0.9,1.4c0,0.6-0.4,1.1-0.8,1.6l-1.7,1.7c-0.9,0.9-2.2,0.8-3.1,0
	c-1-1-0.9-2.1,0-3l0.6-0.6C2.9,7.1,2.7,6.1,2.8,5.4L1.2,7c-1.6,1.6-1.6,4.2,0,5.9C2,13.6,2.9,14,4.1,14s2.2-0.3,3-1.1l1.7-1.7
	c1.6-1.7,1.4-4.1-0.2-5.8C8.1,4.9,7.7,4.8,7.4,5.1z"></path>
<path d="M12.8,1.1C12,0.4,11,0,9.9,0S7.8,0.4,7,1.2L5.4,2.9C3.7,4.5,3.5,7.3,5.1,9c0.5,0.4,1.2,0.2,1.5-0.1C7,8.4,7,8,6.5,7.5
	s-0.6-1-0.6-1.7c0-0.6,0.5-1,0.9-1.5l1.7-1.7c0.9-0.9,2.1-0.9,3,0c1,1,1,2.2,0,3l-0.6,0.6c0.3,0.8,0.5,1.6,0.4,2.4L12.8,7
	C14.4,5.5,14.4,2.8,12.8,1.1z"></path></symbol><symbol id="global/lock-publish" viewBox="0 0 10 14"><path d="M8.5,5H8V3c0-1.7-1.3-3-3-3S2,1.3,2,3v2H1.5C0.7,5,0,5.7,0,6.5v6C0,13.3,0.7,14,1.5,14h7
	c0.8,0,1.5-0.7,1.5-1.5v-6C10,5.7,9.3,5,8.5,5z M3,3c0-1.1,0.9-2,2-2s2,0.9,2,2v2H3V3z"></path></symbol><symbol id="global/lock" viewBox="0 0 16 18"><path d="M14,7h-1V5c0-2.8-2.2-5-5-5S3,2.2,3,5v2H2C0.9,7,0,7.9,0,9v7c0,1.1,0.9,2,2,2h12c1.1,0,2-0.9,2-2V9C16,7.9,15.1,7,14,7z
	 M4,5c0-2.2,1.8-4,4-4s4,1.8,4,4v2H4V5z M15,16c0,0.6-0.4,1-1,1H2c-0.6,0-1-0.4-1-1V9c0-0.6,0.4-1,1-1h12c0.6,0,1,0.4,1,1V16z"></path></symbol><symbol id="global/logo_builder" viewBox="0 0 30 26"><polygon opacity="0.7" points="15,26 0,17.5 5,14.5 15,20 25,14.5 30,17.5 "></polygon>
<polygon points="15,17 0,8.5 15,0 30,8.5 "></polygon></symbol><symbol id="global/logo_color" viewBox="0 0 120 24"><path fill="#231F20" d="M36.459,16.862l1.571-1.868c1.486,1.294,2.993,2.017,4.925,2.017c1.719,0,2.823-0.806,2.823-2.017v-0.043
	c0-1.125-0.637-1.741-3.545-2.42c-3.333-0.785-5.158-1.783-5.158-4.607V7.883c0-2.611,2.187-4.437,5.243-4.437
	c2.271,0,4.033,0.658,5.604,1.932l-1.422,1.974c-1.38-1.061-2.781-1.592-4.225-1.592c-1.635,0-2.611,0.828-2.611,1.889v0.043
	c0,1.231,0.722,1.804,3.757,2.505c3.291,0.785,4.946,1.974,4.946,4.501v0.042c0,2.866-2.272,4.585-5.477,4.585
	C40.514,19.325,38.306,18.518,36.459,16.862z"></path>
<path fill="#231F20" d="M50.92,3.149h2.781v2.463H50.92V3.149z M51.026,7.479h2.569v11.633h-2.569V7.479z"></path>
<path fill="#231F20" d="M57.353,15.928V9.687h-1.507V7.479h1.507V4.253H59.9v3.227h3.184v2.208H59.9v5.838
	c0,1.061,0.552,1.507,1.486,1.507c0.594,0,1.125-0.149,1.656-0.404v2.102c-0.658,0.361-1.379,0.573-2.356,0.573
	C58.732,19.303,57.353,18.455,57.353,15.928z"></path>
<path fill="#231F20" d="M64.486,13.339v-0.043c0-3.333,2.357-6.05,5.668-6.05c3.672,0,5.54,2.887,5.54,6.242
	c0,0.233,0,0.466-0.021,0.721h-8.619c0.276,1.974,1.656,3.057,3.417,3.057c1.338,0,2.293-0.488,3.206-1.401l1.529,1.337
	c-1.125,1.316-2.632,2.166-4.777,2.166C67.076,19.368,64.486,16.926,64.486,13.339z M73.168,12.51
	c-0.191-1.783-1.21-3.163-3.036-3.163c-1.677,0-2.866,1.295-3.121,3.163H73.168z"></path>
<path fill="#231F20" d="M78.072,7.479h2.548v1.995c0.87-1.252,2.122-2.229,4.033-2.229c2.739,0,5.413,2.165,5.413,6.029v0.043
	c0,3.842-2.653,6.029-5.413,6.029c-1.953,0-3.184-0.976-4.033-2.081v5.916h-2.548V7.479z M87.477,13.317v-0.043
	c0-2.314-1.571-3.821-3.418-3.821c-1.847,0-3.482,1.528-3.482,3.821v0.043c0,2.292,1.635,3.821,3.482,3.821
	C85.927,17.138,87.477,15.674,87.477,13.317z"></path>
<path fill="#231F20" d="M92.656,3h2.569v16.113h-2.569V3z"></path>
<path fill="#231F20" d="M98.261,14.867V7.479h2.569v6.623c0,1.847,0.956,2.909,2.569,2.909c1.614,0,2.739-1.104,2.739-2.951V7.479
	h2.547v11.633h-2.547v-1.826c-0.764,1.104-1.847,2.059-3.672,2.059C99.811,19.346,98.261,17.584,98.261,14.867z"></path>
<path fill="#231F20" d="M110.765,17.605l1.168-1.741c1.274,0.934,2.611,1.444,3.842,1.444c1.167,0,1.868-0.531,1.868-1.337v-0.043
	c0-0.934-1.253-1.252-2.632-1.677c-1.719-0.509-3.652-1.189-3.652-3.396v-0.043c0-2.187,1.784-3.524,4.097-3.524
	c1.464,0,3.057,0.51,4.267,1.316l-1.019,1.826c-1.125-0.679-2.314-1.104-3.291-1.104c-1.082,0-1.698,0.51-1.698,1.21v0.043
	c0,0.87,1.252,1.231,2.654,1.698c1.698,0.531,3.63,1.274,3.63,3.376v0.042c0,2.42-1.889,3.63-4.31,3.63
	C114.035,19.325,112.209,18.752,110.765,17.605z"></path>
<g opacity="0.7">
	<polygon fill="#FF3377" points="13.5,24 0,16 4,13 13.5,18.5 23,13 27,16 	"></polygon>
</g>
<g>
	<polygon fill="#FF3377" points="13.5,15.5 0,7.5 13.5,0 27,7.5 	"></polygon>
</g></symbol><symbol id="global/logo_dashboard" viewBox="0 0 25 22"><polygon opacity="0.7" enable-background="new " points="12.5,22 0,15 4.5,12.5 12.5,17 20.5,12.5 25,15 "></polygon>
<polygon points="12.5,14 0,7 12.5,0 25,7 "></polygon></symbol><symbol id="global/logo_main" viewBox="0 0 120 24"><path d="M37,17.4l1.6-1.9c1.5,1.3,3,2,4.9,2c1.7,0,2.8-0.8,2.8-2v0c0-1.1-0.6-1.7-3.5-2.4c-3.3-0.8-5.1-1.8-5.1-4.6
	v0c0-2.6,2.2-4.4,5.2-4.4c2.3,0,4,0.7,5.6,1.9L47,8c-1.4-1.1-2.8-1.6-4.2-1.6c-1.6,0-2.6,0.8-2.6,1.9v0c0,1.2,0.7,1.8,3.7,2.5
	c3.3,0.8,4.9,2,4.9,4.5v0c0,2.8-2.3,4.6-5.4,4.6C41.1,19.9,38.9,19.1,37,17.4z"></path>
<path d="M51.4,3.8h2.8v2.4h-2.8V3.8z M51.5,8.1H54v11.6h-2.6V8.1z"></path>
<path d="M57.8,16.5v-6.2h-1.5V8.1h1.5V4.9h2.5v3.2h3.2v2.2h-3.2v5.8c0,1.1,0.5,1.5,1.5,1.5c0.6,0,1.1-0.1,1.6-0.4
	v2.1c-0.7,0.4-1.4,0.6-2.3,0.6C59.1,19.9,57.8,19,57.8,16.5z"></path>
<path d="M64.9,13.9L64.9,13.9c0-3.4,2.3-6.1,5.6-6.1c3.6,0,5.5,2.9,5.5,6.2c0,0.2,0,0.5,0,0.7h-8.6
	c0.3,2,1.6,3,3.4,3c1.3,0,2.3-0.5,3.2-1.4l1.5,1.3c-1.1,1.3-2.6,2.2-4.7,2.2C67.4,19.9,64.9,17.5,64.9,13.9z M73.5,13.1
	c-0.2-1.8-1.2-3.1-3-3.1c-1.7,0-2.8,1.3-3.1,3.1H73.5z"></path>
<path d="M78.4,8.1h2.5v2c0.9-1.2,2.1-2.2,4-2.2c2.7,0,5.4,2.2,5.4,6v0c0,3.8-2.6,6-5.4,6c-1.9,0-3.2-1-4-2.1v5.3
	h-2.5V8.1z M87.7,13.9L87.7,13.9c0-2.3-1.6-3.8-3.4-3.8c-1.8,0-3.5,1.5-3.5,3.8v0c0,2.3,1.6,3.8,3.5,3.8
	C86.2,17.7,87.7,16.3,87.7,13.9z"></path>
<path d="M92.8,3.7h2.6v16h-2.6V3.7z"></path>
<path d="M98.4,15.5V8.1h2.6v6.6c0,1.8,0.9,2.9,2.6,2.9c1.6,0,2.7-1.1,2.7-2.9V8.1h2.5v11.6h-2.5v-1.8
	c-0.8,1.1-1.8,2-3.6,2C99.9,19.9,98.4,18.2,98.4,15.5z"></path>
<path d="M110.8,18.2l1.2-1.7c1.3,0.9,2.6,1.4,3.8,1.4c1.2,0,1.9-0.5,1.9-1.3v0c0-0.9-1.2-1.2-2.6-1.7
	c-1.7-0.5-3.6-1.2-3.6-3.4v0c0-2.2,1.8-3.5,4.1-3.5c1.5,0,3,0.5,4.2,1.3l-1,1.8c-1.1-0.7-2.3-1.1-3.3-1.1c-1.1,0-1.7,0.5-1.7,1.2v0
	c0,0.9,1.2,1.2,2.6,1.7c1.7,0.5,3.6,1.3,3.6,3.4v0c0,2.4-1.9,3.6-4.3,3.6C114.1,19.9,112.3,19.3,110.8,18.2z"></path>
<g opacity="0.7">
	<polygon points="13.7,24 0,16.1 4.8,13.4 13.7,18.5 22.6,13.4 27.4,16.1 	"></polygon>
</g>
<g>
	<polygon points="13.7,15.8 0,7.9 13.7,0 27.4,7.9 	"></polygon>
</g></symbol><symbol id="global/logo_min" viewBox="-291 385 27.4 24"><g>
	<g fill="currentColor">
		<polygon points="-277.3,409 -291,401.1 -286.2,398.3 -277.3,403.5 -268.4,398.3 -263.6,401.1"></polygon>
	</g>
	<g>
		<polygon points="-277.3,400.8 -291,392.9 -277.3,385 -263.6,392.9"></polygon>
	</g>
</g></symbol><symbol id="global/logo-160-30" viewBox="0 0 160 30"><g> <polygon opacity="0.7" fill="#EE3B78" points="16,30 0,20.5 6,17 16,23 26,17 32,20.5 	"></polygon> <polygon fill="#EE3B78" points="16,19 0,9.5 16,0 32,9.5 	"></polygon> </g> <g> <path fill="#231F20" d="M40.877,21.767l2.24-2.664c2.119,1.846,4.268,2.875,7.023,2.875c2.452,0,4.026-1.15,4.026-2.875v-0.061 c0-1.604-0.908-2.482-5.055-3.451c-4.753-1.12-7.356-2.542-7.356-6.569v-0.06c0-3.723,3.118-6.327,7.477-6.327 c3.239,0,5.751,0.939,7.991,2.755l-2.028,2.815c-1.968-1.514-3.965-2.27-6.024-2.27c-2.331,0-3.723,1.181-3.723,2.694V8.69 c0,1.756,1.029,2.573,5.358,3.572c4.692,1.12,7.053,2.815,7.053,6.418v0.06c0,4.087-3.239,6.538-7.81,6.538 C46.659,25.278,43.511,24.128,40.877,21.767z"></path> <path fill="#231F20" d="M61.497,2.212h3.965v3.512h-3.965V2.212z M61.648,8.387h3.663v16.588h-3.663V8.387z"></path> <path fill="#231F20" d="M70.669,20.435v-8.899H68.52V8.387h2.149V3.786h3.632v4.601h4.541v3.148h-4.541v8.325 c0,1.513,0.787,2.149,2.119,2.149c0.847,0,1.604-0.212,2.361-0.575v2.997c-0.938,0.514-1.967,0.817-3.359,0.817 C72.636,25.247,70.669,24.037,70.669,20.435z"></path> <path fill="#231F20" d="M80.841,16.742v-0.061c0-4.753,3.36-8.627,8.082-8.627c5.236,0,7.9,4.117,7.9,8.9 c0,0.332,0,0.665-0.03,1.029h-12.29c0.393,2.815,2.361,4.358,4.873,4.358c1.908,0,3.27-0.696,4.571-1.997l2.18,1.907 c-1.604,1.877-3.753,3.088-6.811,3.088C84.534,25.339,80.841,21.858,80.841,16.742z M93.222,15.561 c-0.273-2.542-1.725-4.51-4.329-4.51c-2.392,0-4.087,1.846-4.45,4.51H93.222z"></path> <path fill="#231F20" d="M100.214,8.387h3.633v2.845c1.241-1.786,3.026-3.178,5.751-3.178c3.905,0,7.719,3.088,7.719,8.597v0.061 c0,5.479-3.783,8.597-7.719,8.597c-2.785,0-4.541-1.392-5.751-2.967V30h-3.633V8.387z M113.625,16.712v-0.061 c0-3.299-2.24-5.448-4.874-5.448c-2.633,0-4.965,2.179-4.965,5.448v0.061c0,3.269,2.331,5.448,4.965,5.448 C111.414,22.16,113.625,20.072,113.625,16.712z"></path> <path fill="#231F20" d="M121.01,2h3.663v22.975h-3.663V2z"></path> <path fill="#231F20" d="M129.002,18.921V8.387h3.663v9.444c0,2.634,1.363,4.148,3.663,4.148c2.301,0,3.905-1.575,3.905-4.208V8.387 h3.632v16.588h-3.632v-2.603c-1.09,1.575-2.634,2.937-5.236,2.937C131.212,25.308,129.002,22.796,129.002,18.921z"></path> <path fill="#231F20" d="M146.832,22.826l1.665-2.482c1.816,1.332,3.723,2.059,5.479,2.059c1.664,0,2.664-0.757,2.664-1.907v-0.061 c0-1.331-1.787-1.786-3.753-2.392c-2.452-0.726-5.207-1.695-5.207-4.843V13.14c0-3.118,2.543-5.025,5.843-5.025 c2.088,0,4.358,0.727,6.084,1.877l-1.452,2.603c-1.604-0.969-3.3-1.574-4.693-1.574c-1.543,0-2.421,0.727-2.421,1.725v0.061 c0,1.241,1.786,1.756,3.784,2.422c2.421,0.757,5.176,1.817,5.176,4.813v0.06c0,3.451-2.694,5.176-6.145,5.176 C151.494,25.278,148.89,24.461,146.832,22.826z"></path> </g></symbol><symbol id="global/logo" viewBox="0 0 120 24"><path d="M37,17.4l1.6-1.9c1.5,1.3,3,2,4.9,2c1.7,0,2.8-0.8,2.8-2v0c0-1.1-0.6-1.7-3.5-2.4c-3.3-0.8-5.1-1.8-5.1-4.6
	v0c0-2.6,2.2-4.4,5.2-4.4c2.3,0,4,0.7,5.6,1.9L47,8c-1.4-1.1-2.8-1.6-4.2-1.6c-1.6,0-2.6,0.8-2.6,1.9v0c0,1.2,0.7,1.8,3.7,2.5
	c3.3,0.8,4.9,2,4.9,4.5v0c0,2.8-2.3,4.6-5.4,4.6C41.1,19.9,38.9,19.1,37,17.4z"></path>
<path d="M51.4,3.8h2.8v2.4h-2.8V3.8z M51.5,8.1H54v11.6h-2.6V8.1z"></path>
<path d="M57.8,16.5v-6.2h-1.5V8.1h1.5V4.9h2.5v3.2h3.2v2.2h-3.2v5.8c0,1.1,0.5,1.5,1.5,1.5c0.6,0,1.1-0.1,1.6-0.4
	v2.1c-0.7,0.4-1.4,0.6-2.3,0.6C59.1,19.9,57.8,19,57.8,16.5z"></path>
<path d="M64.9,13.9L64.9,13.9c0-3.4,2.3-6.1,5.6-6.1c3.6,0,5.5,2.9,5.5,6.2c0,0.2,0,0.5,0,0.7h-8.6
	c0.3,2,1.6,3,3.4,3c1.3,0,2.3-0.5,3.2-1.4l1.5,1.3c-1.1,1.3-2.6,2.2-4.7,2.2C67.4,19.9,64.9,17.5,64.9,13.9z M73.5,13.1
	c-0.2-1.8-1.2-3.1-3-3.1c-1.7,0-2.8,1.3-3.1,3.1H73.5z"></path>
<path d="M78.4,8.1h2.5v2c0.9-1.2,2.1-2.2,4-2.2c2.7,0,5.4,2.2,5.4,6v0c0,3.8-2.6,6-5.4,6c-1.9,0-3.2-1-4-2.1v5.3
	h-2.5V8.1z M87.7,13.9L87.7,13.9c0-2.3-1.6-3.8-3.4-3.8c-1.8,0-3.5,1.5-3.5,3.8v0c0,2.3,1.6,3.8,3.5,3.8
	C86.2,17.7,87.7,16.3,87.7,13.9z"></path>
<path d="M92.8,3.7h2.6v16h-2.6V3.7z"></path>
<path d="M98.4,15.5V8.1h2.6v6.6c0,1.8,0.9,2.9,2.6,2.9c1.6,0,2.7-1.1,2.7-2.9V8.1h2.5v11.6h-2.5v-1.8
	c-0.8,1.1-1.8,2-3.6,2C99.9,19.9,98.4,18.2,98.4,15.5z"></path>
<path d="M110.8,18.2l1.2-1.7c1.3,0.9,2.6,1.4,3.8,1.4c1.2,0,1.9-0.5,1.9-1.3v0c0-0.9-1.2-1.2-2.6-1.7
	c-1.7-0.5-3.6-1.2-3.6-3.4v0c0-2.2,1.8-3.5,4.1-3.5c1.5,0,3,0.5,4.2,1.3l-1,1.8c-1.1-0.7-2.3-1.1-3.3-1.1c-1.1,0-1.7,0.5-1.7,1.2v0
	c0,0.9,1.2,1.2,2.6,1.7c1.7,0.5,3.6,1.3,3.6,3.4v0c0,2.4-1.9,3.6-4.3,3.6C114.1,19.9,112.3,19.3,110.8,18.2z"></path>
<g opacity="0.7">
	<polygon points="13.7,24 0,16.1 4.8,13.4 13.7,18.5 22.6,13.4 27.4,16.1 	"></polygon>
</g>
<g>
	<polygon points="13.7,15.8 0,7.9 13.7,0 27.4,7.9 	"></polygon>
</g></symbol><symbol id="global/more" viewBox="0 0 20 4"><g>
	<path fill-rule="evenodd" clip-rule="evenodd" d="M2,0C0.9,0,0,0.9,0,2s0.9,2,2,2c1.1,0,2-0.9,2-2S3.1,0,2,0z M10,0
		C8.9,0,8,0.9,8,2s0.9,2,2,2c1.1,0,2-0.9,2-2S11.1,0,10,0z M18,0c-1.1,0-2,0.9-2,2s0.9,2,2,2s2-0.9,2-2S19.1,0,18,0z"></path>
</g></symbol><symbol id="global/paypal_btn" viewBox="0 0 20 20"><path opacity="0.3" enable-background="new    " d="M16.82,5.081c0.245-1.556-0.002-2.614-0.845-3.573
	C15.045,0.452,13.366,0,11.218,0H4.984C4.545,0,4.171,0.319,4.103,0.751L1.507,17.164c-0.051,0.324,0.2,0.617,0.529,0.617h3.849
	l-0.266,1.68C5.574,19.744,5.793,20,6.081,20h3.244c0.384,0,0.711-0.278,0.771-0.657l0.032-0.164l0.611-3.864l0.039-0.214
	c0.06-0.378,0.387-0.657,0.771-0.657h0.485c3.143,0,5.604-1.273,6.323-4.955c0.301-1.538,0.145-2.823-0.65-3.725
	C17.467,5.491,17.168,5.265,16.82,5.081L16.82,5.081"></path>
<path opacity="0.45" enable-background="new    " d="M16.82,5.081c0.245-1.556-0.002-2.614-0.845-3.573
	C15.045,0.452,13.366,0,11.218,0H4.984C4.545,0,4.171,0.319,4.103,0.751L1.507,17.164c-0.051,0.324,0.2,0.617,0.529,0.617h3.849
	l0.967-6.113l-0.03,0.192c0.069-0.432,0.439-0.751,0.878-0.751h1.829c3.593,0,6.406-1.455,7.228-5.664
	C16.78,5.321,16.801,5.2,16.82,5.081"></path>
<path d="M7.889,5.102c0.041-0.26,0.209-0.473,0.434-0.581C8.426,4.472,8.54,4.445,8.66,4.445h4.887c0.579,0,1.119,0.038,1.612,0.117
	c0.141,0.023,0.278,0.049,0.412,0.078c0.133,0.029,0.263,0.063,0.388,0.099c0.063,0.018,0.124,0.037,0.185,0.057
	c0.242,0.08,0.468,0.175,0.676,0.285c0.245-1.556-0.002-2.614-0.845-3.573C15.045,0.452,13.366,0,11.218,0H4.984
	C4.545,0,4.171,0.319,4.103,0.751L1.507,17.164c-0.051,0.324,0.2,0.617,0.529,0.617h3.849l0.967-6.113L7.889,5.102z"></path></symbol><symbol id="global/play" viewBox="0 0 68 48"><path d="m .66,37.62 c 0,0 .66,4.70 2.70,6.77 2.58,2.71 5.98,2.63 7.49,2.91 5.43,.52 23.10,.68 23.12,.68 .00,-1.3e-5 14.29,-0.02 23.81,-0.71 1.32,-0.15 4.22,-0.17 6.81,-2.89 2.03,-2.07 2.70,-6.77 2.70,-6.77 0,0 .67,-5.52 .67,-11.04 l 0,-5.17 c 0,-5.52 -0.67,-11.04 -0.67,-11.04 0,0 -0.66,-4.70 -2.70,-6.77 C 62.03,.86 59.13,.84 57.80,.69 48.28,0 34.00,0 34.00,0 33.97,0 19.69,0 10.18,.69 8.85,.84 5.95,.86 3.36,3.58 1.32,5.65 .66,10.35 .66,10.35 c 0,0 -0.55,4.50 -0.66,9.45 l 0,8.36 c .10,4.94 .66,9.45 .66,9.45 z"></path>
	<path d="m 26.96,13.67 18.37,9.62 -18.37,9.55 -0.00,-19.17 z" fill="#fff"></path>
	<path d="M 45.02,23.46 45.32,23.28 26.96,13.67 43.32,24.34 45.02,23.46 z" fill="#ccc"></path></symbol><symbol id="global/popup-upsell-design" viewBox="0 0 316 128"><rect x="71" y="13" width="174" height="102" stroke="#D4D5D6" stroke-width="2"></rect>
<path d="M72 26H245" stroke="#D4D5D6" stroke-width="2"></path>
<rect x="83" y="1" width="150" height="126" fill="white" stroke="#7D8285" stroke-width="2"></rect>
<path d="M233 13L82 13" stroke="#7D8285" stroke-width="2"></path>
<circle cx="91" cy="7" r="1.5" fill="#7D8285" stroke="#A8ABAD"></circle>
<circle cx="99" cy="7" r="2" fill="#7D8285"></circle>
<circle cx="107" cy="7" r="2" fill="#7D8285"></circle>
<rect x="95" y="24" width="20" height="2" fill="#A8ABAD"></rect>
<rect x="209" y="24" width="12" height="2" fill="#A8ABAD"></rect>
<rect x="193" y="24" width="12" height="2" fill="#A8ABAD"></rect>
<rect x="183" y="103" width="24" height="2" fill="#A8ABAD"></rect>
<rect x="183" y="109" width="38" height="2" fill="#E9EAEB"></rect>
<rect x="183" y="115" width="34" height="2" fill="#E9EAEB"></rect>
<rect x="183" y="78" width="38" height="19" fill="#E9EAEB"></rect>
<path opacity="0.5" d="M199.625 87L207.7 97H191.55L199.625 87Z" fill="#D4D5D6"></path>
<path d="M209.6 84L220.05 97H199.15L209.6 84Z" fill="#D4D5D6"></path>
<rect x="139" y="103" width="24" height="2" fill="#A8ABAD"></rect>
<rect x="139" y="109" width="38" height="2" fill="#E9EAEB"></rect>
<rect x="139" y="115" width="34" height="2" fill="#E9EAEB"></rect>
<rect x="139" y="78" width="38" height="19" fill="#E9EAEB"></rect>
<path opacity="0.5" d="M155.625 87L163.7 97H147.55L155.625 87Z" fill="#D4D5D6"></path>
<path d="M165.6 84L176.05 97H155.15L165.6 84Z" fill="#D4D5D6"></path>
<rect x="95" y="103" width="24" height="2" fill="#A8ABAD"></rect>
<rect x="95" y="109" width="38" height="2" fill="#E9EAEB"></rect>
<rect x="95" y="115" width="34" height="2" fill="#E9EAEB"></rect>
<rect x="95" y="78" width="38" height="19" fill="#E9EAEB"></rect>
<path opacity="0.5" d="M111.625 87L119.7 97H103.55L111.625 87Z" fill="#D4D5D6"></path>
<path d="M121.6 84L132.05 97H111.15L121.6 84Z" fill="#D4D5D6"></path>
<rect x="95" y="32" width="126" height="40" fill="#E9EAEB"></rect>
<circle cx="108" cy="45" r="5" fill="white"></circle>
<path opacity="0.5" d="M161.5 47L185 72H138L161.5 47Z" fill="#D4D5D6"></path>
<path d="M184.5 39L215 72H154L184.5 39Z" fill="#D4D5D6"></path>
<circle cx="296.5" cy="36.5" r="3.5" stroke="var(--brandingTheme_defaultColor)" stroke-width="2"></circle>
<path d="M308 65H316" stroke="#D4D5D6" stroke-width="2"></path>
<path d="M284 96L291 89M291 96L284 89" stroke="#E9EAEB" stroke-width="2"></path>
<circle cx="19.5" cy="91.5" r="3.5" stroke="#E9EAEB" stroke-width="2"></circle>
<path d="M0 63H8" stroke="var(--brandingTheme_defaultColor)" stroke-width="2"></path>
<path d="M25 39L32 32M32 39L25 32" stroke="#D4D5D6" stroke-width="2"></path></symbol><symbol id="global/product-no-photo" viewBox="0 0 138 115"><path d="M122.667,20.444H101.66l-2.124-8.474C96.628,3.246,92.506,0,84.333,0H53.667C45.494,0,41.372,3.246,38.41,12.157
	l-2.073,8.288H15.333C6.877,20.444,0,27.321,0,35.778v63.889C0,108.123,6.877,115,15.333,115h107.333
	c8.456,0,15.333-6.877,15.333-15.333V35.778C138,27.321,131.123,20.444,122.667,20.444z M132.889,99.667
	c0,5.638-4.585,10.222-10.222,10.222H15.333c-5.638,0-10.222-4.585-10.222-10.222V35.778c0-5.638,4.585-10.222,10.222-10.222h23
	c1.173,0,2.195-0.797,2.479-1.935l2.502-10.036c2.216-6.652,4.442-8.474,10.353-8.474h30.667c5.911,0,8.137,1.822,10.299,8.288
	l2.556,10.222c0.284,1.137,1.306,1.935,2.479,1.935h23c5.638,0,10.222,4.585,10.222,10.222V99.667z"></path>
<path d="M69,31c-18.196,0-33,14.804-33,33s14.804,33,33,33s33-14.804,33-33S87.196,31,69,31z M69,36.077
	c6.8,0,13.037,2.446,17.886,6.502L47.578,81.886C43.523,77.037,41.077,70.8,41.077,64C41.077,48.604,53.604,36.077,69,36.077z
	 M69,91.923c-6.8,0-13.038-2.446-17.886-6.502l39.307-39.307C94.477,50.962,96.923,57.2,96.923,64
	C96.923,79.396,84.396,91.923,69,91.923z"></path></symbol><symbol id="global/publish-deferred" viewBox="0 0 214 116"><path fill="#E4E7E9" d="M173,0H41c-2.2,0-4,1.8-4,4v108c0,2.2,1.8,4,4,4h132c2.2,0,4-1.8,4-4V4C177,1.8,175.2,0,173,0z M175,112
	c0,1.1-0.9,2-2,2H41c-1.1,0-2-0.9-2-2V20h136V112z M39,18V4c0-1.1,0.9-2,2-2h132c1.1,0,2,0.9,2,2v14H39z"></path>
<path fill="#E4E7E9" d="M164,7v6h6V7H164z M168,11h-2V9h2V11z"></path>
<path fill="#E4E7E9" d="M152,7v6h6V7H152z M156,11h-2V9h2V11z"></path>
<path fill="#E4E7E9" d="M140,7v6h6V7H140z M144,11h-2V9h2V11z"></path>
<polygon opacity="0.6" fill="var(--brandingTheme_defaultColor)" enable-background="new    " points="21,62 21,59 20,59 20,62 17,62 17,63 20,63 20,66 21,66 
	21,63 24,63 24,62 "></polygon>
<polygon opacity="0.25" fill="var(--brandingTheme_defaultColor)" enable-background="new    " points="20,17 20,15 19,15 19,17 17,17 17,18 19,18 19,20 
	20,20 20,18 22,18 22,17 "></polygon>
<circle opacity="0.25" fill="var(--brandingTheme_defaultColor)" enable-background="new    " cx="19.5" cy="84.5" r="1.5"></circle>
<path opacity="0.4" fill="var(--brandingTheme_defaultColor)" enable-background="new    " d="M8,38c-1.7,0-3,1.3-3,3s1.3,3,3,3s3-1.3,3-3S9.7,38,8,38z M8,43
	c-1.1,0-2-0.9-2-2s0.9-2,2-2s2,0.9,2,2S9.1,43,8,43z"></path>
<polygon opacity="0.4" fill="var(--brandingTheme_defaultColor)" enable-background="new    " points="3,68 3,66 2,66 2,68 0,68 0,69 2,69 2,71 3,71 3,69 
	5,69 5,68 "></polygon>
<polygon opacity="0.6" fill="var(--brandingTheme_defaultColor)" enable-background="new    " points="190,62 190,63 193,63 193,66 194,66 194,63 197,63 
	197,62 194,62 194,59 193,59 193,62 "></polygon>
<polygon opacity="0.25" fill="var(--brandingTheme_defaultColor)" enable-background="new    " points="192,17 192,18 194,18 194,20 195,20 195,18 197,18 
	197,17 195,17 195,15 194,15 194,17 "></polygon>
<circle opacity="0.25" fill="var(--brandingTheme_defaultColor)" enable-background="new    " cx="194.5" cy="84.5" r="1.5"></circle>
<path opacity="0.4" fill="var(--brandingTheme_defaultColor)" enable-background="new    " d="M203,41c0,1.7,1.3,3,3,3s3-1.3,3-3s-1.3-3-3-3S203,39.3,203,41z
	 M204,41c0-1.1,0.9-2,2-2s2,0.9,2,2s-0.9,2-2,2S204,42.1,204,41z"></path>
<polygon opacity="0.4" fill="var(--brandingTheme_defaultColor)" enable-background="new    " points="209,68 209,69 211,69 211,71 212,71 212,69 214,69 
	214,68 212,68 212,66 211,66 211,68 "></polygon>
<path fill="var(--brandingTheme_defaultColor)" d="M126.742,69.251l2.246,0.817l-0.191,2.571l-0.08,1.081l0.861,0.657c0.482,0.368,0.95,0.804,1.43,1.332
	l0.728,0.801l1.069-0.171l2.58-0.413l0.993,2.149l-1.956,1.694l-0.818,0.709l0.146,1.073c0.096,0.704,0.129,1.343,0.101,1.954
	l-0.048,1.071l0.866,0.633l2.08,1.521l-0.814,2.235l-2.571-0.171l-1.07-0.071l-0.652,0.852c-0.372,0.486-0.808,0.954-1.334,1.432
	l-0.801,0.728l0.171,1.069l0.409,2.555l-2.142,1.008l-1.711-1.974l-0.709-0.818l-1.073,0.146c-0.549,0.075-1.05,0.111-1.533,0.111
	c-0.139,0-0.279-0.003-0.419-0.01l-1.083-0.05l-0.633,0.879l-1.507,2.092l-2.246-0.817l0.183-2.606l0.075-1.07l-0.85-0.654
	c-0.523-0.402-1.001-0.842-1.421-1.307l-0.725-0.802l-1.068,0.168l-2.593,0.407l-0.995-2.134l1.965-1.703l0.817-0.708l-0.144-1.071
	c-0.084-0.62-0.111-1.277-0.081-1.951l0.047-1.072l-0.867-0.632l-2.115-1.542l0.808-2.22l2.612,0.178l1.071,0.073l0.653-0.852
	c0.411-0.536,0.854-1.021,1.317-1.443l0.799-0.728l-0.171-1.067l-0.411-2.567l2.134-0.995l1.725,1.978l0.711,0.815l1.071-0.148
	c0.47-0.065,0.956-0.098,1.447-0.098c0.16,0,0.321,0.003,0.482,0.01l1.072,0.045l0.63-0.868L126.742,69.251 M126.278,66.998
	c-0.223,0-0.446,0.104-0.578,0.284l-2.112,2.907c-0.189-0.008-0.378-0.012-0.566-0.012c-0.579,0-1.153,0.038-1.721,0.117
	l-2.363-2.71c-0.134-0.156-0.339-0.242-0.543-0.242c-0.096,0-0.192,0.019-0.281,0.06l-3.921,1.828
	c-0.166,0.078-0.292,0.227-0.355,0.399c-0.04,0.111-0.054,0.231-0.035,0.349l0.565,3.53c-0.565,0.514-1.084,1.087-1.557,1.704
	l-3.565-0.244c-0.021-0.002-0.042-0.003-0.062-0.003c-0.287,0-0.568,0.191-0.667,0.463l-1.475,4.052
	c-0.106,0.292,0.008,0.647,0.263,0.822l2.887,2.104c-0.034,0.778-0.005,1.549,0.097,2.307l-2.703,2.341
	c-0.09,0.077-0.156,0.177-0.196,0.288c-0.063,0.173-0.062,0.369,0.013,0.536l1.828,3.92c0.114,0.24,0.376,0.398,0.642,0.398
	c0.035,0,0.071-0.003,0.106-0.009l3.552-0.557c0.509,0.563,1.071,1.078,1.684,1.549l-0.251,3.585
	c-0.02,0.303,0.183,0.608,0.468,0.709l4.074,1.482c0.075,0.028,0.155,0.041,0.235,0.041c0.222,0,0.447-0.104,0.58-0.284l2.084-2.894
	c0.171,0.008,0.341,0.012,0.511,0.012c0.608,0,1.209-0.048,1.803-0.129l2.342,2.702c0.134,0.162,0.345,0.252,0.556,0.252
	c0.099,0,0.198-0.02,0.289-0.062l3.9-1.835c0.174-0.079,0.309-0.233,0.374-0.411c0.038-0.105,0.052-0.218,0.036-0.329l-0.565-3.53
	c0.568-0.516,1.103-1.077,1.578-1.697l3.544,0.236c0.216-0.031,0.578-0.106,0.704-0.454c0.002-0.004,0.003-0.009,0.005-0.014
	l1.475-4.052c0.001-0.002,0.001-0.004,0.002-0.005c0.103-0.282-0.001-0.63-0.244-0.809l-2.867-2.097
	c0.035-0.78-0.014-1.553-0.118-2.314l2.703-2.341c0.084-0.075,0.146-0.171,0.184-0.275c0.065-0.178,0.061-0.383-0.022-0.555
	l-1.808-3.912c-0.115-0.246-0.383-0.407-0.651-0.407c-0.039,0-0.079,0.003-0.117,0.011l-3.531,0.565
	c-0.516-0.568-1.074-1.102-1.697-1.578l0.264-3.557c0.02-0.303-0.183-0.608-0.468-0.709l-4.074-1.482
	C126.438,67.011,126.358,66.998,126.278,66.998L126.278,66.998z"></path>
<path fill="var(--brandingTheme_defaultColor)" d="M95.58,37.002l0.923,3.195l0.299,1.037l1.031,0.319c0.756,0.234,1.519,0.555,2.267,0.954l0.961,0.512
	l0.952-0.529l2.909-1.616l2.218,2.217l-1.62,2.898l-0.533,0.954l0.515,0.964c0.427,0.798,0.746,1.546,0.975,2.288l0.321,1.037
	l1.044,0.296l3.164,0.897l0,3.177l-3.164,0.897l-1.047,0.297l-0.32,1.04c-0.24,0.781-0.561,1.55-0.953,2.286l-0.511,0.958
	l0.525,0.95l1.597,2.888l-2.227,2.227l-2.895-1.608l-0.953-0.53l-0.962,0.514c-0.686,0.367-1.427,0.671-2.265,0.93l-1.033,0.319
	l-0.299,1.039l-0.917,3.192l-3.163,0l-0.917-3.192l-0.299-1.039l-1.033-0.319c-0.838-0.259-1.579-0.563-2.265-0.93l-0.962-0.514
	l-0.953,0.529l-2.895,1.608l-2.227-2.227l1.597-2.888l0.525-0.95l-0.511-0.958c-0.392-0.736-0.713-1.505-0.953-2.286l-0.32-1.04
	l-1.047-0.297L77,55.602l0-3.177l3.164-0.897l1.045-0.296l0.321-1.037c0.229-0.741,0.548-1.489,0.975-2.288l0.515-0.964
	l-0.533-0.954l-1.62-2.898l2.218-2.218l2.909,1.616l0.952,0.529l0.961-0.512c0.749-0.399,1.512-0.72,2.267-0.954l1.031-0.319
	l0.299-1.037l0.923-3.195H95.58 M96.555,35.002h-5.103c-0.311,0-0.605,0.228-0.682,0.528l-1.188,4.112
	c-0.916,0.283-1.787,0.657-2.617,1.1l-3.761-2.089c-0.103-0.058-0.22-0.086-0.337-0.086c-0.184,0-0.368,0.068-0.499,0.196
	l-3.607,3.606c-0.22,0.22-0.267,0.591-0.11,0.858l2.09,3.738c-0.448,0.838-0.836,1.715-1.122,2.639l-4.113,1.165
	c-0.291,0.085-0.509,0.379-0.506,0.682v5.124c-0.003,0.302,0.214,0.597,0.506,0.682l4.113,1.165c0.283,0.921,0.654,1.803,1.1,2.639
	L78.651,64.8c-0.148,0.264-0.102,0.621,0.11,0.836l3.607,3.606c0.133,0.137,0.324,0.21,0.514,0.21c0.112,0,0.223-0.025,0.322-0.078
	l3.761-2.089c0.828,0.443,1.702,0.794,2.617,1.078l1.188,4.134c0.084,0.212,0.289,0.506,0.666,0.506c0.005,0,0.01,0,0.016,0h5.103
	c0.002,0,0.004,0,0.006,0c0.3,0,0.591-0.216,0.676-0.506l1.188-4.134c0.916-0.283,1.79-0.635,2.617-1.078l3.761,2.089
	c0.099,0.053,0.21,0.078,0.322,0.078c0.19,0,0.381-0.074,0.514-0.21l3.607-3.606c0.212-0.214,0.258-0.572,0.11-0.836l-2.068-3.738
	c0.445-0.836,0.817-1.718,1.1-2.639l4.113-1.165c0.291-0.085,0.509-0.379,0.506-0.682v-5.124c0.003-0.302-0.214-0.597-0.506-0.682
	l-4.113-1.165c-0.286-0.924-0.674-1.8-1.122-2.639l2.09-3.738c0.157-0.267,0.11-0.638-0.11-0.858l-3.607-3.606
	c-0.13-0.129-0.313-0.196-0.496-0.196c-0.118,0-0.236,0.028-0.339,0.086l-3.761,2.089c-0.83-0.443-1.702-0.816-2.617-1.1
	l-1.188-4.112C97.16,35.23,96.866,35.002,96.555,35.002L96.555,35.002z"></path>
<path fill="var(--brandingTheme_defaultColor)" d="M94.004,48.002c3.321,0,6.001,2.68,6.001,6c0,3.32-2.68,6-6.001,6c-3.321,0-6.001-2.68-6.001-6
	C88.003,50.682,90.683,48.002,94.004,48.002 M94.004,46.002c-4.412,0-8.002,3.589-8.002,8s3.59,8,8.002,8
	c4.412,0,8.002-3.589,8.002-8S98.416,46.002,94.004,46.002L94.004,46.002z"></path>
<path fill="var(--brandingTheme_defaultColor)" d="M125.831,85.826c-1.568,1.567-4.09,1.567-5.658,0c-1.568-1.567-1.568-4.09,0-5.657
	c1.568-1.567,4.09-1.567,5.658,0C127.398,81.737,127.398,84.259,125.831,85.826 M127.245,87.24c2.34-2.339,2.34-6.146,0-8.485
	c-2.34-2.339-6.147-2.339-8.487,0c-2.34,2.339-2.34,6.146,0,8.485C121.098,89.58,124.905,89.58,127.245,87.24L127.245,87.24z"></path></symbol><symbol id="global/published" viewBox="0 0 214 116"><path fill="#E4E7E9" d="M173,0H41c-2.2,0-4,1.8-4,4v108c0,2.2,1.8,4,4,4h132c2.2,0,4-1.8,4-4V4C177,1.8,175.2,0,173,0z M175,112
	c0,1.1-0.9,2-2,2H41c-1.1,0-2-0.9-2-2V20h136V112z M39,18V4c0-1.1,0.9-2,2-2h132c1.1,0,2,0.9,2,2v14H39z"></path>
<path fill="var(--brandingTheme_defaultColor)" d="M107,45c-12.2,0-22,9.8-22,22s9.8,22,22,22s22-9.8,22-22S119.2,45,107,45z M107,87c-11,0-20-9-20-20s9-20,20-20
	s20,9,20,20S118,87,107,87z"></path>
<path fill="#E4E7E9" d="M164,7v6h6V7H164z M168,11h-2V9h2V11z"></path>
<path fill="#E4E7E9" d="M152,7v6h6V7H152z M156,11h-2V9h2V11z"></path>
<path fill="#E4E7E9" d="M140,7v6h6V7H140z M144,11h-2V9h2V11z"></path>
<polygon fill="var(--brandingTheme_defaultColor)" points="116.6,58.5 104.9,70.7 104.2,71.4 103.5,70.7 99.4,66.5 97.4,68.6 104.2,75.6 118.6,60.6 "></polygon>
<polygon fill="var(--brandingTheme_defaultColor)" opacity="0.6" points="21,62 21,59 20,59 20,62 17,62 17,63 20,63 20,66 21,66 21,63 24,63 24,62 "></polygon>
<polygon fill="var(--brandingTheme_defaultColor)" opacity="0.25" points="20,17 20,15 19,15 19,17 17,17 17,18 19,18 19,20 20,20 20,18 22,18 22,17 "></polygon>
<circle fill="var(--brandingTheme_defaultColor)" opacity="0.25" cx="19.5" cy="84.5" r="1.5"></circle>
<path fill="var(--brandingTheme_defaultColor)" opacity="0.4" d="M8,38c-1.7,0-3,1.3-3,3s1.3,3,3,3s3-1.3,3-3S9.7,38,8,38z M8,43c-1.1,0-2-0.9-2-2s0.9-2,2-2s2,0.9,2,2
	S9.1,43,8,43z"></path>
<polygon fill="var(--brandingTheme_defaultColor)" opacity="0.4" points="3,68 3,66 2,66 2,68 0,68 0,69 2,69 2,71 3,71 3,69 5,69 5,68 "></polygon>
<g>
	<polygon fill="var(--brandingTheme_defaultColor)" opacity="0.6" points="190,62 190,63 193,63 193,66 194,66 194,63 197,63 197,62 194,62 194,59 193,59 193,62 	"></polygon>
	<polygon fill="var(--brandingTheme_defaultColor)" opacity="0.25" points="192,17 192,18 194,18 194,20 195,20 195,18 197,18 197,17 195,17 195,15 194,15 194,17 	"></polygon>
	<circle fill="var(--brandingTheme_defaultColor)" opacity="0.25" cx="194.5" cy="84.5" r="1.5"></circle>
	<path fill="var(--brandingTheme_defaultColor)" opacity="0.4" d="M203,41c0,1.7,1.3,3,3,3s3-1.3,3-3s-1.3-3-3-3S203,39.3,203,41z M204,41c0-1.1,0.9-2,2-2s2,0.9,2,2s-0.9,2-2,2
		S204,42.1,204,41z"></path>
	<polygon fill="var(--brandingTheme_defaultColor)" opacity="0.4" points="209,68 209,69 211,69 211,71 212,71 212,69 214,69 214,68 212,68 212,66 211,66 211,68 	"></polygon>
</g></symbol><symbol id="global/refresh-v2" viewBox="0 0 21 18"><path d="M14 9C14 7.9 13.1 7 12 7C10.9 7 10 7.9 10 9C10 10.1 10.9 11 12 11C13.1 11 14 10.1 14 9ZM12 0C9.61305 0 7.32387 0.948211 5.63604 2.63604C3.94821 4.32387 3 6.61305 3 9H0L4 13L8 9H5C5 5.13 8.13 2 12 2C15.87 2 19 5.13 19 9C19.0014 10.2858 18.6483 11.5471 17.9796 12.6453C17.3109 13.7435 16.3524 14.6362 15.2095 15.2252C14.0666 15.8142 12.7834 16.0769 11.5009 15.9842C10.2185 15.8916 8.98639 15.4472 7.94 14.7L6.52 16.14C7.65464 17.0107 8.98046 17.5985 10.3876 17.8545C11.7947 18.1106 13.2426 18.0277 14.6112 17.6126C15.9799 17.1975 17.2299 16.4622 18.2577 15.4676C19.2855 14.473 20.0614 13.2478 20.5213 11.8935C20.9811 10.5392 21.1115 9.09486 20.9018 7.6801C20.692 6.26534 20.1481 4.92094 19.3151 3.75832C18.4822 2.59569 17.3841 1.64833 16.112 0.994737C14.8398 0.341144 13.4302 0.000145016 12 0Z"></path></symbol><symbol id="global/refresh" viewBox="0 0 16 16"><rect width="16" height="16" fill-opacity="0.01"></rect>
<path d="M15 2V7L10 6L15 2Z" fill="currentColor"></path>
<path fill-rule="evenodd" clip-rule="evenodd" d="M9.46569 3.21965C8.31293 2.86621 7.07128 2.94122 5.96946 3.43088C4.86764 3.92054 3.97986 4.79185 3.46967 5.88432C2.95949 6.97678 2.86125 8.21682 3.19306 9.37599C3.52487 10.5352 4.26438 11.5354 5.27537 12.1924C6.28635 12.8495 7.5007 13.119 8.69473 12.9515C9.88876 12.784 10.982 12.1906 11.7732 11.2807C12.1888 10.8028 12.5062 10.2544 12.714 9.66666L14.5997 10.3333C14.3088 11.1561 13.8643 11.9239 13.2824 12.593C12.1749 13.8669 10.6443 14.6976 8.97262 14.9321C7.30098 15.1666 5.60089 14.7892 4.18551 13.8694C2.77014 12.9495 1.73482 11.5492 1.27029 9.92638C0.805749 8.30354 0.943279 6.5675 1.65754 5.03804C2.37181 3.50859 3.61469 2.28875 5.15724 1.60323C6.69979 0.917711 8.43811 0.81269 10.052 1.30751C11.6658 1.80234 13.0465 2.86367 13.9397 4.29601L12.2427 5.35429C11.6047 4.33119 10.6185 3.5731 9.46569 3.21965Z" fill="currentColor"></path></symbol><symbol id="global/search" viewBox="0 0 17.4 17.4"><path d="M13.5,12L13.5,12c1-1.3,1.5-2.8,1.5-4.5C15,3.4,11.6,0,7.5,0S0,3.4,0,7.5S3.4,15,7.5,15c1.7,0,3.3-0.6,4.5-1.5l0,0l3.9,3.9
	l1.4-1.4L13.5,12z M2,7.5C2,4.5,4.5,2,7.5,2S13,4.5,13,7.5S10.5,13,7.5,13S2,10.5,2,7.5z"></path></symbol><symbol id="global/select_arrow" viewBox="0 0 10 6"><polygon points="5,6 0,1.5 1.4,0 5,3.4 8.6,0 10,1.5 "></polygon></symbol><symbol id="global/session-timeout" viewBox="0 0 180 140"><g>
	<path fill="#242526" d="M172.44,47.945c-29.801-3.095-89.971-8.503-119.266-11.553c-7.534-0.784-12.799-0.593-21.195,2.657
		c-5.648,2.186-18.574,7.079-23.668,9.005c-0.717,0.172-1.417,0.427-2.127,0.804C2.407,50.866,0,54.832,0,59.684v50.141
		c0,7.562,5.971,14.22,13.482,15.098l126.953,14.982c4.072,0.476,7.848-0.862,10.336-3.422l25.774-19.092l0.018-0.018
		c2.101-2.161,3.437-5.142,3.437-8.604c0,0,0-37.013,0-50.053C180,49.599,173.384,48.043,172.44,47.945z"></path>
	<path fill="#616466" d="M10.749,50.781c0.543,0,1.171,0.04,1.93,0.125l127.656,13.712c0.523,0.058,1.58,0.276,2.208,0.418
		c2.115,0.697,4.082,2.086,5.695,4.023c1.88,2.258,2.916,5.01,2.916,7.748v51.053c0,2.567-0.87,4.819-2.535,6.532
		c-1.611,1.657-4.003,2.608-6.564,2.608c-0.42,0-0.848-0.025-1.269-0.074L13.83,121.943C7.858,121.245,3,115.809,3,109.825V59.684
		c0-3.592,1.717-6.648,4.593-8.177C8.563,50.991,9.478,50.781,10.749,50.781 M10.749,47.781c-1.653,0-3.084,0.29-4.564,1.077
		C2.407,50.866,0,54.832,0,59.684v50.141c0,7.562,5.971,14.22,13.482,15.098l126.953,14.982c0.546,0.064,1.087,0.095,1.62,0.095
		c3.442,0,6.561-1.301,8.715-3.517l0.018-0.018c2.101-2.161,3.365-5.142,3.365-8.604V76.808c0-3.583-1.375-6.984-3.61-9.668
		c-1.89-2.27-4.367-4.099-7.204-4.999c0,0-1.73-0.4-2.674-0.504L13,47.923C12.196,47.834,11.452,47.781,10.749,47.781L10.749,47.781
		z"></path>
	<polygon fill="#FFFFFF" points="22.691,106.512 30.966,107.501 30.966,68.714 22.691,67.757 	"></polygon>
	<polygon fill="#FFFFFF" points="44.899,109.17 53.174,110.164 53.174,71.29 44.899,70.329 	"></polygon>
	<path fill="#FFFFFF" d="M71.305,99.701c-1.217-0.146-2.251,0.152-3.103,0.892c-0.852,0.74-1.278,1.712-1.278,2.915
		c0,1.203,0.426,2.277,1.278,3.222c0.852,0.945,1.886,1.491,3.103,1.638c1.217,0.147,2.251-0.15,3.103-0.89
		c0.852-0.74,1.278-1.713,1.278-2.917s-0.426-2.279-1.278-3.225C73.557,100.392,72.522,99.847,71.305,99.701z"></path>
	<path fill="#FFFFFF" d="M71.305,78.935c-1.217-0.143-2.251,0.156-3.103,0.899c-0.852,0.742-1.278,1.715-1.278,2.918
		s0.426,2.276,1.278,3.22c0.852,0.943,1.886,1.487,3.103,1.631c1.217,0.144,2.251-0.154,3.103-0.896
		c0.852-0.742,1.278-1.715,1.278-2.92s-0.426-2.278-1.278-3.222C73.557,79.621,72.522,79.078,71.305,78.935z"></path>
	<path fill="#FFFFFF" d="M103.371,92.494l-3.042-0.362c-1.623-0.193-2.982-0.093-4.077,0.3v-8.991c0-0.322,0.112-0.59,0.335-0.805
		c0.223-0.215,0.497-0.303,0.821-0.265l3.955,0.466c0.325,0.038,0.598,0.191,0.821,0.459c0.223,0.268,0.335,0.563,0.335,0.885v3.079
		l7.789,0.923v-2.901c0-5.318-2.515-8.272-7.545-8.863l-6.572-0.771c-5.03-0.589-7.545,1.769-7.545,7.076v24.3
		c0,5.306,2.515,8.264,7.545,8.874l7.18,0.871c5.03,0.611,7.545-1.742,7.545-7.06v-8.34
		C110.916,96.052,108.401,93.093,103.371,92.494z M103.371,108.134c0,0.322-0.112,0.59-0.335,0.805
		c-0.223,0.215-0.497,0.302-0.821,0.263l-4.807-0.58c-0.325-0.039-0.598-0.193-0.821-0.461c-0.223-0.268-0.335-0.563-0.335-0.885v-7
		c0-0.322,0.112-0.59,0.335-0.805c0.223-0.215,0.497-0.303,0.821-0.264l4.807,0.575c0.325,0.039,0.598,0.192,0.821,0.461
		c0.223,0.268,0.335,0.563,0.335,0.885V108.134z"></path>
	<polygon fill="#FFFFFF" points="123.814,79.562 123.814,118.712 132.089,119.722 132.089,80.539 	"></polygon>
	<path fill="#616466" d="M18.399,14.062c3.393-4.138,9.028-7.71,15.344-9.322c7.594-1.937,15.679-1.025,23.648,3.257
		c0.947,0.509,2.144,0.185,2.674-0.724c0.53-0.909,0.192-2.058-0.755-2.567c-8.87-4.767-18.007-5.798-26.577-3.612
		C25.593,2.917,19.229,6.95,15.311,11.729c-0.671,0.819-0.524,2.004,0.329,2.649C16.493,15.022,17.728,14.881,18.399,14.062z"></path>
	<path fill="#616466" d="M24.68,24.633c6.416-7.738,19.753-10.086,28.791-5.311c0.951,0.502,2.145,0.17,2.669-0.743
		c0.523-0.913,0.177-2.06-0.774-2.562c-10.693-5.649-26.134-2.93-33.76,6.267c-0.676,0.815-0.535,2.002,0.314,2.65
		C22.768,25.583,24.004,25.448,24.68,24.633z"></path>
</g></symbol><symbol id="global/shopping_cart_dashboard" viewBox="0 0 20 18"><circle cx="4.5" cy="16.5" r="1.5"></circle>
<circle cx="12.5" cy="16.5" r="1.5"></circle>
<polygon points="20,0 15,0 12.5,11 4.3,11 2.7,6 10.5,6 11,4 0,4 3,13 14,13 16.5,2 20,2 "></polygon></symbol><symbol id="global/subscription-incomplete" viewBox="0 0 140 100"><title>Errors_error</title><path fill="#e6e8e9" d="M221,34H89a4,4,0,0,0-4,4v92a4,4,0,0,0,4,4H221a4,4,0,0,0,4-4V38A4,4,0,0,0,221,34ZM89,37H221a1,1,0,0,1,1,1v7H88V38A1,1,0,0,1,89,37Zm132,94H89a1,1,0,0,1-1-1V48H222v82A1,1,0,0,1,221,131Z" transform="translate(-85 -34)"></path><rect fill="#e6e8e9" x="6" y="6" width="2" height="2"></rect><rect fill="#e6e8e9" x="10" y="6" width="2" height="2"></rect><rect fill="#e6e8e9" x="14" y="6" width="2" height="2"></rect><path fill="#f39901" d="M155,60a28,28,0,1,0,28,28A28,28,0,0,0,155,60Zm3.51,43.28h-5.32V97.72h5.32Zm-1.32-9.12h-2.68L153,75.72V74.17h5.64l.03,1.55Z" transform="translate(-85 -34)"></path></symbol><symbol id="global/vimeo-play" viewBox="0 0 20 20"><polygon points="1,0 20,10 1,20"></polygon></symbol></svg>