<svg xmlns="http://www.w3.org/2000/svg" xmlns:xlink="http://www.w3.org/1999/xlink"><defs>
<symbol viewBox="0 0 72 72" id="sp-store-unavailable">
<path fill-rule="evenodd" clip-rule="evenodd" d="M43.5,57c-3.041,0-5.5,2.459-5.5,5.5s2.459,5.5,5.5,5.5s5.5-2.459,5.5-5.5  S46.541,57,43.5,57z M43.5,66c-1.936,0-3.5-1.564-3.5-3.5s1.564-3.5,3.5-3.5s3.5,1.564,3.5,3.5S45.436,66,43.5,66z"></path>
<path fill-rule="evenodd" clip-rule="evenodd" d="M25.5,57c-3.041,0-5.5,2.459-5.5,5.5s2.459,5.5,5.5,5.5s5.5-2.459,5.5-5.5  S28.541,57,25.5,57z M25.5,66c-1.936,0-3.5-1.564-3.5-3.5s1.564-3.5,3.5-3.5s3.5,1.564,3.5,3.5S27.436,66,25.5,66z"></path>
<rect x="21" y="25" fill-rule="evenodd" clip-rule="evenodd" width="26" height="2"></rect>
<rect x="23" y="31" fill-rule="evenodd" clip-rule="evenodd" width="22" height="2"></rect>
<rect x="25" y="37" fill-rule="evenodd" clip-rule="evenodd" width="18" height="2"></rect>
<path fill-rule="evenodd" clip-rule="evenodd" d="M56,4c-6.627,0-12,5.373-12,12c0,0.683,0.09,1.348,0.2,2H11.527L9.2,12H4v2h3.8  L20,45l-4,9h37v-2H19l2.7-6h26.1l7.8-18c0.144,0.005,0.255,0,0.4,0c6.627,0,12-5.373,12-12S62.627,4,56,4z M46.5,44H21.7l-9.4-24  h32.4c1.377,3.89,4.699,6.827,8.8,7.7L46.5,44z M61.7,20.3l-1.4,1.4L56,17.4l-4.3,4.3l-1.4-1.4l-0.007-0.007L54.6,16l-4.3-4.293  l0.003-0.003L51.7,10.3l4.3,4.3l4.3-4.3l1.4,1.4L57.4,16L61.7,20.3z"></path>
</symbol>
<symbol viewBox="0 0 26 26" id="sp-added-status"><path d="M5 12l5.02 4.9L21.15 4c.65-.66 1.71-.66 2.36 0 .65.67.65 1.74 0 2.4l-12.3 14.1c-.33.33-.76.5-1.18.5-.43 0-.86-.17-1.18-.5l-6.21-6.1c-.65-.66-.65-1.74 0-2.41.65-.65 1.71-.65 2.36.01z" /></symbol><symbol viewBox="0 0 14 29" id="sp-arrow-next">
<g>
	<polygon points="2.8,0 0,2.8 9,14.5 0,26.2 2.8,29 14,14.5 	" />
</g>
</symbol><symbol viewBox="0 0 100 100" id="sp-arrow-readmore"><g><path d="M72.707,49.773l-5.255-5.258l-0.302-0.369L42.281,19.277c-3.04-3.037-7.963-3.037-11.002,0   c-3.039,3.04-3.039,7.965,0,11.004l19.438,19.436L31.279,69.154c-3.039,3.04-3.039,7.965,0,11.005   c1.52,1.517,3.51,2.276,5.501,2.276s3.981-0.76,5.501-2.276l22.507-22.51l0.021,0.021L72.707,49.773z" /></g></symbol><symbol viewBox="0 0 6 10" id="sp-breadcrumbs-arrow">
<polygon points="6,5 1.5,10 0,8.6 3.4,5 0,1.4 1.5,0 " />
</symbol><symbol viewBox="0 0 32 22" id="sp-card-mastercard">
<path fill="#020864" d="M30,22H2c-1.1,0-2-0.9-2-2V2c0-1.1,0.9-2,2-2h28c1.1,0,2,0.9,2,2v18C32,21.1,31.1,22,30,22z" />
<path fill="#FD9827" d="M20,5c3.3,0,6,2.7,6,6s-2.7,6-6,6s-6-2.7-6-6S16.7,5,20,5z" />
<path fill="#CA0814" d="M12,5c3.3,0,6,2.7,6,6s-2.7,6-6,6s-6-2.7-6-6S8.7,5,12,5z" />
</symbol><symbol viewBox="0 0 124 33" id="sp-card-paypal">
<path fill="#14308B" d="M46.418,8.16h-6.839c-0.468,0-0.866,0.34-0.939,0.802l-2.766,17.537c-0.055,0.346,0.213,0.658,0.564,0.658
	h3.265c0.468,0,0.866-0.34,0.939-0.803l0.746-4.73c0.072-0.463,0.471-0.803,0.938-0.803h2.165c4.505,0,7.105-2.18,7.784-6.5
	c0.306-1.89,0.013-3.375-0.872-4.415C50.431,8.764,48.707,8.16,46.418,8.16z M47.207,14.565c-0.374,2.454-2.249,2.454-4.062,2.454
	h-1.032l0.724-4.583c0.043-0.277,0.283-0.481,0.563-0.481h0.473c1.235,0,2.4,0,3.002,0.704
	C47.234,13.079,47.344,13.703,47.207,14.565z" />
<path fill="#14308B" d="M66.861,14.486h-3.275c-0.279,0-0.52,0.204-0.563,0.481l-0.145,0.916l-0.229-0.332
	c-0.709-1.029-2.29-1.373-3.868-1.373c-3.619,0-6.71,2.741-7.312,6.586c-0.313,1.918,0.132,3.752,1.22,5.031
	c0.998,1.176,2.426,1.666,4.125,1.666c2.916,0,4.533-1.875,4.533-1.875l-0.146,0.91c-0.055,0.348,0.213,0.66,0.562,0.66h2.95
	c0.469,0,0.865-0.34,0.939-0.803l1.77-11.209C67.478,14.799,67.211,14.486,66.861,14.486z M62.296,20.86
	c-0.316,1.871-1.801,3.127-3.695,3.127c-0.951,0-1.711-0.305-2.199-0.883c-0.484-0.574-0.668-1.391-0.514-2.301
	c0.295-1.855,1.805-3.152,3.67-3.152c0.93,0,1.686,0.309,2.184,0.892C62.241,19.132,62.439,19.954,62.296,20.86z" />
<path fill="#14308B" d="M84.303,14.486h-3.291c-0.314,0-0.609,0.156-0.787,0.417l-4.539,6.686l-1.924-6.425
	c-0.121-0.402-0.492-0.678-0.912-0.678h-3.234c-0.393,0-0.666,0.384-0.541,0.754L72.7,25.878l-3.408,4.811
	c-0.268,0.379,0.002,0.9,0.465,0.9h3.287c0.312,0,0.604-0.152,0.781-0.408l10.946-15.8C85.033,15.003,84.764,14.486,84.303,14.486z" />
<path fill="#3D9CE1" d="M95.199,8.16h-6.84c-0.467,0-0.865,0.34-0.938,0.802l-2.766,17.537c-0.055,0.346,0.213,0.658,0.562,0.658
	h3.51c0.326,0,0.605-0.238,0.656-0.562l0.785-4.971c0.072-0.463,0.471-0.803,0.938-0.803h2.164c4.506,0,7.105-2.18,7.785-6.5
	c0.307-1.89,0.012-3.375-0.873-4.415C99.211,8.764,97.488,8.16,95.199,8.16z M95.988,14.565c-0.373,2.454-2.248,2.454-4.062,2.454
	h-1.031l0.725-4.583c0.043-0.277,0.281-0.481,0.562-0.481h0.473c1.234,0,2.4,0,3.002,0.704
	C96.016,13.079,96.125,13.703,95.988,14.565z" />
<path fill="#3D9CE1" d="M115.641,14.486h-3.273c-0.281,0-0.52,0.204-0.562,0.481l-0.145,0.916l-0.23-0.332
	c-0.709-1.029-2.289-1.373-3.867-1.373c-3.619,0-6.709,2.741-7.311,6.586c-0.312,1.918,0.131,3.752,1.219,5.031
	c1,1.176,2.426,1.666,4.125,1.666c2.916,0,4.533-1.875,4.533-1.875l-0.146,0.91c-0.055,0.348,0.213,0.66,0.564,0.66h2.949
	c0.467,0,0.865-0.34,0.938-0.803l1.771-11.209C116.26,14.799,115.992,14.486,115.641,14.486z M111.076,20.86
	c-0.314,1.871-1.801,3.127-3.695,3.127c-0.949,0-1.711-0.305-2.199-0.883c-0.484-0.574-0.666-1.391-0.514-2.301
	c0.297-1.855,1.805-3.152,3.67-3.152c0.93,0,1.686,0.309,2.184,0.892C111.023,19.132,111.221,19.954,111.076,20.86z" />
<path fill="#3D9CE1" d="M119.502,8.641l-2.807,17.858c-0.055,0.346,0.213,0.658,0.562,0.658h2.822c0.469,0,0.867-0.34,0.939-0.803
	l2.768-17.536c0.055-0.346-0.213-0.659-0.562-0.659h-3.16C119.785,8.16,119.545,8.364,119.502,8.641z" />
<path fill="#253B80" d="M7.473,30.565l0.523-3.322l-1.165-0.027H1.268L5.134,2.703C5.146,2.629,5.185,2.56,5.242,2.511
	c0.057-0.049,0.13-0.076,0.206-0.076h9.38c3.114,0,5.263,0.648,6.385,1.927c0.526,0.6,0.861,1.227,1.023,1.917
	c0.17,0.724,0.173,1.589,0.007,2.644L22.231,9v0.676l0.526,0.298c0.443,0.235,0.795,0.504,1.065,0.812
	c0.45,0.513,0.741,1.165,0.864,1.938c0.127,0.795,0.085,1.741-0.123,2.812c-0.24,1.232-0.628,2.305-1.152,3.183
	c-0.482,0.809-1.096,1.48-1.825,2c-0.696,0.494-1.523,0.869-2.458,1.109c-0.906,0.236-1.939,0.355-3.072,0.355h-0.73
	c-0.522,0-1.029,0.188-1.427,0.525c-0.399,0.344-0.663,0.814-0.744,1.328L13.1,24.335l-0.924,5.855l-0.042,0.215
	c-0.011,0.068-0.03,0.102-0.058,0.125c-0.025,0.021-0.061,0.035-0.096,0.035H7.473z" />
<path fill="#3D9CE1" d="M23.255,9.078L23.255,9.078L23.255,9.078c-0.028,0.179-0.06,0.362-0.096,0.55
	c-1.237,6.351-5.469,8.545-10.874,8.545H9.533c-0.661,0-1.218,0.48-1.321,1.132l0,0l0,0l-1.409,8.936l-0.399,2.533
	c-0.067,0.428,0.263,0.814,0.695,0.814h4.881c0.578,0,1.069-0.42,1.16-0.99l0.048-0.248l0.919-5.832l0.059-0.32
	c0.09-0.572,0.582-0.992,1.16-0.992h0.73c4.729,0,8.431-1.92,9.513-7.476c0.452-2.321,0.218-4.259-0.978-5.622
	C24.229,9.697,23.78,9.356,23.255,9.078z" />
<path fill="#0C226C" d="M21.961,8.562c-0.189-0.055-0.384-0.105-0.584-0.15c-0.201-0.044-0.407-0.083-0.619-0.117
	c-0.742-0.12-1.555-0.177-2.426-0.177H10.98c-0.181,0-0.353,0.041-0.507,0.115C10.134,8.396,9.882,8.717,9.821,9.11l-1.564,9.906
	l-0.045,0.289c0.103-0.652,0.66-1.132,1.321-1.132h2.752c5.405,0,9.637-2.195,10.874-8.545c0.037-0.188,0.068-0.371,0.096-0.55
	c-0.313-0.166-0.652-0.308-1.017-0.429C22.148,8.619,22.055,8.59,21.961,8.562z" />
<path fill="#14308B" d="M9.821,9.11c0.061-0.393,0.313-0.714,0.652-0.876c0.155-0.074,0.326-0.115,0.507-0.115h7.352
	c0.871,0,1.684,0.057,2.426,0.177c0.212,0.034,0.418,0.073,0.619,0.117c0.2,0.045,0.395,0.095,0.584,0.15
	c0.094,0.028,0.187,0.057,0.278,0.086c0.365,0.121,0.704,0.264,1.017,0.429c0.368-2.347-0.003-3.945-1.272-5.392
	c-1.399-1.593-3.924-2.275-7.155-2.275h-9.38c-0.66,0-1.223,0.48-1.325,1.133L0.217,27.309c-0.077,0.49,0.301,0.932,0.795,0.932
	h5.791l1.454-9.225L9.821,9.11z" />
</symbol><symbol viewBox="0 0 79 21" id="sp-card-paypal-white"><defs><path id="sp-card-paypal-white_li0ha" d="M640.949 1667.54c1.472 0 2.582.401 3.207 1.16.57.69.759 1.677.562 2.932-.437 2.87-2.11 4.318-5.01 4.318h-1.392c-.3 0-.557.226-.604.532l-.504 3.302a.432.432 0 0 1-.423.373h-2.258a.375.375 0 0 1-.362-.437l1.78-11.647a.618.618 0 0 1 .603-.533zm.505 4.254c.087-.573.017-.987-.214-1.266-.386-.467-1.135-.467-1.927-.467h-.304a.37.37 0 0 0-.361.319l-.465 3.044h.662c1.165 0 2.369 0 2.609-1.63zm12.17-.017c.222 0 .391.202.357.425l-1.12 7.24a.605.605 0 0 1-.592.519h-1.864a.366.366 0 0 1-.356-.426l.092-.588s-1.022 1.21-2.866 1.21c-1.074 0-1.975-.316-2.607-1.075-.687-.827-.968-2.01-.77-3.25.38-2.484 2.334-4.255 4.62-4.255.998 0 1.997.223 2.445.888l.145.214.091-.591a.363.363 0 0 1 .356-.311zm-2.887 4.117c.09-.585-.034-1.116-.35-1.496-.315-.377-.792-.577-1.378-.577-1.178 0-2.13.838-2.317 2.036-.097.587.018 1.115.324 1.486.309.373.788.57 1.388.57 1.196 0 2.133-.81 2.333-2.02zm5.462-8.034c.027-.184.173-.32.344-.32h1.932c.214 0 .377.208.344.438l-1.692 11.647c-.045.306-.288.532-.574.532h-1.725c-.214 0-.378-.207-.345-.437z" /><path id="sp-card-paypal-white_li0hb" d="M610.003 1667.54c1.473 0 2.582.401 3.209 1.16.57.69.758 1.677.562 2.932-.438 2.87-2.112 4.318-5.012 4.318h-1.393a.618.618 0 0 0-.605.532l-.48 3.143a.618.618 0 0 1-.604.532h-2.103a.375.375 0 0 1-.362-.437l1.78-11.647a.618.618 0 0 1 .604-.533zm.508 4.254c.087-.573.017-.987-.214-1.266-.387-.467-1.138-.467-1.933-.467h-.304a.37.37 0 0 0-.363.319l-.466 3.044h.665c1.167 0 2.374 0 2.615-1.63zm12.166-.017c.221 0 .39.202.356.425l-1.12 7.24a.605.605 0 0 1-.593.519h-1.866a.366.366 0 0 1-.356-.426l.093-.588s-1.023 1.21-2.868 1.21c-1.074 0-1.976-.316-2.608-1.075-.688-.827-.97-2.01-.771-3.25.38-2.484 2.335-4.255 4.623-4.255.998 0 1.998.223 2.446.888l.145.214.091-.591a.363.363 0 0 1 .357-.311zm-2.887 4.117c.091-.585-.034-1.116-.35-1.496-.316-.377-.794-.577-1.382-.577-1.18 0-2.134.838-2.32 2.036-.098.587.017 1.115.324 1.486.309.373.79.57 1.39.57 1.199 0 2.138-.81 2.338-2.02zm14.003-4.316a.37.37 0 0 1 .301.58l-7.022 10.257a.607.607 0 0 1-.502.266h-2.11a.37.37 0 0 1-.298-.584l2.187-3.123-2.325-6.907a.37.37 0 0 1 .346-.49h2.076a.61.61 0 0 1 .584.44l1.235 4.172 2.913-4.341a.608.608 0 0 1 .504-.27z" /><path id="sp-card-paypal-white_li0hc" d="M594.618 1668.245c.233-1.554-.002-2.611-.807-3.569-.887-1.054-2.489-1.506-4.538-1.506h-5.949a.863.863 0 0 0-.84.75l-2.478 16.393c-.049.323.191.616.505.616h3.672l-.253 1.677c-.043.283.166.54.44.54h3.096a.755.755 0 0 0 .736-.657l.03-.164.583-3.86.038-.212a.755.755 0 0 1 .735-.656h.463c3 0 5.348-1.272 6.034-4.95.286-1.536.138-2.818-.62-3.72a2.971 2.971 0 0 0-.847-.682" /><path id="sp-card-paypal-white_li0hd" d="M594.618 1668.245c.233-1.554-.002-2.611-.807-3.569-.887-1.054-2.489-1.506-4.538-1.506h-5.949a.863.863 0 0 0-.84.75l-2.478 16.393c-.049.323.191.616.505.616h3.672l.923-6.105-.029.191c.065-.431.419-.75.838-.75h1.745c3.428 0 6.112-1.453 6.897-5.657.023-.124.043-.245.06-.363" /></defs><g><g transform="translate(-580 -1663)"><use fill="#fff" xlink:href="#sp-card-paypal-white_li0ha" /></g><g transform="translate(-580 -1663)"><use fill="#fff" xlink:href="#sp-card-paypal-white_li0hb" /></g><g clip-path="url(#clip-CB77B435-D8A7-4591-BE33-F964962662E6)" opacity=".6" transform="translate(-580 -1663)"><use fill="#fff" xlink:href="#sp-card-paypal-white_li0hc" /></g><g clip-path="url(#clip-8474BDB3-A5BB-473F-9329-B575AA0967FC)" opacity=".5" transform="translate(-580 -1663)"><use fill="#fff" xlink:href="#sp-card-paypal-white_li0hd" /></g></g></symbol><symbol viewBox="0 0 38 26" id="sp-card-visa">
<path fill="#FFFFFF" d="M2,25.5c-0.8,0-1.5-0.7-1.5-1.5V2c0-0.8,0.7-1.5,1.5-1.5h34c0.8,0,1.5,0.7,1.5,1.5v22c0,0.8-0.7,1.5-1.5,1.5
	H2z" />
<path fill="#F0F0F0" d="M36,1c0.6,0,1,0.4,1,1v22c0,0.6-0.4,1-1,1H2c-0.6,0-1-0.4-1-1V2c0-0.6,0.4-1,1-1H36 M36,0H2C0.9,0,0,0.9,0,2
	v22c0,1.1,0.9,2,2,2h34c1.1,0,2-0.9,2-2V2C38,0.9,37.1,0,36,0L36,0z" />
<path fill="#0033A0" d="M12.2,8.3l-2.5,6.6l-0.3-1.3C8.9,11.9,7.6,10.1,6,9.4L8.2,18h2.7l4-9.7L12.2,8.3L12.2,8.3z" />
<polygon fill="#0033A0" points="14.3,18 16,8.1 18.5,8.1 16.9,18 " />
<path fill="#0033A0" d="M26,8.4C25.5,8.1,24.7,8,23.8,8c-2.5,0-4.3,1.3-4.3,3.2c0,1.4,1.3,2.2,2.2,2.6c1,0.5,1.3,0.8,1.3,1.2
	c0,0.6-0.8,0.9-1.6,0.9c-1,0-1.6-0.1-2.3-0.5l-0.4-0.1l-0.4,2.2C19,17.7,20,18,21.2,18c2.6,0,4.4-1.3,4.4-3.4c0-1.2-0.6-1.9-2.1-2.6
	c-0.9-0.4-1.4-0.8-1.4-1.2c0-0.4,0.5-0.8,1.4-0.8c0.8,0,1.4,0.1,1.9,0.4l0.3,0.1L26,8.4L26,8.4z" />
<path fill="#0033A0" d="M32.5,8.3h-1.9c-0.6,0-1,0.1-1.3,0.8l-3.8,9h2.6c0,0,0.4-1.2,0.5-1.4c0.3,0,2.9,0,3.2,0
	C32,17,32.1,18,32.1,18h2.5L32.5,8.3L32.5,8.3z M29.4,14.5c0.3-0.5,1-2.7,1-2.7s0.3-0.5,0.4-0.9l0.1,0.8c0,0,0.5,2.3,0.6,2.9
	C31.1,14.5,29.9,14.5,29.4,14.5L29.4,14.5z" />
<path fill="#FF9E16" d="M7.6,8.3H3.4v0.1c3.1,0.8,5.2,2.9,6.1,5.2L8.6,9C8.5,8.4,8.1,8.3,7.6,8.3L7.6,8.3z" />
</symbol><symbol viewBox="0 0 12 10" id="sp-check">
<path d="M12,1.8L10.3,0L4.1,6.5L1.7,4L0,5.8L4.1,10L12,1.8z" />
</symbol><symbol viewBox="0 0 18 18" id="sp-contain">
<g id="sp-contain_Layer_1">
</g>
<g id="sp-contain_Layer_2">
	<g>
		<polygon points="0,6 1,6 1,14 3,14 3,4 0,4 		" />
		<rect x="8" y="10" width="2" height="2" />
		<polygon points="15,4 15,6 16,6 16,14 18,14 18,4 		" />
		<rect x="8" y="6" width="2" height="2" />
	</g>
</g>
</symbol><symbol viewBox="0 0 18 18" id="sp-cover">
<g id="sp-cover_Layer_1">
</g>
<g id="sp-cover_Layer_2">
	<g>
		<path d="M11.37,2c-0.328,0-0.502,0.368-0.27,0.6l1.6,1.7L10,7l1,1l2.7-2.7l1.67,1.6C15.602,7.132,16,6.958,16,6.63V2H11.37z" />
		<path d="M6.9,2.63C7.132,2.398,6.958,2,6.63,2H2v4.63C2,6.958,2.368,7.132,2.6,6.9l1.7-1.6L7,8l1-1L5.3,4.3L6.9,2.63z" />
		<path d="M15.37,11.1l-1.67,1.6L11,10l-1,1l2.7,2.7l-1.6,1.7c-0.232,0.232-0.058,0.6,0.27,0.6H16v-4.63
			C16,11.042,15.602,10.868,15.37,11.1z" />
		<path d="M7,10l-2.7,2.7l-1.7-1.6C2.368,10.868,2,11.042,2,11.37V16h4.63c0.328,0,0.502-0.398,0.27-0.63L5.3,13.7L8,11L7,10z" />
	</g>
</g>
</symbol><symbol viewBox="0 0 12 12" id="sp-cross_12">
<polygon points="12,1.415 10.585,0 6,4.585 1.415,0 0,1.415 4.585,6 0,10.585 1.415,12 6,7.415 10.585,12 12,10.585 7.415,6 " />
</symbol><symbol viewBox="0 0 20 20" id="sp-cross_20">
<polygon points="20,1.5 18.5,0 10,8.5 1.5,0 0,1.5 8.5,10 0,18.5 1.5,20 10,11.5 18.5,20 20,18.5 11.5,10 " />
</symbol><symbol viewBox="0 0 81 81" id="sp-dailymotion-play"><circle cx="40.705" cy="40.705" r="40.078" fill="currentColor" fill-opacity=".4" /><path d="M55.42 40.705L33.504 55.734V25.675z" /></symbol><symbol viewBox="0 0 100 8" id="sp-divider-dash">
<rect width="100" height="8" />
</symbol><symbol viewBox="0 0 72 4" id="sp-divider-dots-100">
<circle cx="2" cy="2" r="2" />
<circle cx="36" cy="2" r="2" />
<circle cx="70" cy="2" r="2" />
</symbol><symbol viewBox="0 0 20 4" id="sp-divider-dots-25">
<circle cx="2" cy="2" r="2" />
<circle cx="18" cy="2" r="2" />
</symbol><symbol viewBox="0 0 36 4" id="sp-divider-dots-50">
<circle cx="2" cy="2" r="2" />
<circle cx="18" cy="2" r="2" />
<circle cx="34" cy="2" r="2" />
</symbol><symbol viewBox="0 0 54 4" id="sp-divider-dots-75">
<circle cx="2" cy="2" r="2" />
<circle cx="27" cy="2" r="2" />
<circle cx="52" cy="2" r="2" />
</symbol><symbol id="sp-divider-dashed" viewBox="0 0 5120 1"><line y1="0.5" x2="5120" y2="0.5" stroke="currentColor" stroke-dasharray="5 5"></line></symbol><symbol id="sp-divider-dotted" viewBox="0 0 5120 1"><line y1="0.5" x2="5120" y2="0.5" stroke="currentColor" stroke-dasharray="1 3"></line></symbol><symbol viewBox="0 0 97 5" id="sp-divider-slants">
<g>
	<polygon points="94.9,0 90,5 92.1,5 97,0 	" />
	<polygon points="88.9,0 84,5 86.1,5 91,0 	" />
	<polygon points="82.9,0 78,5 80.1,5 85,0 	" />
	<polygon points="76.9,0 72,5 74.1,5 79,0 	" />
	<polygon points="70.9,0 66,5 68.1,5 73,0 	" />
	<polygon points="64.9,0 60,5 62.1,5 67,0 	" />
	<polygon points="58.9,0 54,5 56.1,5 61,0 	" />
	<polygon points="52.9,0 48,5 50.1,5 55,0 	" />
	<polygon points="46.9,0 42,5 44.1,5 49,0 	" />
	<polygon points="40.9,0 36,5 38.1,5 43,0 	" />
	<polygon points="34.9,0 30,5 32.1,5 37,0 	" />
	<polygon points="28.9,0 24,5 26.1,5 31,0 	" />
	<polygon points="22.9,0 18,5 20.1,5 25,0 	" />
	<polygon points="16.9,0 12,5 14.1,5 19,0 	" />
	<polygon points="10.9,0 6,5 8.1,5 13,0 	" />
	<polygon points="4.9,0 0,5 2.1,5 7,0 	" />
</g>
</symbol><symbol id="sp-divider-solid" viewBox="0 0 5120 1"><path d="M0 0H5120V1H0V0Z" fill="currentColor"></path></symbol><symbol viewBox="0 0 112 4" id="sp-divider-waves">
<path d="M108,1.4c-0.9,0.6-1.5,1.1-3,1.1s-2.2-0.5-3-1.1c-0.9-0.6-2-1.4-4-1.4s-3.1,0.8-4,1.4c-0.9,0.6-1.5,1.1-3,1.1S88.8,2,88,1.4
	C87.1,0.8,86,0,84,0s-3.1,0.8-4,1.4c-0.9,0.6-1.5,1.1-3,1.1S74.8,2,74,1.4C73.1,0.8,72,0,70,0s-3.1,0.8-4,1.4
	c-0.9,0.6-1.5,1.1-3,1.1S60.8,2,60,1.4C59.1,0.8,58,0,56,0s-3.1,0.8-4,1.4c-0.9,0.6-1.5,1.1-3,1.1S46.8,2,46,1.4C45.1,0.8,44,0,42,0
	s-3.1,0.8-4,1.4c-0.9,0.6-1.5,1.1-3,1.1S32.8,2,32,1.4C31.1,0.8,30,0,28,0s-3.1,0.8-4,1.4c-0.9,0.6-1.5,1.1-3,1.1S18.8,2,18,1.4
	C17.1,0.8,16,0,14,0s-3.1,0.8-4,1.4C9.1,2,8.5,2.5,7,2.5S4.9,2,4,1.4C3.1,0.8,2,0,0,0v1.5c1.5,0,2.1,0.5,3,1.1C3.9,3.2,5,4,7,4
	s3.1-0.8,4-1.4c0.9-0.6,1.5-1.1,3-1.1s2.2,0.5,3,1.1C17.9,3.2,19,4,21,4s3.1-0.8,4-1.4c0.9-0.6,1.5-1.1,3-1.1s2.2,0.5,3,1.1
	C31.9,3.2,33,4,35,4s3.1-0.8,4-1.4c0.9-0.6,1.5-1.1,3-1.1s2.2,0.5,3,1.1C45.9,3.2,47,4,49,4s3.1-0.8,4-1.4c0.9-0.6,1.5-1.1,3-1.1
	s2.2,0.5,3,1.1C59.9,3.2,61,4,63,4s3.1-0.8,4-1.4c0.9-0.6,1.5-1.1,3-1.1s2.2,0.5,3,1.1C73.9,3.2,75,4,77,4s3.1-0.8,4-1.4
	c0.9-0.6,1.5-1.1,3-1.1s2.2,0.5,3,1.1C87.9,3.2,89,4,91,4s3.1-0.8,4-1.4c0.9-0.6,1.5-1.1,3-1.1s2.2,0.5,3,1.1c0.9,0.6,2,1.4,4,1.4
	s3.1-0.8,4-1.4c0.9-0.6,1.5-1.1,3-1.1V0C110,0,108.9,0.7,108,1.4z" />
</symbol><symbol viewBox="0 0 112 12" id="sp-divider-zigzag">
<g>
	<polygon points="98,5 91,10.3 84,5 77,10.3 70,5 63,10.3 56,5 49,10.3 42,5 35,10.3 28,5 21,10.3 14,5 7,10.3 0,5 0,6.7 7,12 
		14,6.7 21,12 28,6.7 35,12 42,6.7 49,12 56,6.7 63,12 70,6.7 77,12 84,6.7 91,12 98,6.7 105,12 112,6.7 112,5 105,10.3 	" />
	<polygon points="105,5.3 98,0 91,5.3 84,0 77,5.3 70,0 63,5.3 56,0 49,5.3 42,0 35,5.3 28,0 21,5.3 14,0 7,5.3 0,0 0,1.7 7,7 
		14,1.7 21,7 28,1.7 35,7 42,1.7 49,7 56,1.7 63,7 70,1.7 77,7 84,1.7 91,7 98,1.7 105,7 112,1.7 112,0 	" />
</g>
</symbol><symbol viewBox="0 0 120 120" id="sp-fm-error-cloud">
<path d="M28.8,105.7C7.4,93.7-3.8,69.1,1.2,45l12.2,12.2c1,1,2.5,1.3,3.8,0.8l7.8-3.1l5.7,1.1l4.7,17.3c0.3,1.1,1.2,2,2.3,2.4
	l7.7,2.6l-2.8,15.2L28.8,105.7z M109.6,75.7L109.6,75.7c-7.4-2.7-15.6-1.9-22.4,2.1l-6.3,3.1l-6.2-2.1l2.8-12.8
	c0.2-0.9,0-1.9-0.5-2.7l-5.1-7.6l7.7-5.1c1.6-1.1,2.1-3.3,1-4.9l-6.3-9.5l1.3-9.2l8.9-4.5c0.8-0.4,1.5-1.2,1.8-2l3.3-9.8
	C110,25.5,118.1,52,109.6,75.7z M81.2,100.6c0-10.7,8.7-19.4,19.4-19.4s19.4,8.7,19.4,19.4s-8.7,19.4-19.4,19.4h0
	C89.9,120,81.2,111.3,81.2,100.6z M95.6,100.6l-3.3,3.3c-0.7,0.7-0.7,1.8,0,2.5l2.5,2.5c0.7,0.7,1.8,0.7,2.5,0l0,0l3.3-3.3l3.3,3.3
	c0.7,0.7,1.8,0.7,2.5,0l0,0l2.5-2.5c0.7-0.7,0.7-1.8,0-2.5l-3.2-3.3l3.3-3.3c0.7-0.7,0.7-1.8,0-2.5l0,0l-2.5-2.5
	c-0.7-0.7-1.8-0.7-2.5,0l-3.3,3.3l-3.3-3.3c-0.7-0.7-1.8-0.7-2.5,0l0,0l-2.5,2.5c-0.7,0.7-0.7,1.8,0,2.5l0,0L95.6,100.6z M77.7,87.3
	L77.7,87.3c-3.9,6.8-4.6,14.9-2,22.3c-12.9,4.7-27.1,4.5-39.9-0.6l12.5-11.1c0.6-0.5,1-1.2,1.1-2l3.5-19.4c0.3-1.7-0.7-3.4-2.4-4
	l-8.8-3L36.9,52c-0.4-1.3-1.4-2.3-2.7-2.5l-8.8-1.8c-0.7-0.1-1.4-0.1-2,0.2l-6.7,2.7L3.4,37.2C14.1,7.9,46.5-7.3,75.8,3.4
	c2.6,0.9,5.1,2.1,7.6,3.4L80,16.9l-9.3,4.6c-1,0.5-1.7,1.5-1.9,2.7l-1.8,12.3c-0.1,0.9,0.1,1.7,0.6,2.5l5.1,7.7l-7.7,5.1
	c-1.6,1.1-2.1,3.3-1,4.9l6.2,9.3l-3.2,14.4c-0.4,1.8,0.6,3.5,2.3,4.1L77.7,87.3z" />
</symbol><symbol viewBox="0 0 10 10" id="sp-minus_10">
<rect y="4" width="10" height="2" />
</symbol><symbol viewBox="0 0 68 48" id="sp-play">
	<path d="m .66,37.62 c 0,0 .66,4.70 2.70,6.77 2.58,2.71 5.98,2.63 7.49,2.91 5.43,.52 23.10,.68 23.12,.68 .00,-1.3e-5 14.29,-0.02 23.81,-0.71 1.32,-0.15 4.22,-0.17 6.81,-2.89 2.03,-2.07 2.70,-6.77 2.70,-6.77 0,0 .67,-5.52 .67,-11.04 l 0,-5.17 c 0,-5.52 -0.67,-11.04 -0.67,-11.04 0,0 -0.66,-4.70 -2.70,-6.77 C 62.03,.86 59.13,.84 57.80,.69 48.28,0 34.00,0 34.00,0 33.97,0 19.69,0 10.18,.69 8.85,.84 5.95,.86 3.36,3.58 1.32,5.65 .66,10.35 .66,10.35 c 0,0 -0.55,4.50 -0.66,9.45 l 0,8.36 c .10,4.94 .66,9.45 .66,9.45 z" />
	<path d="m 26.96,13.67 18.37,9.62 -18.37,9.55 -0.00,-19.17 z" fill="#fff" />
	<path d="M 45.02,23.46 45.32,23.28 26.96,13.67 43.32,24.34 45.02,23.46 z" fill="#ccc" />
</symbol><symbol viewBox="0 0 10 10" id="sp-plus_10">
<polygon points="6,4 6,0 4,0 4,4 0,4 0,6 4,6 4,10 6,10 6,6 10,6 10,4 " />
</symbol><symbol viewBox="0 0 138 115" id="sp-product-no-photo">
<path d="M122.667,20.444H101.66l-2.124-8.474C96.628,3.246,92.506,0,84.333,0H53.667C45.494,0,41.372,3.246,38.41,12.157
	l-2.073,8.288H15.333C6.877,20.444,0,27.321,0,35.778v63.889C0,108.123,6.877,115,15.333,115h107.333
	c8.456,0,15.333-6.877,15.333-15.333V35.778C138,27.321,131.123,20.444,122.667,20.444z M132.889,99.667
	c0,5.638-4.585,10.222-10.222,10.222H15.333c-5.638,0-10.222-4.585-10.222-10.222V35.778c0-5.638,4.585-10.222,10.222-10.222h23
	c1.173,0,2.195-0.797,2.479-1.935l2.502-10.036c2.216-6.652,4.442-8.474,10.353-8.474h30.667c5.911,0,8.137,1.822,10.299,8.288
	l2.556,10.222c0.284,1.137,1.306,1.935,2.479,1.935h23c5.638,0,10.222,4.585,10.222,10.222V99.667z" />
<path d="M69,31c-18.196,0-33,14.804-33,33s14.804,33,33,33s33-14.804,33-33S87.196,31,69,31z M69,36.077
	c6.8,0,13.037,2.446,17.886,6.502L47.578,81.886C43.523,77.037,41.077,70.8,41.077,64C41.077,48.604,53.604,36.077,69,36.077z
	 M69,91.923c-6.8,0-13.038-2.446-17.886-6.502l39.307-39.307C94.477,50.962,96.923,57.2,96.923,64
	C96.923,79.396,84.396,91.923,69,91.923z" />
</symbol><symbol viewBox="0 0 6 11" id="sp-resize">
<path d="M6,4H0l3-4L6,4z" />
<polygon points="0,7 6,7 3,11 " />
</symbol><symbol viewBox="0 0 14 14" id="sp-search"><path d="M13.7 12.3l-2.8-2.8A6.087 6.087 0 0 0 12 6c0-3.317-2.685-6-6-6S0 2.683 0 6s2.685 6 6 6a6.044 6.044 0 0 0 3.5-1.1l2.8 2.8c.181.181.424.3.7.3a1 1 0 0 0 1-1 .987.987 0 0 0-.3-.7zM6 10.5A4.503 4.503 0 0 1 1.5 6c0-2.484 2.018-4.5 4.5-4.5s4.5 2.016 4.5 4.5-2.018 4.5-4.5 4.5z" /></symbol><symbol viewBox="0 0 10 6" id="sp-select_arrow">
<polygon points="5,6 0,1.5 1.4,0 5,3.4 8.6,0 10,1.5 " />
</symbol><symbol viewBox="0 0 20 20" preserveAspectRatio="xMidYMid" id="sp-vimeo-play"><polygon points="1,0 20,10 1,20" /></symbol></defs></svg>