<svg xmlns="http://www.w3.org/2000/svg" class="hidden sprite-custom"><symbol id="templates/_global/defaultList/1" viewBox="0 0 24 24"><path d="M21.9,18.5l-6.3-6.3l-3.5,2.9L8.3,12L2,18.2l-0.6-0.6l6.1-6.1L1.4,6.5L2,5.8l10,8.1l9.6-8.1l0.6,0.7l-6,5l6.3,6.3L21.9,18.5
	z M0,4.4v15.2h24V4.4H0z"></path></symbol><symbol id="templates/_global/defaultList/10" viewBox="0 0 24 24"><path d="M4.8,2.4h14.4v16.8H4.8V2.4z M12,22.8c-0.7,0-1.2-0.5-1.2-1.2c0-0.7,0.5-1.2,1.2-1.2c0.7,0,1.2,0.5,1.2,1.2
	C13.2,22.2,12.7,22.8,12,22.8z M19.2,24c1.3,0,2.4-1.1,2.4-2.4V2.4c0-1.3-1.1-2.4-2.4-2.4H4.8C3.5,0,2.4,1.1,2.4,2.4v19.2
	c0,1.3,1.1,2.4,2.4,2.4H19.2z"></path></symbol><symbol id="templates/_global/defaultList/11" viewBox="0 0 24 24"><path d="M16.6,19.7H7.4V3h9.1L16.6,19.7L16.6,19.7z M12,22.9c-0.4,0-0.8-0.4-0.8-0.8c0-0.4,0.4-0.8,0.8-0.8c0.4,0,0.8,0.4,0.8,0.8
	C12.8,22.5,12.4,22.9,12,22.9z M17,0H7C6.4,0,5.8,0.5,5.8,1.2v21.7C5.8,23.5,6.4,24,7,24h10c0.6,0,1.2-0.5,1.2-1.2V1.2
	C18.2,0.5,17.6,0,17,0z"></path></symbol><symbol id="templates/_global/defaultList/12" viewBox="0 0 24 24"><path d="M16.6,10.1c-1.4-1.7-2.9-3.4-4.3-5.1c-0.1-0.1-0.2-0.2-0.3-0.2c-0.1,0-0.2,0-0.3,0.2c-1.4,1.7-2.9,3.4-4.3,5.1
	c-0.3,0.3-0.1,0.8,0.3,0.8c0.6,0,1.2,0,1.8,0c0,2.6,0,5.2,0,7.8c0,0.3,0.2,0.5,0.5,0.5c1.3,0,2.7,0,4,0c0.3,0,0.5-0.2,0.5-0.5
	c0-2.6,0-5.2,0-7.8c0.6,0,1.2,0,1.8,0C16.7,10.9,16.9,10.4,16.6,10.1z"></path>
<path d="M12,22.1C6.4,22.1,1.9,17.6,1.9,12C1.9,6.4,6.4,1.9,12,1.9c5.6,0,10.1,4.5,10.1,10.1C22.1,17.6,17.6,22.1,12,22.1z M12,0
	C5.4,0,0,5.4,0,12s5.4,12,12,12s12-5.4,12-12S18.6,0,12,0z"></path></symbol><symbol id="templates/_global/defaultList/13" viewBox="0 0 24 24"><polygon points="24,9 15,9 15,0 9,0 9,9 0,9 0,15 9,15 9,24 15,24 15,15 24,15 "></polygon></symbol><symbol id="templates/_global/defaultList/14" viewBox="0 0 24 24"><rect x="9" transform="matrix(-1.836970e-16 1 -1 -1.836970e-16 24 1.776357e-15)" width="6" height="24"></rect></symbol><symbol id="templates/_global/defaultList/15" viewBox="0 0 24 24"><path d="M15.2,16.9c-0.3,0-0.6-0.1-0.9-0.3c-2.7-1.6-5-3.8-6.6-6.5c-0.3-0.5-0.6-1-0.5-1.5c0.2-1,1.5-1.4,1.8-2.4
	C9.5,5.4,9,4.5,8.5,3.8c-0.9-1.2-2-2.2-3.3-3C4.6,0.4,3.9,0.1,3.2,0C0-0.2-0.2,5.2,0.2,7.3c0.5,2.2,1.5,4.2,2.8,6.1
	c3,4.4,7.2,8.1,12.2,9.9c1.8,0.6,3.7,1,5.5,0.6c0.9-0.2,1.8-0.6,2.4-1.3c0.6-0.7,1-1.6,0.8-2.5c-0.2-0.9-0.8-1.7-1.4-2.4
	c-0.9-1-2-1.8-3.1-2.6c-0.2-0.1-0.4-0.3-0.7-0.3c-0.3,0-0.5,0.1-0.7,0.2c-0.7,0.4-1.3,0.8-1.8,1.3C15.9,16.6,15.6,16.8,15.2,16.9
	C15.3,16.9,15.3,16.9,15.2,16.9z"></path></symbol><symbol id="templates/_global/defaultList/16" viewBox="0 0 24 24"><path d="M12,2C6.5,2,2,6.5,2,12s4.5,10,10,10s10-4.5,10-10S17.5,2,12,2z M12,24C5.4,24,0,18.6,0,12S5.4,0,12,0s12,5.4,12,12
	S18.6,24,12,24z"></path>
<path d="M15.4,11H13V8.6c0-0.6-0.5-1-1-1s-1,0.5-1,1V11H8.6c-0.6,0-1,0.5-1,1s0.5,1,1,1H11v2.3c0,0.6,0.5,1,1,1s1-0.5,1-1V13h2.3
	c0.6,0,1-0.5,1-1S15.9,11,15.4,11z"></path></symbol><symbol id="templates/_global/defaultList/17" viewBox="0 0 24 24"><path d="M15.7,8.3c-0.3-0.3-0.8-0.3-1,0L12,11L9.4,8.3C9.1,8,8.6,8,8.3,8.3C8,8.6,8,9.1,8.3,9.4L11,12l-2.6,2.6
	c-0.3,0.3-0.3,0.8,0,1c0.3,0.3,0.8,0.3,1,0L12,13l2.6,2.6c0.3,0.3,0.8,0.3,1,0c0.3-0.3,0.3-0.8,0-1L13,12l2.6-2.6
	C16,9.1,16,8.6,15.7,8.3z"></path>
<path d="M12,2C6.5,2,2,6.5,2,12s4.5,10,10,10s10-4.5,10-10S17.5,2,12,2z M12,24C5.4,24,0,18.6,0,12S5.4,0,12,0s12,5.4,12,12
	S18.6,24,12,24z"></path></symbol><symbol id="templates/_global/defaultList/18" viewBox="0 0 24 24"><path d="M19.2,20.4c2.7,0,4.8-2.1,4.8-4.8c0-2.3-1.6-4.2-3.7-4.7c0.1-0.3,0.1-0.7,0.1-1c0-2.5-2-4.5-4.5-4.5c-0.7,0-1.4,0.2-1.9,0.4
	c-1.2-1.4-3-2.2-5-2.2c-3.6,0-6.6,3-6.6,6.6c0,0.1,0,0.2,0,0.3C1,11.5,0,13.1,0,15c0,3,2.4,5.4,5.4,5.4H19.2z"></path></symbol><symbol id="templates/_global/defaultList/19" viewBox="0 0 24 24"><path fill-rule="evenodd" clip-rule="evenodd" d="M12,21c5,0,9-4,9-9s-4-9-9-9s-9,4-9,9S7,21,12,21z M12,24c6.6,0,12-5.4,12-12
	S18.6,0,12,0S0,5.4,0,12S5.4,24,12,24z M13.5,12V7.5C13.5,6.7,12.8,6,12,6c-0.8,0-1.5,0.7-1.5,1.5v6c0,0.4,0.2,0.8,0.4,1
	c0.3,0.3,0.6,0.4,1.1,0.4h4.5c0.8,0,1.5-0.7,1.5-1.5c0-0.8-0.7-1.5-1.5-1.5H13.5z"></path></symbol><symbol id="templates/_global/defaultList/2" viewBox="0 0 24 24"><path d="M12,14.2c-2.9,0-5.2-2.3-5.2-5.2S9.1,3.8,12,3.8s5.2,2.3,5.2,5.2S14.9,14.2,12,14.2z M21,8.3c-0.3-4.4-3.9-8-8.4-8.3
	C7.4-0.3,3,3.8,3,9.1c0,1.9,0.6,3.6,1.5,5c1.2,1.7,4.5,6.6,6.3,9.3c0.6,0.8,1.8,0.8,2.3,0c1.8-2.6,5.2-7.5,6.3-9.3
	C20.6,12.5,21.2,10.5,21,8.3z"></path></symbol><symbol id="templates/_global/defaultList/20" viewBox="0 0 24 24"><path d="M17.5,17.8c-0.7,1.8-1.7,3.3-3,4.7c2.3-0.6,4.1-1.7,5.6-3.4C19.2,18.7,18.4,18.3,17.5,17.8z M6.5,17.8
	c-0.9,0.5-1.7,0.9-2.6,1.4c1.6,1.7,3.4,2.8,5.6,3.4C8.2,21.1,7.2,19.6,6.5,17.8z M3.9,4.8c0.9,0.5,1.7,0.9,2.6,1.4
	c0.8-1.8,1.8-3.3,3.1-4.7C7.3,2,5.5,3.1,3.9,4.8z M14.4,1.5c1.3,1.4,2.3,2.9,3.1,4.7c0.9-0.5,1.7-0.9,2.6-1.4
	C18.5,3.1,16.7,2,14.4,1.5z M16.4,6.5c-0.9-2-2.1-3.7-3.8-5.1c0,2,0,3.9,0,5.8C13.9,7.2,15.1,6.9,16.4,6.5z M11.4,1.4
	C9.7,2.9,8.5,4.5,7.6,6.5c1.2,0.4,2.5,0.6,3.8,0.6C11.4,5.3,11.4,3.4,11.4,1.4z M12.6,16.8c0,2,0,3.9,0,5.9c1.7-1.5,2.9-3.2,3.8-5.2
	C15.1,17.1,13.9,16.8,12.6,16.8z M11.4,22.7c0-2,0-3.9,0-5.9c-1.3,0-2.6,0.3-3.8,0.7C8.5,19.5,9.7,21.2,11.4,22.7z M6.5,11.4
	c1.6,0,3.2,0,4.9,0c0-1,0-2,0-2.9C10,8.2,8.6,8,7.2,7.7C6.8,8.9,6.6,10.1,6.5,11.4z M16.8,7.7C15.4,8,14,8.2,12.6,8.5
	c0,0.9,0,1.9,0,2.9c1.6,0,3.2,0,4.8,0C17.5,10.6,17.1,8.3,16.8,7.7z M11.4,12.6c-1.6,0-3.2,0-4.9,0c0,1.3,0.3,2.5,0.6,3.7
	c1.4-0.2,2.8-0.5,4.2-0.7C11.4,14.6,11.4,13.6,11.4,12.6z M17.5,12.6c-1.6,0-3.3,0-4.9,0c0,1,0,2,0,2.9c1.4,0.2,2.8,0.5,4.2,0.7
	C17.2,15.1,17.4,13.9,17.5,12.6z M18.6,12.6c-0.1,1.4-0.3,2.8-0.7,4.1c1,0.5,1.9,1,2.9,1.5c1-1,2-3.9,2-5.6
	C21.4,12.6,20,12.6,18.6,12.6z M6.1,16.7c-0.4-1.3-0.6-2.7-0.7-4.1c-1.4,0-2.8,0-4.2,0c0.1,2.1,0.8,4,2,5.6
	C4.1,17.7,5.1,17.2,6.1,16.7z M20.8,5.8c-1,0.5-1.9,0.9-2.8,1.4c-0.1,0-0.1,0.2-0.1,0.3c0.2,0.9,0.4,1.7,0.5,2.6
	c0.1,0.4,0.1,0.9,0.2,1.3c1.4,0,2.8,0,4.1,0C22.8,9.6,21.8,6.8,20.8,5.8z M1.2,11.4c1.4,0,2.8,0,4.2,0c0-0.1,0-0.1,0-0.1
	c0.1-1.3,0.3-2.6,0.7-3.8C6.1,7.2,6,7.2,5.9,7.1C5.1,6.7,4.2,6.3,3.4,5.8c-0.1,0-0.1-0.1-0.2-0.1C2,7.4,1.3,9.3,1.2,11.4z M0,12.8
	c0-0.5,0-1,0-1.5c0-0.1,0-0.2,0-0.3c0.1-1.2,0.4-2.4,0.8-3.5c1.7-3.9,4.6-6.4,8.8-7.3c0.5-0.1,1-0.2,1.5-0.2c0.5,0,1.1,0,1.6,0
	c0.5,0.1,1.1,0.1,1.6,0.3c6.5,1.3,10.7,7.8,9.3,14.2c-1.4,6.5-7.7,10.7-14.2,9.3c-4.9-1.1-8-4.2-9.3-9.1C0.1,14,0.1,13.4,0,12.8z"></path></symbol><symbol id="templates/_global/defaultList/21" viewBox="0 0 24 24"><path d="M13,20c-0.1-0.5-0.2-1.1-0.4-1.6c-0.9-2.4-3.5-0.2-4.4-3.1c0.9-0.6,1.6-1.7,2-3c0,0,0,0,0,0c0.3,0.1,0.7-0.5,0.8-1.2
	c0.1-0.7-0.1-1.4-0.4-1.4c0,0-0.1,0-0.1,0c0-0.5-0.1-1-0.3-1.5c0.1-0.2,0.1-0.5,0.1-0.8c0-1-1-3.1-3.6-3.3C5.2,3.8,3.5,4.8,3.5,5.9
	c0,0.1,0,0.2,0,0.3c-0.1,0-0.1-0.1-0.2-0.1C3,6,2.6,6.7,2.4,7.6C2.3,8.3,2.4,9,2.6,9.4c0,0.1,0,0.2,0,0.2c-0.1,0-0.1,0-0.2,0
	C2.1,9.7,1.9,10.3,2,11.1c0.1,0.7,0.5,1.3,0.8,1.2c0,0,0.1,0,0.1,0c0.4,1.2,1.1,2.2,1.9,2.9c-0.9,3.1-3.6,0.8-4.4,3.3
	C0.2,18.9,0.1,19.5,0,20H13z"></path>
<path d="M12.3,16.4c0.5,0.2,1,0.7,1.3,1.8c0.2,0.6,0.3,1.3,0.4,1.9h10c0-0.8-0.1-1.6-0.4-2.5c-0.8-2.2-3.1-0.5-4.1-2.5
	c0.7-0.6,1.3-1.6,1.7-2.7c0,0,0,0,0,0c0.3,0.1,0.7-0.5,0.8-1.2c0.1-0.7-0.1-1.4-0.4-1.4c0,0-0.1,0-0.1,0c0-0.1,0-0.2,0-0.3
	c0-0.3,0-0.7,0-1.2c0-0.2,0-0.3-0.1-0.5c-0.1-0.3-0.2-0.6-0.2-1c-0.1-0.8,0-1.4,0-1.8l0,0c0,0,0-0.1,0.1-0.1l0.1-0.2
	c-0.2,0.2-0.9,0.2-1.7,0.1c-0.1,0-0.1,0-0.2,0c-0.6-0.2-1.3-0.3-2-0.3c-1.9,0-3.1,0.6-3.4,1.4c-0.2,0.4-0.3,0.7-0.3,1
	c-0.1,0.3-0.2,0.6-0.2,0.9c-0.1,0.5-0.1,1.1,0,1.5c0,0.1,0,0.2,0,0.3c-0.1,0-0.1,0-0.2,0c-0.3,0.1-0.5,0.7-0.4,1.4
	c0.1,0.7,0.5,1.3,0.8,1.2c0,0,0.1,0,0.1,0c0.4,1.1,0.9,2,1.7,2.7C14.7,16.4,13.3,16,12.3,16.4z"></path></symbol><symbol id="templates/_global/defaultList/22" viewBox="0 0 24 24"><path fill-rule="evenodd" clip-rule="evenodd" d="M22.4,12.2c0,1-1,1.1-1.1,1.5c-0.1,0.5,0.6,0.7,0.6,1.6c0,0.9-1.1,0.9-1.3,1.4
	c-0.2,0.6,0.4,0.7,0.4,1.7c0,0.1,0,0.1,0,0.2c-0.2,0.8-1.3,0.8-1.5,1.1c-0.2,0.3,0,0.6,0,1.3c0,0.4-0.5,0.8-1.1,0.8h-7.1
	c-0.6,0-1.2-0.3-1.9-0.7c-0.6-0.3-1.2-0.6-1.8-0.7v-8c1.9-1.4,4.3-3.5,5.2-6.1c0,0,0-0.1,0-0.1l0.7-3.8c0.2-0.1,0.4-0.1,0.8-0.1
	C14.4,2.2,15,3.1,15,6c0,1.1-0.2,2.4-0.6,3.8h-0.2c-0.4,0-0.7,0.3-0.7,0.7c0,0.4,0.3,0.8,0.7,0.8H21C21.7,11.2,22.4,11.6,22.4,12.2z
	 M24,12.2c0-1.6-1.2-2.4-3-2.4h-5c0.4-1.4,0.5-2.6,0.5-3.8c0-4.3-1.2-5.3-2.3-5.3c-0.7,0-1.2,0.1-1.9,0.5c-0.2,0.1-0.3,0.3-0.4,0.5
	l-0.7,4.1c-0.8,2.1-2.9,4-4.5,5.3v10.7c0.6,0,1.2,0.3,1.9,0.7c0.8,0.4,1.7,0.8,2.6,0.8h7.1c1.5,0,2.6-1.2,2.6-2.3
	c0-0.2,0-0.4-0.1-0.6c0.9-0.3,1.6-1.1,1.6-2.1c0-0.4-0.1-0.8-0.2-1.2c0.6-0.4,1.1-1.1,1.1-1.8c0-0.4-0.2-0.9-0.5-1.3
	C23.6,13.6,24,12.9,24,12.2z"></path>
<path fill-rule="evenodd" clip-rule="evenodd" d="M1.5,11.2v10.5H6l0-10.5H1.5z M6,23.3H1.5c-0.8,0-1.5-0.7-1.5-1.5V11.2
	c0-0.8,0.7-1.5,1.5-1.5H6c0.8,0,1.5,0.7,1.5,1.5v10.5C7.5,22.6,6.8,23.3,6,23.3z"></path></symbol><symbol id="templates/_global/defaultList/23" viewBox="0 0 24 24"><path fill-rule="evenodd" clip-rule="evenodd" d="M11.2,0.1c3.9-0.5,6.7,2.2,6.3,6.6c-0.1,1.2-0.6,2.7-1.2,3.8
	c-0.6,1-1.9,2.1-1.6,3.4c0.2,0.8,2.1,1.3,2.7,1.6c1.7,0.7,4.1,1.9,4.7,3.6c0.2,0.5,0.3,1.6,0,2.3c-1,2.5-6.8,2.6-10.1,2.6
	c-1.8,0-4,0-6-0.4c-2.3-0.4-5-1.3-4.2-4.3c0.4-1.4,2-2.4,3.5-3.2c0.4-0.2,1.4-0.8,2.2-1.1c0.7-0.3,1.7-0.6,1.8-1.5
	c0.1-0.8-0.4-1.2-0.9-1.9C7.4,10.1,6.3,8,6.5,5.2C6.7,2.5,8.4,0.4,11.2,0.1z"></path></symbol><symbol id="templates/_global/defaultList/24" viewBox="0 0 24 24"><path d="M21,6.8h-3v1.5h3V6.8z M17.2,12.8c0-2.9-2.4-5.2-5.2-5.2s-5.2,2.4-5.2,5.2S9.1,18,12,18S17.2,15.6,17.2,12.8z M24,6.8v12
	c0,0.8-0.7,1.5-1.5,1.5h-21c-0.8,0-1.5-0.7-1.5-1.5v-12c0-0.8,0.7-1.5,1.5-1.5H3c0-0.8,0.7-1.5,1.5-1.5H6c0.8,0,1.5,0.7,1.5,1.5h15
	C23.3,5.2,24,5.9,24,6.8z M15.8,12.8c0,2.1-1.7,3.7-3.8,3.7s-3.8-1.7-3.8-3.7C8.2,10.7,9.9,9,12,9S15.8,10.7,15.8,12.8z"></path></symbol><symbol id="templates/_global/defaultList/25" viewBox="0 0 24 24"><path d="M23.7,5.1l-2.4-2.4c-0.3-0.3-0.9-0.3-1.2,0L8.1,14.6l-4.2-4.2C3.6,10,3,10,2.7,10.4l-2.4,2.4c-0.3,0.3-0.3,0.9,0,1.2l7,7
	c0.2,0.2,0.6,0.6,0.9,0.6c0.3,0,0.7-0.3,0.9-0.6L23.7,6.3C24.1,6,24.1,5.4,23.7,5.1z"></path></symbol><symbol id="templates/_global/defaultList/26" viewBox="0 0 24 24"><path d="M10.1,17.5L4.6,12l2.1-2.1l3.4,3.4l7.2-7.2l2.1,2.1L10.1,17.5z M12,0C5.4,0,0,5.4,0,12s5.4,12,12,12s12-5.4,12-12
	S18.6,0,12,0z"></path></symbol><symbol id="templates/_global/defaultList/27" viewBox="0 0 60 4"><path d="M0 0h60v4H0z"></path></symbol><symbol id="templates/_global/defaultList/3" viewBox="0 0 24 24"><path d="M12.7,1L16,7.6l7.3,1.1c0.7,0.1,0.9,0.9,0.5,1.4l-5.3,5.2l1.2,7.3c0.1,0.7-0.6,1.2-1.2,0.9L12,19.9l-6.5,3.4
	c-0.6,0.3-1.3-0.2-1.2-0.9l1.2-7.3l-5.3-5.2C-0.2,9.6,0,8.8,0.7,8.7L8,7.6L11.3,1C11.6,0.4,12.4,0.4,12.7,1z"></path></symbol><symbol id="templates/_global/defaultList/4" viewBox="0 0 24 24"><path d="M6.3,21l5.3-3.2c0.3-0.2,0.6-0.2,0.8,0l5.3,3.2l-1.4-6c-0.1-0.3,0-0.6,0.3-0.8l4.7-4.1l-6.2-0.5c-0.3,0-0.5-0.2-0.7-0.5
	L12,3.4L9.6,9.1C9.5,9.4,9.2,9.5,8.9,9.6l-6.2,0.5l4.7,4.1c0.2,0.2,0.3,0.5,0.3,0.8L6.3,21L6.3,21z M18.9,23.4L18.9,23.4
	c-0.1,0-0.3,0-0.4-0.1L12,19.4l-6.5,3.9c-0.6,0.4-1.3-0.2-1.2-0.9L6,15.1l-5.7-5C-0.3,9.6,0,8.7,0.7,8.7L8.3,8l3-7
	c0.3-0.6,1.2-0.6,1.5,0l3,7l7.6,0.7c0.7,0.1,1,0.9,0.5,1.4l-5.7,5l1.7,7.4C19.8,23,19.4,23.5,18.9,23.4z"></path></symbol><symbol id="templates/_global/defaultList/5" viewBox="0 0 24 24"><path d="M21,0.8c-0.2-0.2-0.5-0.2-0.8-0.1L20,0.8c-2.1,0.8-4.4,0.8-6.5-0.1c-2.4-1-5.2-1-7.7-0.1L5.7,0.8C5.3,0.9,5.1,1.2,5.1,1.5
	v9.6c0,0.3,0.1,0.5,0.4,0.7C5.7,12,6,12,6.3,11.9l0.2-0.1c2.1-0.8,4.4-0.8,6.5,0.1c1.3,0.5,2.6,0.8,3.9,0.8c1.3,0,2.5-0.2,3.8-0.7
	l0.2-0.1c0.3-0.1,0.5-0.4,0.5-0.8V1.5C21.4,1.3,21.2,1,21,0.8z"></path>
<path d="M2.6,1.5v21.7C2.6,23.6,3,24,3.4,24c0.5,0,0.8-0.4,0.8-0.8V1.5c0-0.5-0.4-0.8-0.8-0.8C3,0.6,2.6,1,2.6,1.5z"></path></symbol><symbol id="templates/_global/defaultList/6" viewBox="0 0 24 24"><path fill-rule="evenodd" clip-rule="evenodd" d="M12,5.1l-1.7-1.7C8,1,4.1,1,1.8,3.4c-2.4,2.4-2.4,6.3,0,8.6l5.9,6l4.3,4.3
	l10.2-10.3c2.4-2.4,2.4-6.3,0-8.6C19.9,1,16,1,13.7,3.4L12,5.1z"></path></symbol><symbol id="templates/_global/defaultList/7" viewBox="0 0 24 24"><path d="M18,3.6C19,3.6,20,4,20.8,4.8l0,0l0,0C21.6,5.6,22,6.5,22,7.6c0,1.1-0.4,2.2-1.2,3L12,19.5l-8.8-8.9l0,0l0,0
	C2.4,9.8,2,8.8,2,7.8c0-1.1,0.4-2.2,1.2-3C4,4,5,3.6,6.1,3.6S8.1,4,8.9,4.8l1.7,1.7L12,7.9l1.4-1.4l1.7-1.7C15.9,4,16.9,3.6,18,3.6
	 M18,1.6c-1.6,0-3.1,0.6-4.3,1.8L12,5.1l-1.7-1.7C9.1,2.2,7.6,1.6,6.1,1.6S3,2.2,1.8,3.4c-2.4,2.4-2.4,6.3,0,8.6L12,22.3L22.2,12
	c2.4-2.4,2.4-6.3,0-8.6C21,2.2,19.5,1.6,18,1.6L18,1.6z"></path></symbol><symbol id="templates/_global/defaultList/8" viewBox="0 0 24 24"><path d="M21.8,5.8L8.6,14.3L6.4,18l0-4.7L21.8,5.8z M0,9.4l5.5,4.2l0,6l4.4-2.9l-1.5-1.5l6,4.3L24,4.4L0,9.4z"></path></symbol><symbol id="templates/_global/defaultList/9" viewBox="0 0 24 24"><path d="M20.5,15.2V5.9c0-0.3-0.2-0.5-0.5-0.5H3.8c-0.3,0-0.5,0.2-0.5,0.5v9.2c0,0.3,0.2,0.5,0.5,0.5h16.3
	C20.4,15.6,20.5,15.4,20.5,15.2z M22.5,15.3c0,1.2-1,2.2-2.2,2.2H3.8c-1.2,0-2.2-1-2.2-2.2V5.9c0-1.2,1-2.2,2.2-2.2h16.5
	c1.2,0,2.2,1,2.2,2.2V15.3z"></path>
<path d="M24,19c0,0.7-0.6,1.2-1.2,1.2H1.2C0.6,20.3,0,19.7,0,19v-0.9h24V19z"></path></symbol><symbol id="templates/_global/social/20/behance" viewBox="0 0 20 20"><path d="M16.99,7h-4V6h4V7z M9.504,11.04c0.326,0.492,0.486,1.078,0.486,1.766c0,0.558-0.104,1.038-0.313,1.442
	c-0.21,0.409-0.497,0.741-0.85,0.997c-0.356,0.258-0.765,0.447-1.222,0.57C7.151,15.938,6.681,16,6.2,16H1V5h5.057
	c0.514,0,0.978,0.046,1.402,0.14c0.422,0.091,0.782,0.244,1.086,0.453c0.299,0.21,0.533,0.488,0.702,0.84
	c0.164,0.345,0.246,0.778,0.246,1.29c0,0.554-0.123,1.016-0.368,1.386c-0.248,0.369-0.612,0.672-1.098,0.908
	C8.689,10.211,9.179,10.553,9.504,11.04z M5.79,9.4c0.419,0,0.728-0.057,1.003-0.265C7.065,8.933,7.19,8.561,7.19,8.1
	c0-0.256-0.037-0.436-0.125-0.6C6.974,7.336,6.853,7.211,6.7,7.121C6.549,7.028,6.378,6.963,6.179,6.928
	C5.985,6.889,5.78,6.874,5.571,6.874H3.357L3.39,9.4H5.79z M7.629,12.672c0-0.567-0.156-0.969-0.466-1.214
	C6.853,11.217,6.439,11.1,5.929,11.1H3.39v3h2.5c0.233,0,0.447,0.006,0.656-0.042c0.211-0.048,0.399-0.123,0.557-0.234
	c0.159-0.106,0.29-0.253,0.385-0.439C7.583,13.201,7.629,12.962,7.629,12.672z M18.976,12.511h-5.778c0,0.6,0.214,1.169,0.545,1.473
	c0.329,0.305,0.801,0.457,1.417,0.457c0.444,0,0.808-0.128,1.13-0.34c0.319-0.211,0.525-0.415,0.6-0.65h1.95
	c-0.311,0.914-0.786,1.566-1.43,1.959C16.773,15.803,15.995,16,15.09,16c-0.631,0-1.197-0.096-1.706-0.288
	c-0.51-0.193-0.935-0.463-1.293-0.815c-0.349-0.355-0.62-0.774-0.813-1.265c-0.191-0.49-0.288-1.045-0.288-1.632
	c0-0.568,0.1-1.083,0.296-1.573c0.199-0.491,0.475-0.915,0.839-1.272c0.363-0.357,0.795-0.64,1.297-0.846
	C13.924,8.103,14.478,8,15.091,8c0.677,0,1.271,0.124,1.779,0.375c0.507,0.248,0.923,0.585,1.249,1.006
	c0.326,0.42,0.559,0.901,0.704,1.44C18.967,11.359,19.017,11.922,18.976,12.511z M16.777,11.197c-0.053-0.53-0.245-0.924-0.507-1.2
	c-0.261-0.274-0.704-0.423-1.244-0.423c-0.352,0-0.642,0.056-0.875,0.17c-0.228,0.113-0.414,0.253-0.557,0.418
	c-0.142,0.168-0.239,0.345-0.295,0.535c-0.056,0.185-0.09,0.352-0.1,0.5H16.777z"></path></symbol><symbol id="templates/_global/social/20/blogger" viewBox="0 0 20 20"><path d="M14.2,8.6c0-0.7,0-1.4,0-2.1c0-2.089-2.1-3.5-3.5-3.5H7.2C4.759,3,3,4.768,3,7.2v5.6C3,15.227,4.759,17,7.2,17h5.6
	c2.44,0,4.185-1.772,4.2-4.2c0,0,0-0.7,0-1.4C17,9.3,16.3,8.6,14.2,8.6z M7.5,6.5h3c0.552,0,1,0.448,1,1s-0.448,1-1,1h-3
	c-0.552,0-1-0.448-1-1S6.948,6.5,7.5,6.5z M12.484,13.447h-5c-0.552,0-1-0.448-1-1s0.448-1,1-1h5c0.552,0,1,0.448,1,1
	S13.037,13.447,12.484,13.447z"></path></symbol><symbol id="templates/_global/social/20/copylink" viewBox="0 0 20 20"><path d="M8.589,12.446c-0.257,0-0.493-0.08-0.682-0.233C7.088,11.34,6.652,10.149,6.69,8.871c0.041-1.347,0.613-2.638,1.571-3.542
	l1.857-1.977C11.001,2.468,12.13,2,13.383,2c1.212,0,2.343,0.43,3.272,1.244c0.891,0.951,1.384,2.254,1.343,3.568
	c-0.038,1.211-0.515,2.307-1.344,3.086l-1.496,1.599c0.025-0.701-0.125-1.462-0.469-2.402l0.635-0.638
	c0.553-0.442,0.868-1.01,0.903-1.632c0.039-0.697-0.274-1.398-0.903-2.028c-0.535-0.537-1.167-0.82-1.825-0.82
	c-0.659,0-1.29,0.283-1.825,0.82L9.707,6.77C9.598,6.905,9.494,7.024,9.391,7.14C8.999,7.586,8.628,8.007,8.628,8.6
	c0,0.842,0.12,1.449,0.731,2.062c0.513,0.515,0.542,0.908,0.106,1.455C9.306,12.275,8.968,12.446,8.589,12.446z"></path>
<path d="M6.664,18c-1.277,0-2.327-0.393-3.303-1.239c-1.815-1.907-1.816-4.82,0.006-6.622l1.625-1.606
	c-0.021,0.621,0.099,1.45,0.365,2.515L4.708,11.69c-0.57,0.562-0.871,1.193-0.871,1.824c0,0.636,0.293,1.248,0.871,1.818
	c0.569,0.501,1.261,0.774,1.955,0.774s1.331-0.268,1.842-0.774l1.984-1.961c0.483-0.595,0.973-1.199,0.973-1.938
	c0-0.631-0.328-0.943-0.676-1.274c-0.133-0.127-0.273-0.26-0.404-0.422c-0.237-0.163-0.348-0.364-0.359-0.621
	c-0.017-0.396,0.224-0.885,0.573-1.162c0.118-0.115,0.234-0.167,0.365-0.167c0.238,0,0.531,0.17,0.868,0.504
	c1.893,1.989,1.989,4.67,0.231,6.516l-1.982,1.959C9.228,17.609,8.143,18,6.664,18z"></path></symbol><symbol id="templates/_global/social/20/deviantart" viewBox="0 0 20 20"><path d="M15,3h-2.7c-0.178,0-0.41,0.046-0.5,0.2l-1.3,2.4C10.357,5.846,10.085,6,9.8,6H5v4h2.4c0.232,0,0.316,0.2,0.2,0.4
	l-2.531,4.5C5.024,14.977,5,15.012,5,15.1V18h2.7c0.178,0,0.31-0.146,0.4-0.3l1.4-2.3c0.143-0.246,0.415-0.4,0.7-0.4H15v-4h-2.4
	c-0.232,0-0.416-0.3-0.3-0.5l2.6-4.4C14.945,6.023,15,5.938,15,5.85V3z"></path></symbol><symbol id="templates/_global/social/20/dribbble" viewBox="0 0 20 20"><path d="M9.5,3C5.358,3,2,6.358,2,10.5S5.358,18,9.5,18s7.5-3.358,7.5-7.5S13.642,3,9.5,3z M12.1,5.5
	c-0.681,0.43-1.376,0.749-2.1,1.1C9.717,6.01,9.378,5.463,9.046,4.899C10.083,4.815,11.173,5.03,12.1,5.5z M7.16,5.34
	C7.586,5.983,7.945,6.615,8.3,7.3C7.01,7.777,5.706,8.166,4.349,8.39C4.865,7.058,5.872,5.959,7.16,5.34z M4.812,13.547
	c-0.6-0.904-0.925-1.962-0.938-3.047c1.767-0.271,3.497-0.742,5.156-1.406C9.199,9.48,9.355,9.87,9.5,10.266
	C7.699,10.972,6.093,12.097,4.812,13.547z M6.1,15c1.051-1.228,2.408-2.278,3.9-2.9c0.28,1.311,0.368,2.66,0.4,4
	C8.855,16.328,7.32,15.976,6.1,15z M10.7,8.4c1.055-0.471,2.026-1.029,3-1.65c0.707,0.752,1.188,1.64,1.4,2.65
	c-1.3-0.09-2.578,0.077-3.84,0.4C11.08,9.325,10.911,8.862,10.7,8.4z M12.3,15.4c-0.087-1.303-0.297-2.529-0.6-3.8
	c1.112-0.266,2.262-0.411,3.4-0.3C14.851,13.03,13.824,14.544,12.3,15.4z"></path></symbol><symbol id="templates/_global/social/20/email" viewBox="0 0 20 20"><g>
	<path d="M10,12.7c-0.405,0-0.809-0.113-1.163-0.339L2,8v6.5C2,15.325,2.675,16,3.5,16h13c0.825,0,1.5-0.675,1.5-1.5V8l-6.839,4.362
		C10.809,12.587,10.405,12.7,10,12.7z"></path>
	<path d="M18,5.5C18,4.675,17.325,4,16.5,4h-13C2.675,4,2,4.675,2,5.5l8,5L18,5.5z"></path>
</g></symbol><symbol id="templates/_global/social/20/etsy" viewBox="0 0 20 20"><path d="M7.3,3.5c0-0.21,0.01-0.3,0.36-0.3h4.64c0.82,0,1.27,0.7,1.6,2l0.3,1H15C15.14,3.25,15.25,2,15.25,2S13.19,2.2,12,2.2H6
	L3,2.14V3l1,0.1c0.76,0.14,0.93,0.41,1,1.1c0,0,0,1.93,0,5.3s0,5.4,0,5.4c0,0.61-0.29,0.93-1.05,1.07L3,16v1l3-0.1h5.4
	c1.21,0,4.1,0.1,4.1,0.1c0.07-0.73,0.43-4.03,0.5-4.4h-0.75l-0.85,1.8C13.76,15.82,13.02,16,12,16H8.8c-1.02,0-1.5-0.53-1.5-1.4V10
	c0,0,2.36-0.07,3.1,0c0.57,0.04,0.81,0.2,1,1l0.3,1.1h0.8V9.5l0.1-2.8h-0.9l-0.3,1.2c-0.19,0.78-0.2,0.92-1,1C9.36,9,7.3,9,7.3,9
	V3.5z"></path></symbol><symbol id="templates/_global/social/20/facebook" viewBox="0 0 20 20"><path id="f" d="M11,18v-7.4h2.5L14,8h-3V6c0-0.822,0.413-1.4,1.549-1.4L14,4.7V2.1C13.75,2.063,13,2,12,2C9.907,2,8.4,3.565,8.4,6v2
	H6v2.6h2.4V18H11z"></path></symbol><symbol id="templates/_global/social/20/fbmessenger" viewBox="0 0 20 20"><path d="M10,2C5.582,2,2,5.306,2,9.385c0,2.362,1.207,4.433,3.077,5.785V18l2.588-1.538C8.404,16.67,9.187,16.769,10,16.769
	c4.418,0,8-3.306,8-7.385S14.418,2,10,2z M10.923,11.846L8.892,9.815l-4,2.154l4.369-4.554l1.969,2.092l4-2.154L10.923,11.846z"></path></symbol><symbol id="templates/_global/social/20/flickr" viewBox="0 0 20 20"><g>
	<circle cx="5.5" cy="10" r="3.5"></circle>
	<circle cx="14.5" cy="10" r="3.5"></circle>
</g></symbol><symbol id="templates/_global/social/20/github" viewBox="0 0 20 20"><g id="_x31__stroke_1_">
	<g id="Github_1_">
		<path id="Github" d="M9.999,2C5.582,2,2,5.669,2,10.2c0,3.624,2.292,6.701,5.471,7.786C7.872,18.061,8,17.808,8,17.59
			c0-0.195,0.004-0.706,0-1.39C5.774,16.696,5.3,15,5.3,15c-0.363-0.947-0.88-1.1-0.88-1.1c-0.727-0.509,0.06-0.5,0.06-0.5
			c0.803,0.058,1.22,0.84,1.22,0.84c0.714,1.254,1.844,0.89,2.3,0.68c0.073-0.53,0.311-0.915,0.54-1.12
			C6.763,13.593,4.9,12.913,4.9,9.77c0-0.896,0.288-1.626,0.8-2.2C5.618,7.362,5.362,6.529,5.797,5.4c0,0,0.672-0.221,2.2,0.84
			C8.636,6.058,9.32,6.004,10,6c0.679,0.004,1.361,0.058,2,0.24c1.527-1.061,2.2-0.84,2.2-0.84c0.436,1.129,0.162,1.963,0.08,2.17
			c0.513,0.574,0.82,1.304,0.82,2.2c0,3.151-1.868,3.827-3.65,4.03c0.287,0.253,0.544,0.775,0.544,1.54
			c0,1.097,0.006,1.981,0.006,2.25c0,0.219,0.124,0.471,0.53,0.39C15.706,16.893,18,13.823,18,10.2C18,5.669,14.418,2,9.999,2"></path>
	</g>
</g></symbol><symbol id="templates/_global/social/20/googleplus" viewBox="0 0 20 20"><path d="M16.92,9H10v2.5h4.2c-0.621,1.742-2.247,3-4.2,3c-2.481,0-4.5-2.019-4.5-4.5S7.519,5.5,10,5.5c1.242,0,2.389,0.481,3.2,1.3
	L15,5c-1.266-1.267-3.067-2-5-2c-3.866,0-7,3.134-7,7s3.134,7,7,7s7-3.134,7-7C17,9.66,16.967,9.327,16.92,9z"></path></symbol><symbol id="templates/_global/social/20/hackernews" viewBox="0 0 20 20"><path d="M2,2v16h16V2H2z M10.667,11.25V15H9.333v-3.75L6,5h1.333L10,10l2.667-5H14L10.667,11.25z"></path></symbol><symbol id="templates/_global/social/20/instagram" viewBox="0 0 20 20"><g>
	<g>
		<circle cx="13.5" cy="6.5" r="1"></circle>
	</g>
</g>
<g>
	<path d="M13,2H7C4.25,2,2,4.25,2,7v6c0,2.75,2.25,5,5,5h6c2.75,0,5-2.25,5-5V7C18,4.25,15.75,2,13,2z M16,13c0,1.654-1.346,3-3,3H7
		c-1.654,0-3-1.346-3-3V7c0-1.654,1.346-3,3-3h6c1.654,0,3,1.346,3,3V13z"></path>
	<path d="M10,7c-1.657,0-3,1.343-3,3s1.343,3,3,3s3-1.343,3-3S11.657,7,10,7z M10,11.5c-0.827,0-1.5-0.673-1.5-1.5S9.173,8.5,10,8.5
		s1.5,0.673,1.5,1.5S10.827,11.5,10,11.5z"></path>
</g></symbol><symbol id="templates/_global/social/20/linkedin" viewBox="0 0 20 20"><path d="M2,7h3.4v10H2V7z M3.7,2L3.7,2c0.939,0,1.7,0.761,1.7,1.7l0,0c0,0.939-0.761,1.7-1.7,1.7l0,0C2.761,5.4,2,4.639,2,3.7l0,0
	C2,2.761,2.761,2,3.7,2z M14,6.62c-1.82,0-2.545,0.991-3,1.68V7H7.6c0.045,0.95,0,10,0,10H11v-5.5c0-0.303,0.01-0.783,0.1-1
	c0.248-0.604,0.753-1.2,1.7-1.2c1.242,0,1.8,0.84,1.8,2.2V17H18v-5.8C18,8.091,16.257,6.62,14,6.62z"></path></symbol><symbol id="templates/_global/social/20/livejournal" viewBox="0 0 20 20"><path d="M6.7,2.7L5.5,1.5c-1.871,0.858-3.144,2.128-4,4l1.2,1.2C3.494,4.923,4.931,3.508,6.7,2.7z"></path>
<path d="M10,2C8.827,2,7.704,2.246,6.7,2.7L13,9c-1.887,0.828-3.183,2.104-4,4L2.7,6.7C2.246,7.704,2,8.827,2,10
	c0,4.418,3.582,8,8,8s8-3.582,8-8S14.418,2,10,2z M10.7,13.3c0.475-1.1,1.503-2.019,2.6-2.5L14,14L10.7,13.3z"></path></symbol><symbol id="templates/_global/social/20/myspace" viewBox="0 0 20 20"><path d="M2.5,12C1.1,12,0,13.1,0,14.5v1C0,15.8,0.2,16,0.5,16h4C4.8,16,5,15.8,5,15.5v-1C5,13.1,3.9,12,2.5,12z"></path>
<path d="M9,11.5c-1.7,0-3,1.3-3,3v1C6,15.8,6.2,16,6.5,16h5c0.3,0,0.5-0.2,0.5-0.5v-1C12,12.8,10.7,11.5,9,11.5z"></path>
<path d="M16.5,10.5c-1.9,0-3.5,1.6-3.5,3.5v1.5c0,0.3,0.2,0.5,0.5,0.5h6c0.3,0,0.5-0.2,0.5-0.5V14C20,12.1,18.4,10.5,16.5,10.5z"></path>
<circle cx="2.5" cy="9" r="2.3"></circle>
<circle cx="9" cy="8" r="2.8"></circle>
<circle cx="16.5" cy="7" r="3"></circle></symbol><symbol id="templates/_global/social/20/periscope" viewBox="0 0 20 20"><path d="M10,2C6.686,2,4,4.799,4,8.25C4,12.896,8.798,18,10,18s6-5.104,6-9.75C16,4.799,13.314,2,10,2z M10,12c-2.209,0-4-1.791-4-4
	c0-1.01,0.387-1.921,1.004-2.625C7.023,6.275,7.755,7,8.66,7c0.917,0,1.66-0.743,1.66-1.66c0-0.534-0.256-1.004-0.648-1.307
	C9.782,4.024,9.887,4,10,4c2.209,0,4,1.791,4,4S12.209,12,10,12z"></path></symbol><symbol id="templates/_global/social/20/pinterest" viewBox="0 0 20 20"><path d="M10,2c-4.418,0-8,3.581-8,8c0,3.276,1.981,6.063,4.8,7.3c-0.023-0.559-0.043-1.193,0.1-1.8c0.154-0.651,1.05-4.4,1.05-4.4
	S7.7,10.624,7.7,9.87c0-1.185,0.694-2.07,1.55-2.07c0.727,0,1.05,0.545,1.05,1.2c0,0.731-0.461,1.787-0.7,2.8
	c-0.201,0.848,0.465,1.6,1.3,1.6c1.516,0,2.5-1.993,2.5-4.3C13.4,7.347,12.148,6,10,6C7.573,6,6.15,7.879,6.15,9.9
	c0,0.697,0.208,1.169,0.53,1.55c0.148,0.175,0.174,0.249,0.12,0.45c-0.037,0.148-0.163,0.46-0.2,0.6
	c-0.054,0.203-0.216,0.316-0.4,0.24c-1.118-0.455-1.6-1.664-1.6-3.04c0-2.272,1.898-5,5.7-5c3.054,0,5.1,2.227,5.1,4.6
	c0,3.138-1.828,5.46-4.4,5.46c-0.864,0-1.623-0.471-1.9-1c0,0-0.503,1.885-0.6,2.24c-0.17,0.616-0.497,1.219-0.8,1.7
	C8.418,17.913,9.212,18,10,18c4.418,0,8-3.581,8-8S14.418,2,10,2z"></path></symbol><symbol id="templates/_global/social/20/pocket" viewBox="0 0 20 20"><path d="M16.667,2H3.333C2.597,2,2,2.597,2,3.333V8.4c0,4.418,3.582,8,8,8s8-3.582,8-8V3.333C18,2.597,17.403,2,16.667,2z M14.6,8
	l-3.933,3.667C10.467,11.857,10.257,12,10,12c-0.257,0-0.533-0.144-0.733-0.333L5.4,8C4.985,7.607,4.939,6.914,5.333,6.5
	c0.393-0.414,1.085-0.394,1.5,0L10,9.467L13.167,6.5c0.413-0.394,1.105-0.413,1.5,0C15.062,6.913,15.014,7.606,14.6,8z"></path></symbol><symbol id="templates/_global/social/20/print" viewBox="0 0 20 20"><rect x="5" y="13" width="10" height="5"></rect>
<rect x="5" y="3" width="10" height="2"></rect>
<path d="M17,6H3C2.45,6,2,6.45,2,7v7c0,0.55,0.45,1,1,1h1v-3h12v3h1c0.55,0,1-0.45,1-1V7C18,6.45,17.55,6,17,6z M17,8h-1V7h1V8z"></path></symbol><symbol id="templates/_global/social/20/qq" viewBox="0 0 20 20"><path d="M16.897,8.92c0.023-0.811-0.212-1.561-0.682-2.174C15.949,3.655,13.4,1.5,10.001,1.5c-3.401,0-5.95,2.156-6.216,5.25
	C3.316,7.366,3.081,8.114,3.104,8.921c-1.177,1.377-1.119,3.603-1.096,4.038c0.015,0.409,0.06,1.651,1.23,2.178
	c0.002,0.001,0.005,0.002,0.007,0.003c-0.044,0.186-0.066,0.376-0.066,0.567c0,0.84,0.374,2.792,3.84,2.792
	c1.006,0,2.138-0.318,2.98-0.831c0.839,0.513,1.972,0.831,2.98,0.831c3.465,0,3.84-1.953,3.84-2.792
	c0-0.189-0.023-0.379-0.066-0.567c0.002-0.001,0.005-0.002,0.007-0.003c1.164-0.524,1.213-1.743,1.229-2.147
	C18.023,12.37,18.039,10.257,16.897,8.92z M15.089,13.613c-0.018,0.345-0.15,0.709-0.38,1.055l-0.063,0.094l0.076,0.085
	c0.251,0.282,0.378,0.571,0.378,0.861c0,0.565-0.241,1.213-2.119,1.213c-1.115,0-2.386-0.571-2.667-1.199l-0.039-0.087H9.727
	l-0.039,0.087C9.406,16.35,8.134,16.92,7.021,16.92c-1.878,0-2.119-0.648-2.119-1.213c0-0.367,0.211-0.677,0.389-0.873l0.077-0.084
	l-0.063-0.096c-0.226-0.342-0.354-0.705-0.371-1.049l-0.01-0.207l-0.192,0.077c-0.042,0.017-0.096,0.051-0.161,0.092
	c-0.154,0.1-0.387,0.233-0.573,0.153c-0.245-0.109-0.262-0.6-0.267-0.784l-0.002-0.05c-0.006-0.106-0.124-2.588,1.1-3.299
	l0.094-0.055L4.897,9.425c-0.132-0.571-0.151-1.383,0.505-2c0.042-0.039,0.081-0.076,0.081-0.144c0-2.474,1.858-4.202,4.517-4.202
	c2.66,0,4.517,1.728,4.517,4.203c0,0.068,0.038,0.104,0.082,0.145c0.656,0.619,0.637,1.427,0.504,1.997L15.081,9.53l0.094,0.055
	c1.224,0.714,1.104,3.194,1.099,3.3l-0.003,0.052c-0.006,0.184-0.023,0.675-0.269,0.786c-0.164,0.075-0.408-0.051-0.559-0.15
	c-0.06-0.04-0.111-0.072-0.151-0.088l-0.192-0.08L15.089,13.613z"></path></symbol><symbol id="templates/_global/social/20/reddit" viewBox="0 0 20 20"><path d="M18.997,8.627V8.626h0.001V8.625c-0.042-0.508-0.256-0.977-0.575-1.347c-0.318-0.369-0.742-0.644-1.21-0.765V6.512
	c-0.002,0-0.005-0.001-0.008-0.001l-0.008-0.003h-0.001c-0.198-0.051-0.402-0.079-0.606-0.079c-0.46,0-0.919,0.131-1.306,0.394
	c-0.106,0.065-0.199,0.139-0.287,0.212c-0.041-0.022-0.086-0.047-0.11-0.062l-0.018-0.011h-0.002
	c-1.279-0.75-2.737-1.104-4.186-1.201c0.008-0.596,0.06-1.196,0.318-1.71V4.051c0.17-0.35,0.522-0.593,0.9-0.63h0.001
	c0.073-0.008,0.146-0.012,0.219-0.012c0.505-0.001,1.014,0.18,1.492,0.397c-0.001,0.026-0.003,0.053-0.003,0.079
	c0,0.539,0.226,1.038,0.576,1.412c0.349,0.374,0.825,0.626,1.334,0.666c0.083,0.011,0.166,0.016,0.249,0.016
	c0.514,0,1.015-0.207,1.401-0.551c0.384-0.342,0.656-0.822,0.701-1.369c0.001-0.001,0.001-0.003,0.001-0.004l0.001-0.001
	c0.009-0.078,0.013-0.156,0.013-0.234c0-0.423-0.134-0.835-0.362-1.178c-0.228-0.342-0.548-0.618-0.928-0.766
	c-0.001,0-0.003-0.001-0.005-0.002c0,0-0.001,0-0.001-0.001v0.001C16.322,1.752,16.04,1.7,15.76,1.7c-0.265,0-0.53,0.047-0.78,0.126
	l-0.004,0.001l-0.004,0.002c-0.426,0.172-0.79,0.478-1.045,0.87c-0.576-0.234-1.191-0.385-1.813-0.385
	c-0.233,0-0.469,0.021-0.702,0.068l-0.003,0.001l-0.003,0.001c-0.612,0.153-1.126,0.594-1.423,1.16
	C9.627,4.226,9.538,5.005,9.524,5.749c-1.473,0.088-2.984,0.39-4.283,1.175C5.156,6.957,5.08,6.999,5.011,7.036
	C4.796,6.862,4.556,6.737,4.313,6.633L4.312,6.632L4.311,6.631C4.027,6.52,3.728,6.471,3.43,6.471c-0.063,0-0.125,0.003-0.188,0.007
	c-0.008,0-0.017,0-0.025,0c-0.593,0-1.146,0.28-1.551,0.707C1.261,7.612,1,8.191,1,8.803v0.003v0.001V8.81
	c0.019,0.437,0.165,0.851,0.397,1.203c0.217,0.328,0.51,0.604,0.847,0.798c-0.023,0.177-0.035,0.356-0.035,0.535
	c0,0.791,0.222,1.577,0.625,2.248c0.75,1.257,1.973,2.115,3.257,2.655h0.001l0.001,0.001C7.331,16.756,8.658,17,9.986,17
	c0.891,0,1.782-0.109,2.646-0.323l0.001-0.001h0.001c1.62-0.421,3.225-1.258,4.27-2.675h0.001V14c0.565-0.757,0.89-1.7,0.89-2.661
	c0-0.178-0.013-0.357-0.035-0.535c0.347-0.193,0.648-0.478,0.866-0.819C18.859,9.622,19,9.194,19,8.747
	C19,8.707,18.999,8.668,18.997,8.627z M14.953,3.176c0.141-0.174,0.336-0.305,0.544-0.361L15.5,2.815h0.003
	c0.08-0.025,0.16-0.036,0.242-0.036c0.253-0.001,0.51,0.116,0.701,0.304c0.191,0.188,0.314,0.442,0.314,0.709
	c0,0.02-0.001,0.039-0.002,0.059v0.001l-0.001,0.001c-0.01,0.259-0.132,0.499-0.316,0.677c-0.184,0.176-0.429,0.284-0.676,0.284
	c-0.017,0-0.035,0-0.053-0.001h-0.003h-0.003c-0.244-0.001-0.485-0.111-0.667-0.287c-0.181-0.177-0.3-0.416-0.309-0.672V3.85V3.848
	c-0.002-0.021-0.002-0.042-0.002-0.061C14.726,3.564,14.812,3.35,14.953,3.176z M2.582,9.646C2.478,9.549,2.386,9.438,2.316,9.317
	c-0.095-0.163-0.15-0.342-0.15-0.528c0-0.024,0.001-0.047,0.003-0.072l0.001-0.003V8.712c0.011-0.3,0.154-0.574,0.369-0.775
	c0.215-0.202,0.503-0.329,0.786-0.337L3.33,7.598h0.005c0.033-0.003,0.066-0.006,0.1-0.006C3.632,7.592,3.832,7.657,4.026,7.75
	C3.433,8.273,2.914,8.904,2.582,9.646z M6,10.419c0-0.635,0.515-1.15,1.15-1.15c0.635,0,1.15,0.515,1.15,1.15
	c0,0.635-0.515,1.15-1.15,1.15C6.515,11.569,6,11.054,6,10.419z M13.333,13.481L13.333,13.481c-0.026,0.101-0.073,0.185-0.132,0.254
	c-0.058,0.069-0.126,0.122-0.196,0.168c-0.141,0.09-0.291,0.152-0.403,0.22l-0.004,0.002l-0.004,0.003
	c-0.854,0.414-1.812,0.642-2.765,0.642c-1.057,0.001-2.11-0.281-3.004-0.904c-0.091-0.05-0.16-0.126-0.206-0.213
	c-0.048-0.092-0.07-0.192-0.07-0.293c0-0.112,0.028-0.223,0.086-0.319c0.055-0.093,0.14-0.173,0.249-0.215H6.884
	c0.003-0.001,0.007-0.003,0.01-0.004c0.07-0.032,0.14-0.048,0.207-0.048c0.081,0,0.157,0.02,0.225,0.051
	c0.069,0.029,0.131,0.069,0.19,0.109c0.117,0.081,0.224,0.165,0.319,0.205l0.003,0.001l0.003,0.001
	c0.625,0.317,1.316,0.469,2.01,0.469c0.925,0,1.858-0.268,2.651-0.756c0.084-0.057,0.179-0.084,0.269-0.084
	c0.113,0,0.219,0.037,0.311,0.099c0.09,0.062,0.168,0.147,0.215,0.253c0.032,0.069,0.052,0.147,0.052,0.229
	C13.35,13.394,13.344,13.436,13.333,13.481z M12.75,11.569c-0.635,0-1.15-0.515-1.15-1.15c0-0.635,0.515-1.15,1.15-1.15
	s1.15,0.515,1.15,1.15C13.9,11.054,13.385,11.569,12.75,11.569z M17.695,9.302c-0.069,0.131-0.162,0.248-0.271,0.345
	c-0.337-0.745-0.859-1.378-1.454-1.906c0.187-0.096,0.398-0.144,0.61-0.144c0.235,0,0.468,0.058,0.667,0.173
	c0.199,0.114,0.366,0.282,0.471,0.503l0.001,0.002l0.002,0.002c0.079,0.149,0.115,0.309,0.115,0.469
	C17.837,8.938,17.786,9.131,17.695,9.302z"></path></symbol><symbol id="templates/_global/social/20/rss" viewBox="0 0 20 20"><g>
	<circle cx="4" cy="16" r="2"></circle>
	<path d="M2,8v3c4.043,0,7,2.957,7,7h3C12,12.109,7.891,8,2,8z"></path>
	<path d="M2,2v3c6.985,0,13,6.015,13,13h3C18,9.163,10.837,2,2,2z"></path>
</g></symbol><symbol id="templates/_global/social/20/skype" viewBox="0 0 20 20"><path id="Shape" d="M10.034,14.8c-2.6627,0-3.884-1.34-3.884-2.333c0-0.233,0.093-0.473,0.2661-0.633
	c0.173-0.16,0.4251-0.247,0.6642-0.233c1.1423,0,0.7902,1.733,2.9218,1.733c1.0893,0,1.7264-0.72,1.7264-1.333
	c0-0.367-0.179-0.767-0.8962-0.933l-2.3566-0.6C6.5621,9.987,6.217,8.98,6.217,8c0-2.033,1.8725-2.8,3.6519-2.8
	c1.6404,0,3.5849,0.913,3.5849,2.133c0,0.527-0.4451,0.8-0.9633,0.8c-0.9763,0-0.7972-1.333-2.7557-1.333
	c-0.9763,0-1.5274,0.433-1.5274,1.067s0.7972,0.853,1.4604,1l1.6594,0.4c1.9255,0.433,2.5227,1.527,2.5227,2.6
	C13.852,13.52,12.5637,14.8,10.034,14.8 M17.414,11.307c0.073-0.433,0.113-0.873,0.113-1.32c0.007-2.22-0.973-4.327-2.673-5.753
	S10.896,2.2,8.703,2.587C8.023,2.2,7.257,2,6.477,2c-1.6,0.007-3.073,0.86-3.873,2.24S1.797,7.313,2.591,8.693
	c-0.44,2.413,0.333,4.887,2.073,6.627s4.219,2.52,6.645,2.093C11.989,17.8,12.749,18,13.528,18c1.599-0.013,3.073-0.86,3.873-2.24
	C18.194,14.387,18.201,12.693,17.414,11.307"></path></symbol><symbol id="templates/_global/social/20/snapchat" viewBox="0 0 20 20"><path d="M9.998,3.303c1.699,0,2.589,0.946,2.779,1.164c0.394,0.456,0.725,0.972,0.814,2.012c0.065,0.756,0.009,1.566-0.018,1.981
	c-0.009,0.137,0.032,0.187,0.144,0.187c0.026,0,0.053-0.004,0.077-0.01c0.211-0.052,0.575-0.241,0.95-0.323
	c0.061-0.013,0.124-0.021,0.186-0.022c0.2,0,0.387,0.078,0.465,0.282c0.111,0.297-0.039,0.538-0.381,0.779
	c-0.206,0.146-0.951,0.612-1.119,0.769c-0.174,0.163-0.151,0.287-0.131,0.447c0.016,0.134,0.39,1.91,2.739,3.059
	c0.139,0.071,0.373,0.214-0.04,0.447c-0.648,0.363-1.079,0.323-1.413,0.542c-0.284,0.185-0.116,0.585-0.323,0.729
	c-0.254,0.177-1.006-0.012-1.976,0.312c-0.8,0.268-1.31,1.038-2.751,1.038c-1.439,0-1.938-0.769-2.752-1.039
	c-0.968-0.325-1.722-0.134-1.976-0.312c-0.206-0.144-0.039-0.544-0.323-0.729c-0.336-0.218-0.766-0.179-1.413-0.54
	c-0.412-0.231-0.178-0.373-0.041-0.441c2.348-1.151,2.722-2.927,2.739-3.059c0.021-0.16,0.042-0.285-0.131-0.447
	C5.936,9.971,5.191,9.505,4.985,9.359C4.643,9.118,4.493,8.877,4.604,8.58c0.077-0.205,0.267-0.282,0.465-0.282
	c0.063,0,0.125,0.007,0.186,0.022c0.375,0.082,0.739,0.273,0.95,0.323c0.026,0.006,0.052,0.01,0.077,0.01
	c0.112,0,0.151-0.058,0.144-0.188C6.403,8.05,6.344,7.241,6.409,6.484c0.089-1.041,0.42-1.557,0.814-2.012
	C7.411,4.253,8.299,3.303,9.998,3.303 M9.998,1.5c-2.346,0-3.679,1.257-4.143,1.797C5.317,3.92,4.745,4.771,4.612,6.331
	C4.606,6.401,4.601,6.471,4.597,6.54c-0.769,0.151-1.403,0.669-1.68,1.404c-0.151,0.403-0.521,1.796,1.03,2.889
	c0.034,0.024,0.085,0.059,0.146,0.1c-0.258,0.335-0.688,0.739-1.392,1.084c-1.057,0.525-1.191,1.41-1.2,1.767
	c-0.009,0.362,0.085,1.268,1.154,1.866c0.355,0.198,0.668,0.318,0.926,0.401c0.128,0.265,0.332,0.544,0.658,0.773
	c0.544,0.381,1.128,0.404,1.554,0.42c0.298,0.012,0.58,0.023,0.884,0.124c0.077,0.026,0.243,0.129,0.389,0.219
	C7.649,17.95,8.534,18.5,10,18.5c1.471,0,2.359-0.552,2.947-0.918c0.137-0.085,0.307-0.191,0.376-0.214
	c0.306-0.102,0.588-0.113,0.887-0.125c0.424-0.017,1.004-0.039,1.547-0.417c0.331-0.231,0.536-0.512,0.664-0.776
	c0.257-0.083,0.57-0.203,0.923-0.401c1.065-0.6,1.163-1.501,1.155-1.86c-0.007-0.354-0.136-1.235-1.175-1.766
	c-0.719-0.352-1.155-0.759-1.417-1.096c0.062-0.041,0.113-0.076,0.15-0.103c1.546-1.089,1.176-2.481,1.026-2.882
	c-0.279-0.738-0.913-1.255-1.681-1.407c-0.004-0.07-0.01-0.14-0.016-0.21c-0.133-1.556-0.704-2.408-1.245-3.035
	C13.672,2.749,12.336,1.5,9.998,1.5L9.998,1.5z"></path></symbol><symbol id="templates/_global/social/20/soundcloud" viewBox="0 0 20 20"><g>
	<path d="M10,6.5v8c0,0.276,0.224,0.5,0.5,0.5h6c0.68,0,1.283-0.252,1.77-0.75C18.756,13.752,19,13.205,19,12.5
		c0-0.7-0.244-1.302-0.73-1.8c-0.487-0.498-1.085-0.8-1.77-0.8c-0.338,0-0.701,0.069-1,0.2c-0.064-0.755-0.201-1.473-0.6-2.1
		c-0.391-0.614-0.972-1.14-1.6-1.5C12.63,6.117,11.872,6,11.1,6h-0.6C10.224,6,10,6.224,10,6.5z"></path>
	<path d="M2.5,11C2.225,11,2,11.225,2,11.5v2C2,13.775,2.225,14,2.5,14S3,13.775,3,13.5v-2C3,11.225,2.775,11,2.5,11z"></path>
	<path d="M4.5,9C4.225,9,4,9.225,4,9.5v5C4,14.775,4.225,15,4.5,15S5,14.775,5,14.5v-5C5,9.225,4.775,9,4.5,9z"></path>
	<path d="M6.5,7.5C6.225,7.5,6,7.725,6,8v6.5C6,14.775,6.225,15,6.5,15S7,14.775,7,14.5V8C7,7.725,6.775,7.5,6.5,7.5z"></path>
	<path d="M8.5,7C8.225,7,8,7.225,8,7.5v7C8,14.775,8.225,15,8.5,15S9,14.775,9,14.5v-7C9,7.225,8.775,7,8.5,7z"></path>
</g></symbol><symbol id="templates/_global/social/20/spotify" viewBox="0 0 20 20"><g id="Style_2_copy_3">
	<g>
		<path d="M8.033,5.004c-0.97-0.022-2.042,0.048-3.11,0.204C4.168,5.315,3.419,5.447,2.698,5.682C2.15,5.86,1.873,6.422,2.056,6.918
			c0.192,0.523,0.759,0.793,1.316,0.634c1.382-0.39,2.806-0.532,4.239-0.58c0.937-0.031,1.869,0.027,2.796,0.12
			c1.134,0.111,2.248,0.314,3.34,0.62c0.927,0.261,1.813,0.616,2.656,1.068c0.487,0.261,1.026,0.159,1.359-0.235
			c0.337-0.403,0.314-0.899-0.061-1.289c-0.136-0.146-0.324-0.23-0.501-0.323c-1.064-0.554-2.188-0.957-3.358-1.249
			C11.982,5.208,10.08,4.982,8.033,5.004z M7.949,8.646C7.56,8.655,7.209,8.664,6.858,8.681C5.686,8.734,4.544,8.929,3.42,9.244
			c-0.506,0.141-0.754,0.58-0.605,1.054c0.131,0.417,0.609,0.652,1.086,0.532c0.164-0.04,0.329-0.097,0.497-0.133
			c1.864-0.434,3.752-0.491,5.649-0.244c1.794,0.23,3.495,0.727,5.049,1.617c0.464,0.266,0.975,0.071,1.19-0.252
			c0.272-0.403,0.141-0.922-0.295-1.174c-0.553-0.323-1.129-0.602-1.724-0.833C12.225,9.022,10.103,8.655,7.949,8.646z
			 M7.494,12.128c-0.351,0.013-0.703,0.031-1.049,0.062c-0.894,0.071-1.775,0.217-2.651,0.407c-0.404,0.089-0.628,0.434-0.544,0.78
			c0.089,0.372,0.431,0.576,0.853,0.5c0.23-0.04,0.459-0.084,0.689-0.129c0.937-0.191,1.893-0.275,2.848-0.31
			c0.623-0.022,1.246,0.013,1.864,0.075c1.078,0.106,2.113,0.35,3.11,0.745c0.483,0.191,0.932,0.439,1.396,0.669
			c0.332,0.164,0.745,0.045,0.913-0.252c0.192-0.337,0.089-0.704-0.253-0.899c-0.543-0.314-1.115-0.576-1.71-0.806
			C11.209,12.283,9.373,12.079,7.494,12.128z"></path>
	</g>
</g></symbol><symbol id="templates/_global/social/20/telegram" viewBox="0 0 20 20"><path d="M17.7524,9.0226c-0.5201,3.2615-1.0901,6.8131-1.0901,6.8131s-0.08,0.9704-0.8201,1.1405
	c-0.7401,0.1701-1.9102-0.6203-2.1303-0.7904c-0.17-0.1301-3.3404-2.0209-4.4706-2.9714c-0.3-0.2601-0.5901-0.8804,0.11-1.4907
	c1.5702-1.4307,3.4404-3.1214,4.5706-4.2419c0.5201-0.5202,1.0101-1.9009-1.1701-0.4202c-3.0804,2.121-6.1608,4.2419-6.1608,4.2419
	s-0.5401,0.4202-2.0203,0c-2.8904-0.8104-2.7703-0.8504-2.7703-0.8504S0.7603,9.7729,2.5506,9.0726
	c0,0,7.4909-3.0514,10.1013-4.1419c1.0001-0.4302,4.3605-1.8008,4.3605-1.8008s1.6102-0.6203,1.4802,0.8504
	C18.4525,4.5905,18.1025,6.7215,17.7524,9.0226z"></path></symbol><symbol id="templates/_global/social/20/tiktok" viewBox="0 0 20 20"><path d="M18,5c-2.21,0-4-1.79-4-4h-3v12.5c0,1.38-1.12,2.5-2.5,2.5C7.12,16,6,14.88,6,13.5C6,12.12,7.12,11,8.5,11H9V8H8.5
	C5.46,8,3,10.46,3,13.5S5.46,19,8.5,19s5.5-2.46,5.5-5.5V6.74C15.13,7.53,16.51,8,18,8V5z"></path></symbol><symbol id="templates/_global/social/20/tumblr" viewBox="0 0 20 20"><g>
	<path d="M11.7,14.5c-0.411,0-0.78-0.099-1.1-0.3c-0.242-0.151-0.6-0.526-0.6-0.8s0-0.521,0-1.4V8h3.4V5.4H10V2H7.5
		c0,0.389,0,1.4,0,1.4C7.5,4.893,6.42,6,5,6v2h1.9v5.5c0,0.693-0.016,1.192,0.1,1.5c0.139,0.366,0.343,0.675,0.7,1
		c0.359,0.323,0.593,0.526,1.1,0.7c0.555,0.193,1.193,0.3,1.8,0.3c0.58,0,1.101-0.078,1.6-0.2c0.5-0.123,1.2-0.405,1.8-0.8v-2.3
		C13.288,14.281,12.43,14.5,11.7,14.5z"></path>
</g></symbol><symbol id="templates/_global/social/20/twitter" viewBox="0 0 20 20"><path d="M3.8,11.4c0.417,1.303,1.564,2.073,3,2.1c-1.123,0.88-2.479,1.573-4.017,1.573C2.518,15.073,2.257,15.031,2,15
	c1.452,0.93,3.178,1.5,5.032,1.5c6.037,0,9.368-5.003,9.368-9.34c0-0.142,0.006-0.219,0-0.36C17.042,6.338,17.559,5.659,18,5
	c-0.589,0.262-1.335,0.422-2,0.5c0.678-0.406,1.254-0.984,1.5-1.75c-0.635,0.375-1.252,0.604-2,0.75c-0.599-0.637-1.555-1-2.5-1
	c-1.813,0-3.2,1.487-3.2,3.3c0,0.257,0.024,0.46,0.08,0.7C7.152,7.363,4.619,6.085,3,4.1C2.718,4.585,2.669,5.149,2.669,5.75
	c0,1.139,0.551,2.161,1.431,2.75c0,0-1.1,0-1.458-0.387C3,9.5,3.751,11.028,5.275,11.332C4.788,11.541,3.8,11.4,3.8,11.4z"></path></symbol><symbol id="templates/_global/social/20/viber" viewBox="0 0 20 20"><path d="M11.8,2h-4c-3.341,0-6,2.734-6,6.1v2.7c0,2.605,1.66,4.821,3.95,5.7v1.75C5.75,18.685,6.036,19,6.4,19
	c0.178,0,0.404-0.046,0.55-0.2L8.672,17H11.8c3.341,0,6.2-2.834,6.2-6.2V8.1C18,4.734,15.141,2,11.8,2z M9.771,5.163
	c0.038-0.002,0.076-0.001,0.113,0c1.96,0.056,3.57,1.376,3.916,3.344c0.059,0.335,0.08,0.678,0.106,1.019
	c0.011,0.143-0.069,0.279-0.221,0.281c-0.157,0.002-0.228-0.131-0.238-0.275c-0.02-0.283-0.034-0.568-0.073-0.849
	c-0.203-1.482-1.368-2.709-2.821-2.972c-0.219-0.039-0.443-0.05-0.664-0.073c-0.14-0.015-0.323-0.024-0.354-0.201
	C9.508,5.289,9.632,5.171,9.771,5.163z M11.644,9.036c-0.11,0.002-0.041-0.001-0.005-0.002c-0.16,0-0.247-0.089-0.264-0.24
	c-0.011-0.107-0.021-0.214-0.046-0.318c-0.049-0.204-0.156-0.393-0.325-0.518c-0.08-0.059-0.17-0.102-0.265-0.13
	c-0.12-0.035-0.245-0.026-0.365-0.056c-0.13-0.033-0.203-0.139-0.182-0.264c0.019-0.113,0.127-0.201,0.248-0.192
	c0.76,0.056,1.303,0.455,1.381,1.363c0.005,0.064,0.012,0.132-0.002,0.193c-0.024,0.104-0.098,0.155-0.171,0.162
	C11.66,9.034,11.664,9.034,11.644,9.036z M11.171,6.958c-0.233-0.116-0.485-0.188-0.741-0.231c-0.112-0.019-0.225-0.03-0.337-0.046
	C9.957,6.661,9.885,6.573,9.891,6.437c0.006-0.128,0.098-0.219,0.235-0.211c0.45,0.026,0.884,0.124,1.285,0.34
	c0.813,0.437,1.278,1.127,1.413,2.05c0.006,0.041,0.016,0.083,0.019,0.125c0.008,0.103,0.013,0.207,0.021,0.344
	c-0.003,0.025-0.005,0.083-0.02,0.138c-0.052,0.2-0.35,0.225-0.419,0.023c-0.02-0.06-0.024-0.128-0.024-0.192
	c-0.001-0.422-0.091-0.843-0.3-1.21C11.885,7.466,11.557,7.149,11.171,6.958z M13.872,12.261c-0.216,0.458-0.531,0.838-0.983,1.081
	c-0.127,0.068-0.279,0.09-0.424,0.135c-0.166-0.05-0.324-0.084-0.471-0.145c-1.523-0.63-2.924-1.444-4.034-2.691
	c-0.631-0.709-1.125-1.51-1.543-2.356C6.218,7.883,6.051,7.465,5.881,7.051C5.725,6.673,5.954,6.282,6.195,5.997
	C6.42,5.73,6.711,5.525,7.025,5.374c0.246-0.118,0.488-0.05,0.667,0.158C8.08,5.981,8.436,6.454,8.724,6.974
	c0.177,0.32,0.129,0.711-0.193,0.93C8.453,7.956,8.382,8.018,8.309,8.078C8.245,8.13,8.185,8.184,8.142,8.254
	c-0.08,0.13-0.084,0.283-0.032,0.424c0.396,1.087,1.064,1.932,2.161,2.387c0.176,0.073,0.352,0.158,0.554,0.134
	c0.338-0.039,0.448-0.41,0.685-0.603c0.232-0.189,0.528-0.192,0.778-0.034s0.492,0.327,0.732,0.498
	c0.236,0.168,0.471,0.333,0.689,0.524C13.917,11.769,13.989,12.011,13.872,12.261z"></path></symbol><symbol id="templates/_global/social/20/vimeo" viewBox="0 0 20 20"><g id="XMLID_231_">
	<path id="XMLID_232_" d="M17,7c-0.061,1.465-1.16,3.458-3,6c-1.901,2.657-3.384,4-4.7,4c-0.815,0-1.538-0.785-2.1-2.4
		c-0.375-1.485-0.725-3.015-1.1-4.5C5.683,8.484,5.182,7.7,4.7,7.7c-0.103,0-0.477,0.227-1.1,0.7L3,7.5c0.688-0.649,1.33-1.346,2-2
		c0.923-0.856,1.536-1.255,2-1.3c1.086-0.111,1.747,0.689,2,2.4C9.272,8.447,9.592,9.552,9.7,10c0.314,1.53,0.625,2.3,1,2.3
		c0.29,0,0.71-0.509,1.3-1.5c0.585-0.991,0.958-1.682,1-2.2c0.084-0.856-0.288-1.3-1-1.3c-0.337,0-0.644,0.034-1,0.2
		c0.688-2.421,2.061-3.566,4-3.5C16.433,4.035,17.084,5.037,17,7z"></path>
</g></symbol><symbol id="templates/_global/social/20/vk" viewBox="0 0 20 20"><g>
	<path d="M4.87,6.022c0.485,1.186,1.156,2.335,1.977,3.341c0.112,0.144,0.261,0.251,0.41,0.359c0.224,0.144,0.41,0.108,0.522-0.144
		c0.075-0.252,0.187-0.754,0.187-1.006c0-0.683,0-1.15-0.037-1.832C7.891,6.309,7.742,5.914,7.071,5.806
		C6.847,5.771,6.847,5.591,6.996,5.447c0.261-0.323,0.671-0.395,1.082-0.431c0.671-0.036,1.343,0,2.052,0
		c0.261,0,0.559,0.036,0.821,0.072c0.373,0.072,0.559,0.323,0.597,0.647c0.037,0.18,0.037,0.359,0.037,0.539
		c0,0.754-0.037,1.509-0.075,2.227c0,0.287,0,0.611,0.075,0.862c0.075,0.395,0.373,0.503,0.671,0.216
		c0.373-0.359,0.671-0.79,1.007-1.186c0.559-0.755,0.97-1.581,1.306-2.443c0.186-0.431,0.336-0.539,0.821-0.539
		c0.932,0,1.865,0,2.798,0c0.149,0,0.336,0,0.485,0.072c0.261,0.072,0.336,0.287,0.298,0.539C18.82,6.597,18.485,7.1,18.149,7.603
		c-0.559,0.79-1.156,1.545-1.753,2.299c-0.075,0.108-0.149,0.216-0.186,0.323c-0.224,0.395-0.186,0.575,0.112,0.898
		c0.522,0.503,1.044,0.97,1.529,1.473c0.373,0.359,0.671,0.79,0.97,1.222c0.373,0.539,0.149,1.042-0.522,1.15
		c-0.41,0.072-2.462,0-2.574,0c-0.559,0-1.044-0.18-1.417-0.539c-0.448-0.395-0.821-0.826-1.231-1.257
		c-0.112-0.144-0.261-0.252-0.41-0.359c-0.336-0.252-0.671-0.18-0.821,0.179c-0.149,0.323-0.261,1.186-0.261,1.257
		c-0.037,0.395-0.298,0.647-0.746,0.647c-1.306,0.072-2.574-0.072-3.73-0.683c-1.007-0.503-1.791-1.222-2.462-2.084
		C3.564,10.8,2.669,9.291,1.886,7.782C1.849,7.711,1.028,6.058,1.028,5.986c-0.075-0.252,0-0.503,0.224-0.575
		c0.149-0.036,2.76,0,2.835,0C4.422,5.411,4.721,5.591,4.87,6.022z"></path>
</g></symbol><symbol id="templates/_global/social/20/wechat" viewBox="0 0 20 20"><path d="M13.989,7.775c-3.32,0-6.011,2.351-6.011,5.25s2.691,5.25,6.011,5.25c0.694,0,1.359-0.104,1.979-0.293
	c0.258-0.079,0.533-0.065,0.772,0.06l1.256,0.658v-1.31c0-0.292,0.136-0.56,0.351-0.758C19.37,15.692,20,14.424,20,13.025
	C20,10.126,17.309,7.775,13.989,7.775z M11.5,12.25c-0.415,0-0.75-0.336-0.75-0.75s0.335-0.75,0.75-0.75s0.75,0.336,0.75,0.75
	S11.915,12.25,11.5,12.25z M15.5,12.25c-0.415,0-0.75-0.336-0.75-0.75s0.335-0.75,0.75-0.75s0.75,0.336,0.75,0.75
	S15.915,12.25,15.5,12.25z"></path>
<path d="M7.012,1.275c-4.839,0-8.533,4.368-6.389,8.922c0.446,0.948,1.292,1.592,2.122,2.232c0.151,0.117,0.227,0.305,0.188,0.492
	L2.5,15l2.157-1.294c0.22-0.132,0.479-0.169,0.73-0.117L7.05,13.75c0,0-0.05-0.496-0.05-0.75c0-3.372,3.133-6.082,6.989-6.098
	C13.638,3.743,10.649,1.275,7.012,1.275z M5,6.875C4.516,6.875,4.125,6.483,4.125,6S4.516,5.125,5,5.125S5.875,5.517,5.875,6
	S5.484,6.875,5,6.875z M10,6.875C9.516,6.875,9.125,6.483,9.125,6S9.516,5.125,10,5.125S10.875,5.517,10.875,6
	S10.484,6.875,10,6.875z"></path></symbol><symbol id="templates/_global/social/20/whatsapp" viewBox="0 0 20 20"><path d="M10,2c-4.42,0-8,3.58-8,8c0,1.47,0.31,2.82,1,4l-1,4l4-1c1.17,0.67,2.56,1,4,1c4.42,0,8-3.58,8-8S14.42,2,10,2z M13.86,12.7
	c-0.16,0.45-0.95,0.87-1.33,0.92c-0.34,0.05-0.77,0.07-1.24-0.08c-0.29-0.09-0.65-0.21-1.12-0.41C8.19,12.3,6.9,10.34,6.8,10.21
	C6.7,10.08,6,9.15,6,8.2s0.51-1.43,0.69-1.62c0.18-0.2,0.39-0.24,0.53-0.24s0.26,0,0.38,0.01C7.71,6.35,7.87,6.3,8.03,6.67
	C8.2,7.06,8.59,8.02,8.64,8.12c0.05,0.1,0.08,0.21,0.02,0.34c-0.06,0.13-0.1,0.21-0.2,0.32c-0.1,0.11-0.21,0.25-0.3,0.34
	c-0.1,0.1-0.2,0.2-0.09,0.4c0.11,0.19,0.51,0.83,1.1,1.35c0.75,0.66,1.39,0.87,1.58,0.97c0.2,0.1,0.31,0.08,0.43-0.05
	c0.11-0.13,0.49-0.57,0.62-0.76c0.13-0.19,0.26-0.16,0.44-0.1c0.18,0.06,1.15,0.53,1.35,0.63c0.2,0.1,0.33,0.15,0.38,0.23
	C14.02,11.86,14.02,12.25,13.86,12.7z"></path></symbol><symbol id="templates/_global/social/20/yelp" viewBox="0 0 20 20"><path d="M16.39,9.97l-3.91,1.13c-0.75,0.22-1.36-0.63-0.92-1.29l2.27-3.41c0.26-0.39,0.78-0.49,1.16-0.23
	c0.03,0.02,0.06,0.04,0.08,0.07c0.8,0.71,1.43,1.59,1.85,2.57c0.18,0.43-0.01,0.93-0.44,1.12C16.46,9.95,16.43,9.96,16.39,9.97
	L16.39,9.97z M12.45,12.47l3.87,1.27c0.44,0.14,0.68,0.62,0.54,1.07c-0.01,0.03-0.02,0.07-0.04,0.1c-0.46,0.97-1.12,1.82-1.93,2.51
	c-0.36,0.3-0.89,0.25-1.18-0.12c-0.02-0.03-0.04-0.06-0.06-0.09l-2.16-3.49C11.07,13.05,11.71,12.22,12.45,12.47L12.45,12.47z
	 M8.7,9.01l-3.82-6.7C4.65,1.9,4.78,1.38,5.19,1.15C5.2,1.14,5.22,1.13,5.24,1.12C6.54,0.5,7.93,0.12,9.36,0
	c0.49-0.04,0.9,0.35,0.9,0.85v7.73C10.26,9.45,9.13,9.76,8.7,9.01L8.7,9.01z M8.03,12.31l-3.95,1c-0.45,0.11-0.91-0.17-1.02-0.62
	c-0.01-0.04-0.02-0.07-0.02-0.11c-0.12-1.07,0-2.15,0.34-3.16c0.15-0.44,0.62-0.68,1.06-0.53c0.03,0.01,0.07,0.03,0.1,0.04l3.65,1.8
	C8.9,11.07,8.79,12.12,8.03,12.31L8.03,12.31z M8.72,13.48c0.52-0.59,1.49-0.19,1.46,0.6l-0.15,4.11c-0.02,0.51-0.48,0.89-0.98,0.81
	c-1.04-0.18-2.04-0.58-2.91-1.19C5.76,17.53,5.67,17,5.93,16.62c0.02-0.03,0.04-0.06,0.07-0.09L8.72,13.48L8.72,13.48z"></path></symbol><symbol id="templates/_global/social/20/youtube" viewBox="0 0 20 20"><g id="_x34__stroke_1_">
	<g id="Youtube_1_">
		<path id="Youtube" d="M17.84,6.588c0,0-0.156-1.176-0.636-1.693c-0.608-0.68-1.29-0.683-1.603-0.722C13.362,4,10.003,4,10.003,4
			H9.997c0,0-3.359,0-5.597,0.173c-0.313,0.04-0.995,0.043-1.604,0.722C2.316,5.413,2.16,6.588,2.16,6.588S2,7.969,2,9.35v1.295
			c0,1.381,0.16,2.761,0.16,2.761s0.156,1.176,0.635,1.693c0.609,0.68,1.408,0.658,1.764,0.729C5.84,15.96,10,16,10,16
			s3.362-0.005,5.601-0.178c0.312-0.04,0.995-0.043,1.603-0.723c0.479-0.518,0.636-1.693,0.636-1.693S18,12.025,18,10.644V9.35
			C18,7.969,17.84,6.588,17.84,6.588z M8,13V7l5,3L8,13z"></path>
	</g>
</g></symbol><symbol id="templates/_global/social/behance" viewBox="0 0 30 30"><g>
	<rect x="19" y="7" width="8" height="2"></rect>
	<path d="M12.4059,14.6425C13.3815,13.73,14,12.4412,14,11c0-2.7614-2.2386-5-5-5H0v18h10c2.7614,0,5-2.2386,5-5
		C15,17.1158,13.9454,15.4948,12.4059,14.6425z M4,9h4.5c1.1149,0,2,0.9,2,2c0,1.1-0.8851,2-2,2H4V9z M8.5,21H4v-5h4.5
		c1.375,0,2.5,1.125,2.5,2.5S9.875,21,8.5,21z"></path>
	<path d="M30,17c0-3.866-3.134-7-7-7s-7,3.134-7,7c0,3.866,3.134,7,7,7c2.9839,0,5.5248-1.8704,6.5322-4.5h-3.9514
		C25.0591,20.3913,24.1018,21,23,21c-1.65,0-3-1.35-3-3h9.9205C29.9675,17.6725,30,17.3405,30,17z M20.0508,15.5
		C20.2916,14.087,21.5211,13,23,13s2.7084,1.087,2.9492,2.5H20.0508z"></path>
</g></symbol><symbol id="templates/_global/social/blogger" viewBox="0 0 30 30"><path d="M26,13.5c0-0.825-0.675-1.5-1.5-1.5H23c-0.5574,0-0.9988-0.4576-1.0001-1.015C21.9918,7.1418,18.845,4,15,4h-4
	c-3.85,0-7,3.15-7,7v3v5c0,3.85,3.15,7,7,7h4h4c3.85,0,7-3.15,7-7V13.5z M10.5,9h5c0.825,0,1.5,0.675,1.5,1.5S16.325,12,15.5,12h-5
	C9.675,12,9,11.325,9,10.5S9.675,9,10.5,9z M19.5,20h-9C9.675,20,9,19.325,9,18.5S9.675,17,10.5,17h9c0.825,0,1.5,0.675,1.5,1.5
	S20.325,20,19.5,20z"></path></symbol><symbol id="templates/_global/social/box" viewBox="0 0 30 30"><path d="M26.7,17.5l3.071-3.729c0.385-0.492,0.275-1.18-0.257-1.545c-0.533-0.368-1.28-0.274-1.693,0.204v-0.001L25.2,15.6
	l-2.623-3.172v0.001c-0.408-0.478-1.16-0.572-1.691-0.204c-0.531,0.366-0.642,1.053-0.255,1.545H20.63L23.7,17.5l-3.07,3.729h0.001
	c-0.387,0.494-0.276,1.179,0.255,1.546s1.283,0.273,1.691-0.205L25.2,19.4l2.617,3.171c0.413,0.478,1.16,0.572,1.693,0.205
	c0.532-0.367,0.643-1.052,0.257-1.546L26.7,17.5z"></path>
<path d="M15.5,12c-2.223,0-4.133,1.321-5,3.218C9.633,13.321,7.723,12,5.5,12c-1.24,0-2.38,0.415-3.3,1.107V8.1
	C2.2,7.495,1.705,7,1.1,7C0.495,7,0,7.495,0,8.1v8.8c0,0.042,0.02,0.078,0.024,0.119C0.01,17.178,0,17.338,0,17.5
	C0,20.538,2.462,23,5.5,23c2.223,0,4.133-1.321,5-3.218c0.867,1.897,2.777,3.218,5,3.218c3.038,0,5.5-2.462,5.5-5.5
	S18.538,12,15.5,12z M5.5,20.8c-1.82,0-3.3-1.48-3.3-3.3s1.48-3.3,3.3-3.3s3.3,1.48,3.3,3.3S7.32,20.8,5.5,20.8z M15.5,20.8
	c-1.82,0-3.3-1.48-3.3-3.3s1.48-3.3,3.3-3.3s3.3,1.48,3.3,3.3S17.32,20.8,15.5,20.8z"></path></symbol><symbol id="templates/_global/social/copylink" viewBox="0 0 30 30"><path d="M25.106,4.894C23.844,3.631,22.18,3,20.516,3s-3.328,0.631-4.591,1.894l-3.531,3.531C9.869,10.95,9.875,15.075,12.4,17.6
	c0.526,0.526,1.113,0.945,1.75,1.25l1.55-1.55c-0.711-0.202-1.366-0.566-1.9-1.1c-0.843-0.843-1.3-1.995-1.3-3.2
	c0-1.205,0.457-2.357,1.3-3.2l3.5-3.5C18.143,5.457,19.295,5,20.5,5c1.205,0,2.357,0.457,3.2,1.3C24.543,7.143,25,8.295,25,9.5
	c0,1.205-0.457,2.357-1.3,3.2l-2.4,2.4c0.237,0.861,0.222,1.719,0.1,2.6c0.047-0.044,3.706-3.625,3.706-3.625
	C27.631,11.55,27.631,7.419,25.106,4.894z"></path>
<path d="M15.847,11.153L14.3,12.7c0.711,0.202,1.366,0.566,1.9,1.1c0.843,0.843,1.3,1.995,1.3,3.2c0,1.205-0.457,2.357-1.3,3.2
	l-3.5,3.5c-0.843,0.843-1.995,1.3-3.2,1.3c-1.205,0-2.357-0.457-3.2-1.3C5.457,22.857,5,21.705,5,20.5c0-1.205,0.457-2.357,1.3-3.2
	l2.1-2.1c-0.285-0.785-0.426-1.574-0.4-2.4l-3.106,3.125c-2.525,2.525-2.525,6.656,0,9.181C6.156,26.369,7.82,27,9.484,27
	s3.328-0.631,4.591-1.894l3.531-3.531c2.525-2.525,2.519-6.65-0.006-9.175C17.074,11.874,16.483,11.458,15.847,11.153z"></path></symbol><symbol id="templates/_global/social/deviantart" viewBox="0 0 30 30"><path d="M22,3h-4.698c-0.186,0-0.356,0.103-0.442,0.267l-2.21,4.199C14.477,7.794,14.136,8,13.765,8H7v6h3.714
	c0.226,0,0.371,0.24,0.265,0.44l-3.864,7.342C7.039,21.925,7,22.085,7,22.247V27h4.698c0.186,0,0.356-0.103,0.442-0.267l2.21-4.199
	C14.523,22.206,14.864,22,15.235,22H22v-6h-3.714c-0.226,0-0.371-0.24-0.265-0.44l3.864-7.342C21.961,8.075,22,7.915,22,7.753V3z"></path></symbol><symbol id="templates/_global/social/dribbble" viewBox="0 0 30 30"><path d="M15,3C8.3726,3,3,8.3726,3,15c0,6.6274,5.3726,12,12,12s12-5.3726,12-12C27,8.3726,21.6274,3,15,3z M24.9973,15.0537
	c-2.0169,0.0797-4.005,0.3385-5.944,0.7847c-0.4595-1.2856-0.983-2.5466-1.605-3.7631c1.9445-0.8058,3.8108-1.8149,5.5853-3.0051
	C24.2632,10.7317,25,12.7789,25,15C25,15.0181,24.9974,15.0356,24.9973,15.0537z M21.6757,7.5758
	c-1.6592,1.0869-3.4042,2.002-5.2176,2.7361c-0.9425-1.5852-2.0132-3.1044-3.2354-4.5287l-0.4501-0.5244
	C13.49,5.0948,14.2335,5,15,5C17.5668,5,19.9032,5.9804,21.6757,7.5758z M10.7427,5.9649l0.9624,1.121
	c1.0657,1.2418,2.0159,2.5568,2.8551,3.93c-2.9256,0.9577-6.0001,1.4633-9.1461,1.4831l-0.0848,0.0006
	C6.0785,9.6052,8.089,7.2206,10.7427,5.9649z M5.0252,14.5018l0.4016-0.0027c3.4918-0.0221,6.8987-0.6102,10.1318-1.714
	c0.6021,1.1556,1.1118,2.3531,1.5564,3.5765c-3.3712,1.0048-6.5755,2.5526-9.4968,4.6472l-0.3856,0.2766
	C5.8389,19.5664,5,17.3802,5,15C5,14.8318,5.017,14.6679,5.0252,14.5018z M8.6575,22.7247l0.1267-0.0909
	c2.7498-1.9713,5.7728-3.4267,8.95-4.3683c0.5453,1.8885,0.9259,3.9706,1.0947,5.9693C17.6487,24.726,16.3561,25,15,25
	C12.5942,25,10.3846,24.1454,8.6575,22.7247z M20.7403,23.1753c-0.2043-1.8495-0.5672-3.6594-1.0732-5.4212
	c1.6749-0.3761,3.3856-0.6111,5.1182-0.6977C24.2566,19.5744,22.7754,21.7419,20.7403,23.1753z"></path></symbol><symbol id="templates/_global/social/dropbox" viewBox="0 0 30 30"><polygon points="9,21.5 15,25.5 21,21.5 15,17.5 "></polygon>
<polygon points="15,16 20.992,19.799 27,16 21,12 "></polygon>
<polygon points="3,16 9.008,19.799 15,16 9,12 "></polygon>
<polygon points="9,4 3,8 9,12 15,8 "></polygon>
<polygon points="27,8 21,4 15,8 21,12 "></polygon></symbol><symbol id="templates/_global/social/email" viewBox="0 0 30 30"><g>
	<path d="M15,18c-0.579,0-1.195-0.168-1.7-0.5L4,11.3V21c0,1.1,0.9,2,2,2h18c1.1,0,2-0.9,2-2v-9.7l-9.3,6.2
		C16.194,17.832,15.579,18,15,18z"></path>
	<path d="M15.6,15.9L26,9c0-1.1-0.9-2-2-2H6C4.9,7,4,7.9,4,9l10.4,6.9C14.737,16.121,15.263,16.121,15.6,15.9z"></path>
</g></symbol><symbol id="templates/_global/social/etsy" viewBox="0 0 30 30"><path d="M11.5,6.2v8.1c0,0,2.46,0.02,4-0.1c1.21-0.21,1.38-0.29,1.6-1.5l0.4-1.7h1.4l-0.2,4l0.1,3.75h-1.3l-0.3-1.55
	c-0.33-1.1-0.82-1.34-1.7-1.45c-1.1-0.12-4-0.1-4-0.1v6.85c0,1.31,0.66,2.1,2.2,2.1l4.3-0.2c1.43,0,2.81-0.16,3.7-2.25l1.2-2.65H24
	c-0.12,0.55-0.69,5.41-0.8,6.5c0,0-4.14-0.1-5.9-0.1H9.7L5,26v-1.2l1.7-0.3C7.81,24.28,8,23.88,8,23c0,0,0-3.04,0-8
	c0-4.94,0-7.8,0-7.8c0-0.99-0.39-1.18-1.5-1.4L5,5.4V4.2l4.6,0.1H18c1.76,0,4.8-0.3,4.8-0.3s-0.08,1.9-0.2,6.3h-1.3l-0.4-1.6
	c-0.43-1.98-1.08-3-2.3-3H12C11.44,5.7,11.5,5.86,11.5,6.2z"></path></symbol><symbol id="templates/_global/social/facebook" viewBox="0 0 30 30"><path d="M18,7.4h4V3h-4c-3.3,0-6,2.7-6,6v2H8v4h4v12h4.4V15H21l1-4h-5.6V9C16.4,8.1327,17.1327,7.4,18,7.4z"></path></symbol><symbol id="templates/_global/social/fbmessenger" viewBox="0 0 30 30"><path d="M15,2C7.82,2,2,7.373,2,14c0,3.839,1.961,7.203,5,9.4V28l4.205-2.5C12.406,25.838,13.679,26,15,26c7.18,0,13-5.373,13-12
	S22.18,2,15,2z M16.5,18l-3.3-3.3l-6.5,3.5l7.1-7.4l3.2,3.4l6.5-3.5L16.5,18z"></path></symbol><symbol id="templates/_global/social/flickr" viewBox="0 0 30 30"><g>
	<circle cx="7" cy="15" r="6"></circle>
	<circle opacity="0.6" cx="23" cy="15" r="6"></circle>
</g></symbol><symbol id="templates/_global/social/github" viewBox="0 0 30 30"><path d="M15,3C8.374,3,3,7.9999,3,14.9999c0,6.0309,3.431,10.3529,8.2,11.9799c0.6,0.113,0.8-0.274,0.8-0.6
	c0-0.292,0.006-1.053,0-2.08c-3.338,0.744-4.03-1.7-4.03-1.7c-0.546-1.421-1.335-1.756-1.335-1.756
	c-1.089-0.763,0.065-0.844,0.065-0.844c1.204,0.087,1.85,1.4,1.85,1.4c1.07,1.88,2.766,1.315,3.45,1c0.109-0.795,0.457-1.692,0.8-2
	c-2.665-0.31-5.5-1.085-5.5-5.7999c0-1.343,0.532-2.44,1.3-3.3c-0.123-0.311-0.553-1.606,0.1-3.3c0,0,1.008-0.192,3.3,1.4
	c0.957-0.273,1.979-0.395,3-0.4c1.019,0.005,2.041,0.127,3,0.4c2.291-1.592,3.3-1.4,3.3-1.4c0.655,1.694,0.223,2.989,0.1,3.3
	c0.769,0.86,1.2,1.957,1.2,3.3c0,4.7269-2.827,5.7949-5.5,6.0999c0.431,0.38,0.9,1.152,0.9,2.3c0,1.645,0,2.977,0,3.38
	c0,0.329,0.191,0.718,0.8,0.598c4.764-1.63,8.2-5.9469,8.2-11.9779C27,7.9999,21.628,3,15,3z"></path></symbol><symbol id="templates/_global/social/googledocs" viewBox="0 0 30 30"><path opacity="0.6" enable-background="new    " d="M18,3l7,7h-7V3z"></path>
<path d="M18,10V3H7C5.895,3,5,3.895,5,5v20c0,1.105,0.895,2,2,2h16c1.105,0,2-0.895,2-2V10H18z M10,12h10v1H10V12z M10,15h10v1H10
	V15z M15,19h-5v-1h5V19z M19.571,25C17.602,25,16,23.432,16,21.5s1.602-3.5,3.571-3.5c0.965,0,1.771,0.346,2.39,0.914l-1.014,0.966
	c-0.258-0.239-0.707-0.518-1.376-0.518c-1.182,0-2.146,0.962-2.146,2.142c0,1.177,0.965,2.142,2.146,2.142
	c1.369,0,1.872-0.927,1.964-1.478h-1.967v-0.003v-1.303h3.343C22.961,21.083,23,21.29,23,21.58C23,23.578,21.634,25,19.571,25z"></path></symbol><symbol id="templates/_global/social/googledrive" viewBox="0 0 30 30"><polygon points="28,17.5 19,3 11,3 19,17.5 "></polygon>
<polygon points="12,19 8,26 24,26 28,19 "></polygon>
<polygon points="10,5 2,19 6,26 14,12 "></polygon></symbol><symbol id="templates/_global/social/googleplus" viewBox="0 0 30 30"><path d="M25.8911,13H14v5h5.9636c-1.1552,1.8011-3.1689,3-5.4636,3C10.9159,21,8,18.0841,8,14.5S10.9159,8,14.5,8
	c2.0779,0,3.9092,0.9778,5.1,2.5l3.9218-3.1174C21.4156,4.7167,18.1612,3,14.5,3C8.1487,3,3,8.1487,3,14.5
	C3,20.8513,8.1487,26,14.5,26c5.4896,0,10.0586-3.8544,11.2-9c0.1788-0.8057,0.3-1.6404,0.3-2.5
	C26,13.9904,25.9554,13.4921,25.8911,13z"></path></symbol><symbol id="templates/_global/social/hackernews" viewBox="0 0 30 30"><path d="M3,3v24h24V3H3z M16,17v6h-2v-6L9,7h2l4,8l4-8h2L16,17z"></path></symbol><symbol id="templates/_global/social/instagram" viewBox="0 0 30 30"><g>
	<path d="M20.9583,3h-12c-3.3,0-6,2.7-6,6v12c0,3.3,2.7,6,6,6h12c3.3,0,6-2.7,6-6V9C26.9583,5.7,24.2583,3,20.9583,3z M24.9583,21
		c0,2.2056-1.7944,4-4,4h-12c-2.2056,0-4-1.7944-4-4V9c0-2.2056,1.7944-4,4-4h12c2.2056,0,4,1.7944,4,4V21z"></path>
	<path d="M15,10c-2.7615,0-5,2.2386-5,5s2.2385,5,5,5c2.7614,0,5-2.2386,5-5S17.7614,10,15,10z M15,18c-1.6542,0-3-1.3458-3-3
		c0-1.6542,1.3458-3,3-3c1.6542,0,3,1.3458,3,3C18,16.6542,16.6542,18,15,18z"></path>
	<circle cx="21.4166" cy="8.5" r="1.5"></circle>
</g></symbol><symbol id="templates/_global/social/linkedin" viewBox="0 0 30 30"><g>
	<path d="M20,10c-2.274,0-3.211,0.811-4,2v-2h-5v16h5v-9.5c0-1.375,1.125-2.5,2.5-2.5s2.5,1.125,2.5,2.5L20.9583,26H26v-9
		C26,12.984,25.044,10,20,10z"></path>
	<circle cx="5.4583" cy="6.5" r="2.5"></circle>
	<rect x="2.9583" y="10" width="5" height="16"></rect>
</g></symbol><symbol id="templates/_global/social/livejournal" viewBox="0 0 30 30"><path d="M21.035,17.646c-1.521,0.666-2.774,1.893-3.433,3.418L22,22L21.035,17.646z"></path>
<path opacity="0.5" enable-background="new    " d="M15,3C8.373,3,3,8.373,3,15s5.373,12,12,12s12-5.373,12-12S21.627,3,15,3z
	 M17.602,21.063l-3.11-0.664c0.004-0.009,0.009-0.017,0.012-0.025l0,0c1.135-2.616,3.228-4.714,5.835-5.858
	c0,0,0.614,2.77,0.689,3.125C19.513,18.306,18.263,19.544,17.602,21.063z"></path>
<path d="M4.105,9.993l10.388,10.406c1.132-2.628,3.232-4.736,5.848-5.883L9.97,4.116C7.382,5.314,5.297,7.402,4.105,9.993z"></path>
<path opacity="0.5" enable-background="new    " d="M9.981,4.111L8,2C5.412,3.198,3.193,5.409,2,8l2.11,1.982
	C5.305,7.393,7.391,5.307,9.981,4.111z"></path></symbol><symbol id="templates/_global/social/mailchimp" viewBox="0 0 30 30"><path d="M25.919,18.628c-0.166-0.353-0.482-0.597-0.878-0.69c-0.132-0.604-0.316-0.9-0.333-0.944
	c0.07-0.079,0.138-0.159,0.153-0.178c0.56-0.692,0.195-1.707-0.763-1.946c-0.538-0.517-1.026-0.759-1.426-0.959
	c-0.384-0.191-0.23-0.116-0.59-0.278c-0.096-0.466-0.127-1.552-0.279-2.314c-0.137-0.685-0.412-1.182-0.836-1.508
	c-0.17-0.367-0.408-0.736-0.695-1.008c1.335-2.04,1.686-4.055,0.709-5.11C20.545,3.223,19.898,3,19.125,3
	c-1.089,0-2.428,0.443-3.78,1.261c0,0-0.88-0.706-0.899-0.721C10.681,0.584,0.032,13.649,3.791,16.504l0.97,0.739
	C4.153,18.934,5,20.948,6.766,21.594c0.39,0.143,0.814,0.212,1.252,0.188c0,0,2.853,5.216,8.871,5.217
	c6.962,0.002,8.734-6.789,8.753-6.85C25.641,20.15,26.205,19.319,25.919,18.628z M4.081,15.64c-0.763-1.284,0.564-3.921,1.509-5.42
	c2.335-3.704,6.22-6.628,7.985-6.21l0.485-0.185c0.002,0.001,1.325,1.117,1.327,1.118c0.912-0.546,2.073-1.102,3.159-1.213
	c-0.661,0.148-1.466,0.49-2.42,1.072c-0.023,0.013-2.258,1.517-3.623,2.867c-0.744,0.736-3.731,4.308-3.729,4.305
	c0.546-1.03,0.906-1.536,1.77-2.62c0.489-0.613,1.01-1.209,1.544-1.76c0.248-0.256,0.499-0.501,0.75-0.734
	c0.173-0.16,0.346-0.314,0.518-0.462c0.079-0.068,0.159-0.134,0.238-0.199c0,0,0,0,0,0l-1.751-1.442l0.093,0.646l1.273,1.118
	c0,0-1.126,0.756-1.686,1.233c-2.245,1.91-4.449,4.843-5.269,7.698l0.039-0.001c-0.408,0.224-0.814,0.584-1.168,1.074
	C5.117,16.522,4.21,15.858,4.081,15.64z M7.794,21.002c-1.345,0-2.435-1.145-2.435-2.556c0-1.412,1.09-2.556,2.435-2.556
	c0.349,0,0.68,0.077,0.98,0.215c0,0,0.518,0.26,0.663,1.49c0,0,0,0,0,0c0,0,0,0,0,0c0.152-0.384,0.228-0.7,0.228-0.7
	c0.174,0.529,0.262,1.085,0.228,1.648l0,0v0c0.144-0.191,0.298-0.55,0.298-0.55C10.46,19.564,9.31,21.002,7.794,21.002z
	 M10.792,11.974L10.792,11.974c0,0,1.047-1.985,3.349-3.298c-0.171-0.027-0.59,0.026-0.664,0.034
	c0.418-0.359,1.195-0.598,1.732-0.707c-0.157-0.1-0.531-0.125-0.717-0.13c-0.055-0.001-0.054-0.001-0.119,0.002
	c0.505-0.281,1.441-0.447,2.292-0.297c-0.107-0.142-0.349-0.245-0.519-0.295c-0.015-0.004-0.082-0.021-0.082-0.021
	s0.057-0.013,0.064-0.015c0.513-0.098,1.111,0.008,1.585,0.198c-0.054-0.125-0.185-0.269-0.284-0.361
	c-0.01-0.009-0.069-0.052-0.069-0.052c0.496,0.102,0.97,0.318,1.328,0.563c-0.049-0.094-0.169-0.251-0.252-0.337
	c0.474,0.135,1.005,0.472,1.233,0.954h0c0.006,0.011,0.02,0.051,0.022,0.055c0,0,0,0,0,0c-0.897-0.688-3.516-0.493-6.138,1.201
	C12.351,10.243,11.471,11.092,10.792,11.974z M24.94,19.813c-0.031,0.061-0.361,1.843-2.249,3.322
	c-2.384,1.868-5.516,1.679-6.699,0.632c-0.632-0.589-0.905-1.432-0.905-1.432s-0.072,0.475-0.084,0.661
	c-0.477-0.808-0.436-1.796-0.436-1.796s-0.254,0.473-0.371,0.738c-0.351-0.89-0.17-1.81-0.17-1.81l-0.278,0.412
	c0,0-0.13-1.008,0.189-1.847c0.341-0.897,1.004-1.548,1.134-1.63c-0.502-0.159-1.081-0.616-1.082-0.616c0,0,0.23,0.015,0.39-0.021
	c0,0-1.016-0.725-1.194-1.836c0.147,0.181,0.456,0.386,0.456,0.386c-0.1-0.29-0.16-0.937-0.067-1.573l0-0.001
	c0.192-1.215,1.197-2.006,2.334-1.996c1.211,0.011,2.023,0.264,3.038-0.669c0.215-0.198,0.386-0.368,0.688-0.435
	c0.032-0.007,0.111-0.04,0.273-0.04c0.164,0,0.322,0.037,0.466,0.122c0.551,0.327,0.669,1.179,0.729,1.804
	c0.219,2.318,0.13,1.905,1.071,2.383c0.449,0.227,0.953,0.444,1.527,1.057c0.002,0.002,0.004,0.005,0.004,0.005s0.005,0,0.007,0
	c0.484,0.012,0.734,0.392,0.51,0.668c-1.624,1.934-3.893,2.86-6.421,2.938c-0.104,0.003-0.339,0.008-0.341,0.008
	c-1.021,0.031-1.354,1.348-0.713,2.14c0.405,0.501,1.184,0.665,1.825,0.668l0.009-0.003c2.764,0.056,5.542-1.895,6.021-2.97
	c0.003-0.008,0.033-0.076,0.033-0.076c-0.111,0.13-2.804,2.658-6.076,2.566c0,0-0.358-0.007-0.695-0.086
	c-0.444-0.103-0.782-0.298-0.911-0.739c0.271,0.054,0.615,0.089,1.014,0.089c2.362,0,4.064-1.071,3.886-1.085
	c-0.007,0-0.014,0.002-0.026,0.004c-0.275,0.064-3.114,1.16-4.909,0.598c0.004-0.054,0.013-0.108,0.026-0.155
	c0.16-0.533,0.443-0.458,0.902-0.478l0,0c1.637-0.054,2.959-0.465,3.949-0.934c1.056-0.5,1.861-1.144,2.151-1.469
	c0.376,0.631,0.374,1.442,0.374,1.442s0.147-0.051,0.343-0.051C25.279,18.71,25.405,19.258,24.94,19.813z M16.919,20.547
	c0-0.003,0-0.005,0-0.008C16.919,20.542,16.919,20.545,16.919,20.547z M16.919,20.536c0-0.007-0.001-0.014-0.001-0.021
	c-0.001-0.035-0.001-0.071,0-0.108c-0.001,0.04-0.001,0.076,0,0.108C16.918,20.522,16.918,20.529,16.919,20.536z M16.925,20.614
	c0,0.001,0,0.002,0,0.003C16.926,20.616,16.925,20.615,16.925,20.614z M16.926,20.621c0.011,0.085,0.028,0.124,0.03,0.128
	C16.944,20.723,16.933,20.677,16.926,20.621z"></path>
<polygon points="13.513,4.854 13.837,4.959 13.575,4.01 13.421,4.483 "></polygon>
<path d="M14.965,5.205l-0.536-0.448l0.195,0.674C14.731,5.359,14.845,5.283,14.965,5.205z"></path>
<path d="M16.918,20.515c0,0.007,0.001,0.014,0.001,0.021C16.918,20.529,16.918,20.522,16.918,20.515z"></path>
<path d="M16.918,20.407c-0.001,0.037-0.001,0.073,0,0.108C16.917,20.483,16.917,20.447,16.918,20.407z"></path>
<line x1="16.919" y1="20.539" x2="16.919" y2="20.547"></line>
<line x1="16.926" y1="20.617" x2="16.925" y2="20.614"></line>
<path d="M16.956,20.749c-0.002-0.005-0.019-0.044-0.03-0.128C16.933,20.677,16.944,20.723,16.956,20.749z"></path>
<path d="M19.837,13.823c0.278-0.024,0.548,0.025,0.777,0.139c-0.018-0.659-0.403-1.402-0.693-1.301l0,0c0,0,0,0,0,0l0,0
	c-0.17,0.055-0.199,0.353-0.195,0.533C19.734,13.411,19.767,13.611,19.837,13.823z"></path>
<path d="M14.41,5.58l-1.105-0.337l0.73,0.61C14.142,5.774,14.267,5.681,14.41,5.58z"></path>
<path d="M17.215,14.762c0.217,0.084,0.365,0.149,0.406,0.101c0.021-0.023,0.007-0.08-0.044-0.154
	c-0.135-0.197-0.393-0.365-0.623-0.45c-0.525-0.195-1.14-0.084-1.587,0.271c-0.222,0.18-0.321,0.366-0.219,0.381
	c0.062,0.009,0.192-0.045,0.376-0.114C16.249,14.523,16.658,14.555,17.215,14.762z"></path>
<path d="M17.297,15.418c0.135,0.009,0.226,0.017,0.247-0.02c0.047-0.079-0.312-0.35-0.802-0.267
	c-0.061,0.009-0.118,0.028-0.173,0.043c-0.02,0.005-0.04,0.012-0.059,0.02c-0.121,0.051-0.225,0.105-0.326,0.202
	c-0.116,0.112-0.149,0.216-0.116,0.242c0.033,0.026,0.113-0.013,0.238-0.063C16.721,15.403,17.016,15.398,17.297,15.418z"></path>
<polygon points="6.27,18.596 6.27,18.596 6.27,18.595 "></polygon>
<path d="M8.661,17.572c0.128,0.181,0.087,0.286,0.14,0.337c0.019,0.019,0.046,0.024,0.073,0.013c0.073-0.03,0.108-0.145,0.115-0.225
	h0c0,0,0-0.001,0-0.001h0c0.018-0.193-0.084-0.41-0.22-0.564l0,0c0,0,0,0,0,0l0,0c-0.177-0.205-0.455-0.362-0.77-0.411
	c-0.287-0.045-0.57,0.012-0.648,0.036l0,0C7.31,16.77,7.259,16.78,7.216,16.797c-0.772,0.3-1.107,1.051-0.946,1.799
	c0.04,0.181,0.121,0.384,0.247,0.517v0c0,0,0,0,0,0v0c0.158,0.17,0.331,0.138,0.257-0.021c-0.018-0.044-0.113-0.223-0.126-0.548
	c-0.013-0.334,0.065-0.681,0.279-0.947c0.159-0.194,0.355-0.281,0.378-0.294v0c0.027-0.015,0.056-0.024,0.087-0.039
	c0.012-0.005,0.026-0.009,0.041-0.014c0.098-0.028,0.043-0.016,0.142-0.037l0,0C8.107,17.102,8.491,17.332,8.661,17.572z"></path>
<path d="M8.421,18.126c-0.052-0.041-0.076-0.076-0.09-0.129c-0.021-0.098-0.01-0.155,0.074-0.213
	c0.065-0.044,0.117-0.065,0.117-0.093c0.003-0.052-0.213-0.106-0.364,0.042c-0.125,0.133-0.165,0.411,0.035,0.627
	c0.223,0.24,0.569,0.296,0.623,0.597c0.007,0.043,0.012,0.09,0.009,0.137c0.001,0.054-0.017,0.131-0.018,0.136
	c-0.067,0.291-0.344,0.569-0.801,0.498c-0.084-0.012-0.139-0.023-0.155,0.001c-0.035,0.049,0.161,0.272,0.519,0.264
	c0.512-0.011,0.935-0.529,0.834-1.109C9.111,18.379,8.608,18.275,8.421,18.126z"></path>
<path d="M20.336,14.824c-0.03,0.189,0.059,0.36,0.197,0.382c0.139,0.022,0.275-0.115,0.305-0.304c0.03-0.189-0.059-0.36-0.197-0.382
	S20.365,14.634,20.336,14.824z"></path>
<path d="M19.325,15.512c0.191,0.104,0.407,0.076,0.483-0.062c0.076-0.139-0.017-0.335-0.207-0.439
	c-0.191-0.104-0.407-0.076-0.483,0.062C19.042,15.211,19.134,15.408,19.325,15.512z"></path></symbol><symbol id="templates/_global/social/myspace" viewBox="0 0 30 30"><path d="M7.5,24h-7C0.2,24,0,23.8,0,23.5V22c0-2.2,1.8-4,4-4h0c2.2,0,4,1.8,4,4v1.5C8,23.8,7.8,24,7.5,24z"></path>
<path d="M13.5,17L13.5,17C11,17,9,19,9,21.5v2C9,23.8,9.2,24,9.5,24h8c0.3,0,0.5-0.2,0.5-0.5v-2C18,19,16,17,13.5,17z"></path>
<path d="M28.5,24h-9c-0.3,0-0.5-0.2-0.5-0.5l0-2.5c0-2.8,2.2-5,5-5h0c2.8,0,5,2.2,5,5l0,2.5C29,23.8,28.8,24,28.5,24z"></path>
<circle cx="4" cy="13.5" r="3.5"></circle>
<circle cx="13.5" cy="12" r="4"></circle>
<circle cx="24" cy="10.5" r="4.5"></circle></symbol><symbol id="templates/_global/social/paypal" viewBox="0 0 30 30"><path opacity="0.4" d="M10.235,24.338l-0.317,2.014C9.865,26.693,10.127,27,10.47,27h3.874c0.459,0,0.848-0.334,0.921-0.787
	l0.038-0.197l0.729-4.638l0.047-0.255c0.071-0.455,0.462-0.789,0.921-0.789h0.579c3.753,0,6.692-1.527,7.551-5.946
	c0.359-1.846,0.173-3.387-0.776-4.471c-0.287-0.327-0.644-0.598-1.06-0.819 M23.294,9.098c0.292-1.867-0.002-3.137-1.01-4.288
	C21.174,3.542,19.17,3,16.605,3H9.161C8.637,3,8.19,3.382,8.109,3.901L5.008,23.597c-0.061,0.39,0.239,0.741,0.631,0.741h4.596"></path>
<path opacity="0.7" d="M22.266,8.687c-0.15-0.044-0.305-0.084-0.464-0.119c-0.16-0.035-0.323-0.066-0.491-0.093
	c-0.589-0.095-1.234-0.141-1.926-0.141h-5.835c-0.144,0-0.28,0.033-0.402,0.091c-0.269,0.13-0.469,0.385-0.517,0.697l-1.241,7.878
	l-0.036,0.23c0.082-0.519,0.524-0.9,1.048-0.9h2.184c4.29,0,7.649-1.746,8.631-6.796c0.029-0.15,0.054-0.295,0.076-0.437
	c-0.248-0.132-0.517-0.245-0.807-0.341C22.415,8.733,22.341,8.71,22.266,8.687z"></path>
<path d="M12.631,9.123c0.048-0.313,0.248-0.568,0.517-0.697c0.123-0.059,0.259-0.091,0.402-0.091h5.835
	c0.691,0,1.337,0.045,1.926,0.141c0.168,0.027,0.332,0.058,0.491,0.093c0.159,0.036,0.314,0.076,0.464,0.119
	c0.075,0.022,0.148,0.045,0.221,0.068c0.29,0.096,0.559,0.21,0.807,0.341c0.292-1.867-0.002-3.137-1.01-4.288
	C21.174,3.542,19.17,3,16.605,3H9.161C8.637,3,8.19,3.382,8.109,3.901L5.008,23.597c-0.061,0.39,0.239,0.741,0.631,0.741h4.596
	l1.154-7.337L12.631,9.123z"></path></symbol><symbol id="templates/_global/social/periscope" viewBox="0 0 30 30"><path d="M15,3c-4.9036,0-9,4.2153-9,9.3913C6,19.3603,13.2217,27,15,27c1.7782,0,9-7.6397,9-14.6087C24,7.2153,19.9045,3,15,3z
	 M15,17c-2.7614,0-5-2.2386-5-5c0-0.1617,0.0325-0.3143,0.0475-0.472C10.4576,11.8223,10.9567,12,11.5,12
	c1.3807,0,2.5-1.1193,2.5-2.5c0-0.8457-0.4225-1.5901-1.0652-2.0425C13.5659,7.17,14.2613,7,15,7c2.7614,0,5,2.2386,5,5
	S17.7614,17,15,17z"></path></symbol><symbol id="templates/_global/social/pinterest" viewBox="0 0 30 30"><path d="M15,3C8.373,3,3,8.372,3,15c0,4.914,2.971,9.144,7.2,11c-0.034-0.839-0.065-1.84,0.15-2.75C10.581,22.274,12,16.7,12,16.7
	s-0.5-0.769-0.5-1.9c0-1.777,1.216-3.1,2.5-3.1c1.091,0,1.5,0.818,1.5,1.8c0,1.097-0.741,2.68-1.1,4.2
	c-0.301,1.272,0.697,2.4,1.95,2.4c2.274,0,3.65-3.04,3.65-6.5c0-2.629-1.779-4.6-5-4.6c-3.64,0-5.8,2.468-5.8,5.5
	c0,1.046,0.318,2.129,0.8,2.7c0.223,0.263,0.282,0.349,0.2,0.65c-0.056,0.222-0.245,0.69-0.3,0.9c-0.08,0.305-0.325,0.463-0.6,0.35
	C7.623,18.417,7,16.564,7,14.5C7,11.092,9.797,7,15.5,7c4.581,0,7.5,3.441,7.5,7c0,4.707-2.642,8.1-6.5,8.1
	c-1.296,0-2.434-0.706-2.85-1.5c0,0-0.754,2.868-0.9,3.4c-0.255,0.923-0.745,1.829-1.2,2.55C12.627,26.869,13.819,27,15,27
	c6.627,0,12-5.371,12-12S21.628,3,15,3z"></path></symbol><symbol id="templates/_global/social/pocket" viewBox="0 0 30 30"><path d="M25,4H5C3.895,4,3,4.895,3,6v7.6c0,6.627,5.373,12,12,12s12-5.373,12-12V6C27,4.895,26.105,4,25,4z M21.9,13L16,18.5
	c-0.3,0.286-0.614,0.5-1,0.5c-0.385,0-0.8-0.216-1.1-0.5L8.1,13c-0.623-0.589-0.691-1.629-0.1-2.25c0.59-0.621,1.627-0.591,2.25,0
	L15,15.2l4.75-4.45c0.62-0.591,1.658-0.62,2.25,0C22.593,11.369,22.521,12.409,21.9,13z"></path></symbol><symbol id="templates/_global/social/print" viewBox="0 0 30 30"><path d="M26,22L26,22L26,22v-5H4v5l0,0l0,0c-1.105,0-2-0.895-2-2V10c0-1.104,0.896-2,2-2h22c1.104,0,2,0.896,2,2v10
	C28,21.105,27.104,22,26,22z M26,10h-2v2h2V10z M24,27H6v-8h18V27z"></path>
<path d="M6,3h18v3H6V3z"></path></symbol><symbol id="templates/_global/social/qq" viewBox="0 0 30 30"><path d="M15.001,4c4.421,0,7.128,3.036,7.128,6.77c0,0.052,1.423,1.034,0.892,3.384c1.781,1.058,1.84,4.412,1.79,5.346
	c-0.013,0.27,0,1.25-0.545,1.5c-0.102,0.048-0.205,0.066-0.303,0.066c-0.423,0-0.787-0.36-0.961-0.432
	c-0.031,0.572-0.24,1.18-0.617,1.756c0.323,0.368,0.634,0.88,0.634,1.492c0,1.494-1.192,2.116-3.464,2.116
	c-1.838,0-3.817-0.948-4.281-2h-0.545c-0.464,1.052-2.444,2-4.281,2c-2.274,0-3.464-0.62-3.464-2.116
	c0-0.624,0.325-1.146,0.652-1.514c-0.373-0.574-0.578-1.178-0.604-1.748c-0.185,0.076-0.567,0.442-0.994,0.442
	c-0.098,0-0.201-0.02-0.301-0.066C5.192,20.75,5.205,19.77,5.192,19.5c-0.05-0.934,0.009-4.288,1.792-5.346
	C6.45,11.802,7.873,10.82,7.873,10.77C7.873,7.036,10.58,4,15.001,4 M15.001,2c-5.127,0-8.918,3.334-9.279,8.028
	c-0.735,0.956-1.086,2.112-1.031,3.376c-1.787,2.056-1.718,5.44-1.676,6.194c0.022,0.636,0.085,2.428,1.748,3.19
	c0.061,0.028,0.122,0.054,0.185,0.078c-0.096,0.334-0.144,0.676-0.144,1.018c0,1.238,0.549,4.116,5.643,4.116
	c1.5,0,3.241-0.478,4.554-1.334C16.313,27.522,18.055,28,19.555,28c5.094,0,5.643-2.878,5.643-4.116
	c0-0.342-0.048-0.684-0.144-1.018c0.063-0.024,0.124-0.05,0.185-0.078c1.661-0.762,1.724-2.554,1.746-3.144
	c0.041-0.794,0.113-4.184-1.674-6.242c0.054-1.268-0.296-2.428-1.031-3.38C23.916,5.332,20.128,2,15.001,2L15.001,2z"></path></symbol><symbol id="templates/_global/social/reddit" viewBox="0 0 30 30"><g>
	<path d="M27.995,13.961v-0.002h0.001v-0.002c-0.06-0.731-0.37-1.405-0.83-1.937c-0.46-0.531-1.072-0.926-1.748-1.1v-0.001
		c-0.003,0-0.007-0.001-0.011-0.002l-0.012-0.004h-0.001c-0.286-0.074-0.581-0.113-0.875-0.113c-0.664,0-1.327,0.188-1.887,0.567
		c-0.153,0.093-0.287,0.2-0.414,0.305c-0.059-0.032-0.124-0.068-0.159-0.089l-0.026-0.016h-0.003
		c-1.847-1.078-3.954-1.588-6.047-1.727c0.011-0.857,0.086-1.72,0.459-2.459V7.38V7.38c0.246-0.503,0.754-0.852,1.3-0.906h0.001
		c0.106-0.011,0.211-0.017,0.317-0.017c0.73-0.001,1.464,0.259,2.155,0.571c-0.001,0.037-0.004,0.076-0.004,0.113
		c0,0.775,0.326,1.493,0.832,2.03c0.504,0.538,1.191,0.9,1.927,0.957c0.12,0.016,0.24,0.023,0.359,0.023
		c0.742,0,1.466-0.298,2.024-0.792c0.555-0.492,0.947-1.182,1.012-1.968c0.001-0.002,0.001-0.004,0.001-0.006l0.001-0.002
		c0.013-0.112,0.019-0.225,0.019-0.337c0-0.608-0.194-1.2-0.523-1.694c-0.329-0.492-0.792-0.888-1.34-1.102
		c-0.002,0-0.004-0.002-0.007-0.003c0,0-0.001,0-0.001-0.001v0.001C24.132,4.075,23.724,4,23.32,4c-0.383,0-0.765,0.067-1.127,0.181
		l-0.006,0.002l-0.006,0.003c-0.616,0.247-1.141,0.687-1.509,1.251C19.84,5.1,18.952,4.884,18.053,4.884
		c-0.337,0-0.677,0.03-1.014,0.097l-0.005,0.001l-0.004,0.002c-0.884,0.22-1.627,0.854-2.055,1.668
		c-0.514,0.98-0.643,2.1-0.662,3.17c-2.127,0.126-4.31,0.561-6.187,1.69c-0.123,0.047-0.232,0.108-0.333,0.161
		c-0.31-0.25-0.657-0.43-1.007-0.58l-0.002-0.001L6.782,11.09c-0.41-0.159-0.841-0.23-1.272-0.23c-0.091,0-0.181,0.004-0.271,0.01
		c-0.012,0-0.024,0-0.036,0c-0.857,0-1.656,0.402-2.241,1.016C2.377,12.501,2,13.334,2,14.214v0.005v0.002v0.002
		c0.027,0.628,0.239,1.223,0.574,1.73c0.314,0.472,0.736,0.868,1.224,1.147c-0.034,0.255-0.051,0.512-0.051,0.769
		c0,1.137,0.32,2.268,0.903,3.232c1.083,1.807,2.85,3.041,4.704,3.817h0.002l0.001,0.002C11.145,25.649,13.062,26,14.98,26
		c1.287,0,2.574-0.157,3.822-0.465l0.002-0.001h0.001c2.34-0.606,4.658-1.809,6.168-3.847h0.002v-0.001
		c0.816-1.088,1.285-2.445,1.286-3.826c0-0.256-0.019-0.514-0.051-0.769c0.501-0.278,0.936-0.688,1.251-1.177
		C27.797,15.391,28,14.775,28,14.133C28,14.076,27.999,14.019,27.995,13.961z M22.155,6.123c0.203-0.25,0.485-0.439,0.786-0.519
		l0.003-0.001l0.004,0c0.115-0.036,0.231-0.052,0.349-0.052c0.366-0.001,0.736,0.167,1.012,0.437
		c0.276,0.271,0.453,0.636,0.453,1.02c0,0.029-0.001,0.056-0.003,0.085v0.002l-0.001,0.002c-0.014,0.372-0.19,0.718-0.456,0.973
		c-0.266,0.253-0.62,0.409-0.976,0.409c-0.025,0-0.051,0-0.076-0.002h-0.005h-0.005c-0.353-0.001-0.701-0.159-0.964-0.413
		c-0.261-0.254-0.433-0.598-0.446-0.967V7.091V7.089c-0.003-0.03-0.003-0.06-0.003-0.088C21.827,6.68,21.951,6.372,22.155,6.123z
		 M4.285,15.425c-0.15-0.139-0.283-0.298-0.384-0.473c-0.137-0.235-0.217-0.492-0.217-0.759c0-0.034,0.001-0.068,0.004-0.103
		l0.001-0.004v-0.004c0.016-0.432,0.222-0.825,0.533-1.115c0.311-0.291,0.726-0.473,1.136-0.485l0.007-0.001h0.007
		c0.048-0.005,0.096-0.008,0.144-0.008c0.286-0.001,0.575,0.093,0.855,0.226C5.515,13.452,4.765,14.358,4.285,15.425z M24.53,18.715
		L24.53,18.715l-0.001,0.003c-0.134,0.702-0.435,1.348-0.846,1.926c-0.41,0.578-0.928,1.086-1.487,1.505l-0.001,0.001
		c-1.757,1.325-3.929,1.974-6.093,2.155c-0.361,0.026-0.727,0.04-1.09,0.04c-2.149,0-4.313-0.467-6.193-1.532
		c-0.147-0.084-0.291-0.17-0.434-0.26c-0.647-0.416-1.262-0.926-1.764-1.525c-0.502-0.597-0.889-1.282-1.087-2.05l-0.001-0.001
		c-0.091-0.342-0.135-0.693-0.135-1.045c0-0.955,0.323-1.914,0.875-2.686v-0.001c1.089-1.547,2.787-2.545,4.548-3.112
		c1.355-0.424,2.77-0.637,4.186-0.637c1.054,0,2.109,0.118,3.138,0.356c0.344,0.08,0.686,0.173,1.024,0.278l0.012,0.004
		c1.761,0.561,3.454,1.566,4.545,3.108c0.547,0.769,0.885,1.725,0.885,2.676C24.612,18.187,24.585,18.453,24.53,18.715z
		 M26.115,14.931c-0.1,0.188-0.234,0.357-0.391,0.496c-0.487-1.071-1.241-1.982-2.1-2.74c0.27-0.138,0.575-0.207,0.881-0.207
		c0.339,0,0.676,0.084,0.964,0.249c0.288,0.164,0.528,0.405,0.68,0.723l0.001,0.003l0.003,0.003
		c0.114,0.214,0.166,0.444,0.166,0.675C26.32,14.407,26.246,14.685,26.115,14.931z"></path>
	<path d="M19.55,20.235c-0.133-0.088-0.287-0.141-0.45-0.141c-0.131,0-0.268,0.038-0.39,0.12c-1.149,0.696-2.5,1.078-3.841,1.078
		c-1.006,0-2.007-0.216-2.913-0.668l-0.005-0.002l-0.005-0.002c-0.137-0.057-0.292-0.177-0.462-0.292
		c-0.086-0.057-0.176-0.113-0.276-0.155c-0.099-0.043-0.208-0.072-0.326-0.072c-0.097,0-0.199,0.022-0.3,0.068
		c-0.005,0.002-0.01,0.004-0.015,0.006h0.001c-0.158,0.061-0.282,0.174-0.361,0.307c-0.083,0.137-0.124,0.296-0.124,0.455
		c0,0.143,0.033,0.286,0.102,0.417c0.066,0.123,0.166,0.231,0.298,0.303c1.295,0.887,2.821,1.289,4.352,1.288
		c1.38,0,2.769-0.325,4.006-0.915l0.006-0.004l0.006-0.003c0.163-0.098,0.38-0.186,0.584-0.314c0.101-0.065,0.2-0.141,0.284-0.239
		c0.085-0.098,0.153-0.218,0.191-0.361v-0.001c0.016-0.063,0.024-0.124,0.024-0.186c0-0.117-0.028-0.227-0.075-0.326
		C19.794,20.445,19.681,20.323,19.55,20.235z"></path>
	<path d="M12.629,16.548c0-0.924-0.749-1.673-1.673-1.673c-0.924,0-1.673,0.749-1.673,1.673c0,0.924,0.749,1.673,1.673,1.673
		C11.88,18.221,12.629,17.472,12.629,16.548z"></path>
	<path d="M18.956,14.875c-0.924,0-1.673,0.749-1.673,1.673c0,0.924,0.749,1.673,1.673,1.673c0.924,0,1.673-0.749,1.673-1.673
		C20.629,15.624,19.88,14.875,18.956,14.875z"></path>
</g></symbol><symbol id="templates/_global/social/rss" viewBox="0 0 30 30"><g>
	<circle cx="7" cy="23" r="2"></circle>
	<path d="M5,5v4c8.8224,0,16,7.1776,16,16h4C25,13.9543,16.0457,5,5,5z"></path>
	<path d="M5,13v4c4.4112,0,8,3.5887,8,8h4C17,18.3726,11.6274,13,5,13z"></path>
</g></symbol><symbol id="templates/_global/social/skype" viewBox="0 0 30 30"><path id="Shape" d="M15.05,22.2c-4.01,0-5.85-2.01-5.85-3.5c0-0.35,0.14-0.71,0.4-0.95c0.26-0.24,0.64-0.37,1-0.35
	c1.72,0,1.19,2.6,4.4,2.6c1.64,0,2.6-1.08,2.6-2c0-0.55-0.27-1.15-1.35-1.4l-3.55-0.9c-2.88-0.72-3.4-2.23-3.4-3.7
	c0-3.05,2.82-4.2,5.5-4.2c2.47,0,5.4,1.37,5.4,3.2c0,0.79-0.67,1.2-1.45,1.2c-1.47,0-1.2-2-4.15-2c-1.47,0-2.3,0.65-2.3,1.6
	s1.2,1.28,2.2,1.5l2.5,0.6c2.9,0.65,3.8,2.29,3.8,3.9C20.8,20.28,18.86,22.2,15.05,22.2 M26.121,16.96
	c0.11-0.65,0.17-1.31,0.17-1.98c0.01-3.33-1.46-6.49-4.009-8.63s-5.939-3.05-9.228-2.47C12.034,3.3,10.885,3,9.715,3
	C7.315,3.01,5.106,4.29,3.906,6.36s-1.21,4.61-0.02,6.68c-0.66,3.62,0.5,7.33,3.109,9.94s6.329,3.78,9.968,3.14
	c1.02,0.58,2.16,0.88,3.329,0.88c2.399-0.02,4.609-1.29,5.809-3.36C27.291,21.58,27.301,19.04,26.121,16.96"></path></symbol><symbol id="templates/_global/social/snapchat" viewBox="0 0 30 30"><path d="M15,4.5c2.66,0,4.06,1.48,4.36,1.83c0.62,0.72,1.14,1.52,1.28,3.16c0.1,1.19,0.01,2.46-0.03,3.11
	c-0.01,0.21,0.05,0.29,0.23,0.29c0.04,0,0.08-0.01,0.12-0.02c0.33-0.08,0.9-0.38,1.49-0.51c0.1-0.02,0.19-0.03,0.29-0.03
	c0.31,0,0.61,0.12,0.73,0.44c0.17,0.46-0.06,0.84-0.6,1.22c-0.32,0.23-1.49,0.96-1.75,1.21c-0.27,0.25-0.24,0.45-0.21,0.7
	c0.03,0.21,0.61,2.99,4.29,4.8c0.22,0.11,0.58,0.33-0.06,0.7c-1.02,0.57-1.69,0.51-2.22,0.85c-0.45,0.29-0.18,0.92-0.51,1.14
	c-0.4,0.28-1.58-0.02-3.1,0.49c-1.25,0.42-2.06,1.63-4.31,1.63s-3.04-1.21-4.31-1.63c-1.52-0.51-2.7-0.21-3.1-0.49
	c-0.32-0.23-0.06-0.85-0.51-1.14c-0.53-0.34-1.2-0.28-2.22-0.85C4.22,21.03,4.58,20.8,4.8,20.7c3.68-1.8,4.27-4.59,4.29-4.8
	c0.03-0.25,0.07-0.45-0.21-0.7C8.63,14.96,7.46,14.22,7.14,14c-0.54-0.38-0.77-0.76-0.6-1.22c0.12-0.32,0.42-0.44,0.73-0.44
	c0.1,0,0.2,0.01,0.29,0.03c0.59,0.13,1.16,0.43,1.49,0.51c0.04,0.01,0.08,0.02,0.12,0.02c0.18,0,0.24-0.09,0.23-0.29
	c-0.04-0.65-0.13-1.92-0.03-3.11c0.14-1.63,0.66-2.44,1.28-3.16C10.94,5.99,12.33,4.5,15,4.5 M15,2.5c-3.33,0-5.21,1.77-5.87,2.53
	C8.37,5.91,7.56,7.11,7.38,9.32C7.35,9.66,7.33,10,7.32,10.33c-0.02,0-0.03,0-0.05,0c-1.21,0-2.2,0.67-2.61,1.74
	c-0.24,0.63-0.57,2.23,1.31,3.56c0.12,0.08,0.33,0.22,0.57,0.38c0.09,0.06,0.2,0.13,0.32,0.21c-0.35,0.69-1.16,1.81-2.95,2.68
	c-1.25,0.61-1.41,1.63-1.42,2.04c-0.01,0.52,0.15,1.5,1.39,2.19c0.67,0.37,1.24,0.55,1.66,0.67c0.13,0.39,0.38,0.86,0.9,1.22
	c0.66,0.46,1.36,0.48,1.99,0.51c0.48,0.02,1.03,0.04,1.62,0.24c0.21,0.07,0.47,0.23,0.78,0.43c0.89,0.55,2.1,1.31,4.17,1.31
	c2.07,0,3.34-0.79,4.18-1.31c0.3-0.19,0.56-0.35,0.76-0.42c0.59-0.2,1.14-0.22,1.62-0.24c0.63-0.02,1.34-0.05,1.99-0.51
	c0.51-0.36,0.77-0.82,0.9-1.22c0.42-0.12,0.99-0.3,1.66-0.67c1.24-0.7,1.4-1.67,1.39-2.18c-0.01-0.41-0.16-1.42-1.4-2.05
	c-1.81-0.88-2.62-2-2.97-2.69c0.12-0.08,0.23-0.15,0.32-0.21c0.24-0.16,0.45-0.3,0.57-0.38c1.89-1.33,1.55-2.93,1.32-3.56
	c-0.41-1.08-1.41-1.74-2.6-1.74c-0.02,0-0.04,0-0.06,0c-0.01-0.33-0.02-0.67-0.05-1.01c-0.19-2.21-0.99-3.41-1.75-4.29
	C20.35,4.43,18.42,2.5,15,2.5L15,2.5z"></path></symbol><symbol id="templates/_global/social/soundcloud" viewBox="0 0 30 30"><path d="M25,13c-0.5047,0-1.0407,0.111-1.5,0.25C22.3262,9.6421,18.9863,7,15,7h-2c-0.55,0-1,0.45-1,1v14c0,0.55,0.45,1,1,1h12
	c2.7614,0,5-2.2386,5-5S27.7614,13,25,13z"></path>
<path d="M10.5,23L10.5,23c-0.275,0-0.5-0.225-0.5-0.5v-13C10,9.225,10.225,9,10.5,9h0C10.775,9,11,9.225,11,9.5v13
	C11,22.775,10.775,23,10.5,23z"></path>
<path d="M8.5,23L8.5,23C8.225,23,8,22.775,8,22.5v-11C8,11.225,8.225,11,8.5,11h0C8.775,11,9,11.225,9,11.5v11
	C9,22.775,8.775,23,8.5,23z"></path>
<path d="M4.5,23L4.5,23C4.225,23,4,22.775,4,22.5v-10C4,12.225,4.225,12,4.5,12h0C4.775,12,5,12.225,5,12.5v10
	C5,22.775,4.775,23,4.5,23z"></path>
<path d="M2.5,23L2.5,23C2.225,23,2,22.775,2,22.5v-8C2,14.225,2.225,14,2.5,14h0C2.775,14,3,14.225,3,14.5v8
	C3,22.775,2.775,23,2.5,23z"></path>
<path d="M0.5,21L0.5,21C0.225,21,0,20.775,0,20.5v-4C0,16.225,0.225,16,0.5,16h0C0.775,16,1,16.225,1,16.5v4
	C1,20.775,0.775,21,0.5,21z"></path>
<path d="M6.5,23L6.5,23C6.225,23,6,22.775,6,22.5v-9C6,13.225,6.225,13,6.5,13h0C6.775,13,7,13.225,7,13.5v9
	C7,22.775,6.775,23,6.5,23z"></path></symbol><symbol id="templates/_global/social/spotify" viewBox="0 0 30 30"><g>
	<polygon points="20.5031,20.3071 20.503,20.3073 20.5029,20.3074 	"></polygon>
	<path d="M14.9998,3.0005L15,3C8.3727,3,3,8.3726,3,14.9998C3,21.6277,8.3727,27,15,27c6.6276,0,12-5.3723,12-12.0002
		C27,8.373,21.6278,3.0005,14.9998,3.0005z M20.503,20.3073c-0.2155,0.3533-0.676,0.4641-1.0283,0.2488
		c-2.8179-1.7223-6.3647-2.1113-10.5418-1.1571c-0.4025,0.0923-0.8038-0.1601-0.8954-0.5624
		C7.9453,18.434,8.1964,18.0327,8.6,17.941c4.5711-1.045,8.4921-0.5953,11.6551,1.3375
		C20.6075,19.4949,20.7192,19.9548,20.503,20.3073z M21.9719,17.0402c-0.2714,0.4403-0.8472,0.5785-1.2869,0.308
		c-3.2249-1.9823-8.1423-2.5565-11.9576-1.3984c-0.4948,0.1495-1.0174-0.1294-1.1676-0.6234c-0.149-0.4948,0.13-1.0164,0.624-1.1669
		c4.358-1.3223,9.7758-0.6818,13.4799,1.5945c0.4399,0.2708,0.5789,0.8469,0.3081,1.2862L21.9719,17.0402z M22.0981,13.6378H22.098
		c-3.8681-2.2972-10.2485-2.5084-13.9411-1.3877c-0.593,0.1799-1.22-0.1549-1.3997-0.7479
		c-0.1797-0.5932,0.1547-1.2198,0.7481-1.4001c4.2388-1.2868,11.2854-1.0382,15.7382,1.6052
		c0.5333,0.3165,0.7083,1.0054,0.3922,1.538C23.3204,13.7786,22.6298,13.9544,22.0981,13.6378z"></path>
</g></symbol><symbol id="templates/_global/social/stripe" viewBox="0 0 30 30"><path d="M3,3v24h24V3H3z M14.5,22c-1.354,0-2.835-0.285-4.3-0.9v-3.6c1.323,0.708,2.993,1.2,4.3,1.2c0.882,0,1.5-0.242,1.5-0.95
	c0-1.831-6-1.204-6-5.45C10,9.577,12.103,8,15.3,8c1.307,0,2.593,0.192,3.9,0.7v3.6c-1.197-0.631-2.703-1-3.9-1
	c-0.835,0-1.3,0.3-1.3,0.9c0,1.723,5.984,0.865,6,5.45C20,20.404,17.776,22,14.5,22z"></path></symbol><symbol id="templates/_global/social/telegram" viewBox="0 0 30 30"><path d="M4.4725,13.7153c0,0,10.6075-4.3888,14.2973-5.9387c1.4099-0.62,6.1987-2.5989,6.1987-2.5989s2.2099-0.87,2.0199,1.2399
	c-0.06,0.87-0.55,3.8988-1.0399,7.1687c-0.74,4.6388-1.5299,9.7076-1.5299,9.7076s-0.12,1.4199-1.1699,1.6699
	c-1.0399,0.25-2.7599-0.87-3.0698-1.11c-0.25-0.19-4.5988-2.9689-6.1987-4.3288c-0.43-0.37-0.92-1.11,0.06-1.9799
	c2.2099-2.0399,4.8488-4.5788,6.4387-6.1787c0.74-0.74,1.4699-2.4699-1.5999-0.37c-4.3588,3.0289-8.6486,5.8687-8.6486,5.8687
	s-0.9799,0.62-2.8199,0.06c-1.8399-0.56-3.9888-1.2999-3.9888-1.2999S1.9627,14.7053,4.4725,13.7153z"></path></symbol><symbol id="templates/_global/social/tiktok" viewBox="0 0 30 30"><path d="M20,2h-4v18c0,2.21-1.79,4-4,4s-4-1.79-4-4s1.79-4,4-4h1v-4h-1c-4.42,0-8,3.58-8,8s3.58,8,8,8s8-3.58,8-8V9.99
	c1.67,1.26,3.75,2.01,6,2.01V8C22.69,8,20,5.31,20,2z"></path></symbol><symbol id="templates/_global/social/tumblr" viewBox="0 0 30 30"><path d="M20,22.5c-0.367,0.2463-1,0.5-2,0.5c-2.0417,0-2-1.457-2-2.4V13h4V9h-4V3l-4.7007,0c-0.1654,0-0.2992,0.1342-0.2995,0.2996
	C10.9945,6.1965,10.8335,9,6,9v4h4l-0.025,7.8667C9.975,23.4494,10.893,27,16,27c3,0,5-1,5-1L20,22.5z"></path></symbol><symbol id="templates/_global/social/twitter" viewBox="0 0 30 30"><path d="M6.2,12.641c-0.679,0.0082-1.536-0.3395-2.2-0.7179c0,2.8636,1.647,4.6656,3.9,5.1282c0,0-0.982,0.3138-2.2,0
	c0.627,2.0062,2.445,3.5487,4.6,3.5897c0,0-1.862,2.0728-7.3,1.5385C4.875,24.2523,7.767,25,10.548,25h0.002
	c9.057,0,14-7.6872,14-14.359c0-0.2185-0.04-0.4503-0.05-0.6667C25.461,9.2615,26.341,8.32,27,7.3077
	c-0.882,0.4021-1.804,0.6985-2.8,0.8205c1.017-0.6246,1.732-1.5908,2.1-2.7692c-0.952,0.5785-1.978,1.0041-3.1,1.2308
	C22.301,5.6082,21.016,5,19.6,5c-2.719,0-4.908,2.2615-4.908,5.0482c0,0.3959,0.024,0.7867,0.108,1.1569
	C10.708,10.9938,7.428,8.8246,5,5.7692C5,5.7692,2.125,9.359,6.2,12.641z"></path></symbol><symbol id="templates/_global/social/viber" viewBox="0 0 30 30"><path d="M18,3h-6c-4.95,0-9,4.05-9,9v4c0,3.831,2.43,7.114,5.822,8.406v2.533C8.822,27.579,9.341,28,9.88,28
	c0.264,0,0.534-0.101,0.749-0.327L13.181,25H18c4.95,0,9-4.05,9-9v-4C27,7.05,22.95,3,18,3z M25,16c0,3.86-3.14,7-7,7h-4.8L10,26.5
	v-3.8l-0.5-0.2C6.788,21.466,5,18.877,5,16v-4c0-3.86,3.14-7,7-7h6c3.86,0,7,3.14,7,7V16z"></path>
<path d="M18.829,20c-0.246-0.074-0.48-0.124-0.698-0.213c-2.256-0.927-4.332-2.123-5.977-3.957c-0.935-1.043-1.667-2.22-2.286-3.465
	c-0.293-0.591-0.541-1.205-0.793-1.814C8.845,9.994,9.184,9.42,9.54,9.001c0.334-0.393,0.765-0.694,1.231-0.916
	c0.364-0.173,0.723-0.073,0.988,0.232c0.574,0.66,1.102,1.355,1.529,2.12c0.263,0.471,0.191,1.046-0.286,1.367
	c-0.116,0.078-0.221,0.169-0.329,0.257c-0.095,0.077-0.184,0.155-0.248,0.259c-0.118,0.191-0.124,0.416-0.048,0.624
	c0.587,1.598,1.577,2.841,3.201,3.511c0.26,0.107,0.521,0.232,0.82,0.197c0.501-0.058,0.664-0.603,1.015-0.887
	c0.343-0.278,0.782-0.282,1.152-0.05c0.37,0.232,0.729,0.481,1.085,0.733c0.35,0.247,0.698,0.489,1.021,0.77
	c0.31,0.271,0.417,0.626,0.243,0.994c-0.32,0.673-0.786,1.233-1.457,1.59C19.269,19.902,19.043,19.935,18.829,20
	C18.583,19.926,19.043,19.935,18.829,20z"></path>
<path d="M15.006,7.774c2.904,0.082,5.289,2.024,5.801,4.918c0.087,0.493,0.118,0.997,0.157,1.498c0.016,0.21-0.102,0.41-0.327,0.413
	c-0.233,0.003-0.338-0.193-0.353-0.404c-0.03-0.416-0.051-0.835-0.108-1.248c-0.301-2.18-2.026-3.984-4.179-4.371
	c-0.324-0.058-0.656-0.074-0.984-0.108c-0.208-0.022-0.479-0.035-0.525-0.295c-0.039-0.218,0.144-0.391,0.35-0.403
	C14.894,7.771,14.95,7.773,15.006,7.774C15.006,7.774,14.95,7.773,15.006,7.774z"></path>
<path d="M19.42,13.54c-0.005,0.037-0.007,0.122-0.029,0.203c-0.077,0.294-0.519,0.331-0.621,0.034
	c-0.03-0.088-0.035-0.188-0.035-0.283c-0.001-0.62-0.135-1.239-0.445-1.779c-0.319-0.554-0.806-1.02-1.377-1.302
	c-0.345-0.17-0.719-0.276-1.098-0.34c-0.166-0.028-0.333-0.044-0.499-0.068c-0.202-0.028-0.309-0.158-0.3-0.358
	c0.009-0.188,0.145-0.322,0.348-0.311c0.666,0.038,1.31,0.183,1.903,0.5c1.205,0.643,1.893,1.658,2.094,3.014
	c0.009,0.061,0.024,0.122,0.028,0.184C19.401,13.186,19.408,13.339,19.42,13.54C19.415,13.576,19.408,13.339,19.42,13.54z"></path>
<path d="M17.613,13.469c-0.243,0.004-0.373-0.131-0.398-0.356c-0.017-0.157-0.031-0.315-0.068-0.467
	c-0.073-0.3-0.231-0.578-0.482-0.762c-0.118-0.087-0.252-0.15-0.392-0.191c-0.178-0.052-0.363-0.038-0.541-0.082
	c-0.193-0.048-0.3-0.205-0.27-0.388c0.028-0.166,0.188-0.296,0.368-0.283c1.126,0.082,1.931,0.669,2.046,2.004
	c0.008,0.094,0.018,0.194-0.003,0.284C17.837,13.384,17.724,13.461,17.613,13.469C17.37,13.473,17.724,13.461,17.613,13.469z"></path></symbol><symbol id="templates/_global/social/vimeo" viewBox="0 0 30 30"><path d="M25.9999,10.5238c-0.0083,2.1398-1.6903,4.8794-4.5833,8.5952C18.4255,22.9996,16.1531,25,14.0833,25
	c-1.2824,0-2.5052-1.2549-3.3917-3.619c-0.5922-2.1669-1.2412-4.2569-1.8333-6.4238c-0.6582-2.3623-1.353-3.5286-2.1083-3.5286
	c-0.3162,0-0.847,0.2162-1.8333,0.9048L4,10.9762c1.0853-0.9518,2.1257-1.7923,3.2083-2.7143
	c1.5088-1.2857,2.4832-1.7435,3.2083-1.8095C12.129,6.2886,13.229,7.2992,13.625,9.8c0.4272,2.698,0.7507,4.1384,0.9167,4.7952
	c0.4941,2.2384,1.0111,3.619,1.6042,3.619c0.4602,0,1.1403-0.8089,2.0625-2.2619c0.9212-1.4521,1.3081-2.4076,1.375-3.1667
	c0.132-1.2531-0.2567-1.9905-1.375-1.9905c-0.5271,0-1.2751,0.123-1.8333,0.3619C17.4566,7.6222,19.7409,6.0054,22.7916,6
	C25.0741,5.9964,26.0109,7.6023,25.9999,10.5238z"></path></symbol><symbol id="templates/_global/social/vk" viewBox="0 0 30 30"><path id="path9" d="M14.1957,23.9985h1.7327c0,0,0.5232-0.0595,0.7915-0.3558c0.2465-0.272,0.238-0.782,0.238-0.782
	s-0.0411-2.4614,1.0392-2.8124c1.0645-0.3473,2.4312,2.3096,3.8787,3.3309c0.9461,0.6545,1.5974,0.6205,1.9285,0.6205
	s3.741,0,3.9053,0c0.1631,0,1.9418-0.2477,1.0331-1.8373c-0.0785-0.1336-0.5595-1.2107-2.8795-3.4232
	c-2.4287-2.3157-2.1037-1.9417,0.8217-5.9477c1.7811-2.4396,2.494-3.9283,2.2705-4.5671c-0.2127-0.6072-1.5225-0.4469-1.5225-0.4469
	l-4.3609,0.0279c0,0-0.3226-0.0449-0.5631,0.102c-0.2344,0.1445-0.3843,0.4809-0.3843,0.4809s-0.6912,1.8883-1.6107,3.4936
	c-1.9418,3.388-2.7175,3.5665-3.0353,3.3564c-0.7383-0.4906-0.5534-1.9696-0.5534-3.02c0-3.2835,0.4845-4.6521-0.9437-5.0066
	c-0.4737-0.1178-0.8229-0.1955-2.036-0.2076c-1.5563-0.017-2.8734,0.0036-3.619,0.3789C9.8312,7.6331,9.4482,8.1892,9.6814,8.2208
	c0.2888,0.0401,0.9413,0.1809,1.2869,0.6642c0.4471,0.6254,0.4314,2.0279,0.4314,2.0279s0.2574,3.8652-0.5993,4.3448
	c-0.5885,0.3291-1.3944-0.3424-3.126-3.4159C6.7874,10.2682,6.118,8.5268,6.118,8.5268S5.9887,8.2014,5.7591,8.0277
	c-0.435-0.2999-0.6706-0.2781-0.6706-0.2781L0.9669,7.7278c0,0-0.644,0.0862-0.8724,0.3643
	c-0.203,0.2477-0.0157,0.7286-0.0157,0.7286S3.3231,16.63,6.9965,20.5595C10.3641,24.1636,14.1957,23.9985,14.1957,23.9985
	L14.1957,23.9985L14.1957,23.9985z"></path></symbol><symbol id="templates/_global/social/wechat" viewBox="0 0 30 30"><path d="M20.453,10.899C20.306,9.328,19.747,8,18.836,6.816c-2.522-3.276-7.183-4.651-11.33-3.303
	C4.468,4.501,2.232,6.396,1.321,9.519c-0.984,3.377,0.331,6.656,3.451,8.848c0.486,0.342,0.559,0.634,0.401,1.159
	C4.957,20.24,4.788,20.952,4.6,21.8c1.027-0.639,1.94-1.181,2.843-1.688c0.272-0.153,0.654-0.191,0.975-0.164
	c0.931,0.078,1.856,0.216,2.872,0.341c-0.231-2.718,0.615-4.91,2.469-6.7C15.594,11.818,17.854,11.034,20.453,10.899z M8,10.25
	c-0.69,0-1.25-0.56-1.25-1.25S7.31,7.75,8,7.75S9.25,8.31,9.25,9S8.69,10.25,8,10.25z M13.75,9c0-0.69,0.56-1.25,1.25-1.25
	S16.25,8.31,16.25,9s-0.56,1.25-1.25,1.25S13.75,9.69,13.75,9z"></path>
<path d="M27.475,14.975c-2.599-3.334-8.005-4.135-11.692-1.732c-4.148,2.703-4.66,7.762-1.075,11.061
	c1.885,1.734,4.171,2.442,6.723,2.182c0.838-0.085,1.679-0.545,2.48-0.462c0.804,0.083,1.766,0.611,2.589,0.976l-0.368-0.588
	c-0.514-0.932-0.226-1.514,0.576-2.222C29.476,21.746,29.743,17.884,27.475,14.975z M17,18c-0.552,0-1-0.448-1-1s0.448-1,1-1
	s1,0.448,1,1S17.552,18,17,18z M23,18c-0.552,0-1-0.448-1-1s0.448-1,1-1s1,0.448,1,1S23.552,18,23,18z"></path></symbol><symbol id="templates/_global/social/whatsapp" viewBox="0 0 30 30"><path d="M2,28l1.84-6.68C2.7,19.37,2,17.27,2,15C2,7.9,7.86,2,15,2c3.46,0,6.77,1.34,9.21,3.78C26.66,8.21,28,11.56,28,15
	c0,7.1-5.87,12.78-13,12.78c0,0,0,0,0,0l0,0c-2.17,0-4.25-0.55-6.14-1.57L2,28z M9.15,23.8l0.43,0.3c1.65,0.98,3.49,1.52,5.42,1.52
	l0,0c5.93,0,10.81-4.71,10.81-10.62c0-2.86-1.2-5.56-3.23-7.58C20.55,5.39,17.87,4.17,15,4.17C9.06,4.17,4.17,9.1,4.17,15
	c0,2.02,0.66,3.71,1.73,5.42L6.25,21l-1.14,3.94L9.15,23.8z"></path>
<path fill-rule="evenodd" clip-rule="evenodd" d="M21.45,17.89c-0.08-0.13-0.29-0.21-0.61-0.37c-0.32-0.16-1.89-0.92-2.19-1.03
	c-0.29-0.11-0.51-0.16-0.72,0.16c-0.21,0.32-0.83,1.03-1.01,1.24c-0.19,0.21-0.37,0.24-0.69,0.08c-0.32-0.16-1.35-0.49-2.57-1.57
	c-0.95-0.84-1.59-1.87-1.78-2.19c-0.19-0.32-0.02-0.49,0.14-0.64c0.14-0.14,0.32-0.37,0.48-0.55c0.16-0.18,0.21-0.32,0.32-0.53
	c0.11-0.21,0.05-0.4-0.03-0.55c-0.08-0.16-0.72-1.71-0.99-2.35c-0.26-0.62-0.52-0.53-0.72-0.54c-0.19-0.01-0.4-0.01-0.61-0.01
	c-0.21,0-0.56,0.08-0.85,0.4C9.33,9.75,8.5,10.52,8.5,12.07c0,1.55,1.15,3.06,1.31,3.27c0.16,0.21,2.26,3.4,5.46,4.77
	c0.76,0.33,1.36,0.52,1.82,0.67c0.77,0.24,1.46,0.21,2.01,0.13c0.61-0.09,1.89-0.76,2.16-1.5C21.53,18.66,21.53,18.03,21.45,17.89z"></path></symbol><symbol id="templates/_global/social/yelp" viewBox="0 0 30 30"><path d="M24.12,15.17l-5.59,1.61c-1.07,0.31-1.95-0.9-1.32-1.83l3.25-4.85c0.37-0.55,1.11-0.7,1.66-0.33
	c0.04,0.03,0.08,0.06,0.12,0.09c1.14,1.01,2.04,2.26,2.64,3.66c0.26,0.61-0.01,1.32-0.62,1.59C24.23,15.14,24.18,15.15,24.12,15.17
	L24.12,15.17z M18.51,18.71l5.53,1.81c0.63,0.21,0.97,0.89,0.77,1.52c-0.02,0.05-0.04,0.1-0.06,0.15c-0.65,1.38-1.59,2.59-2.76,3.56
	c-0.51,0.42-1.27,0.35-1.69-0.16c-0.03-0.04-0.06-0.08-0.09-0.13l-3.09-4.96C16.52,19.55,17.44,18.37,18.51,18.71L18.51,18.71z
	 M13.14,13.8L7.68,4.28C7.35,3.7,7.55,2.97,8.12,2.63C8.15,2.62,8.17,2.61,8.2,2.59c1.85-0.89,3.84-1.43,5.89-1.59
	c0.7-0.05,1.29,0.5,1.29,1.2v10.99C15.38,14.43,13.75,14.86,13.14,13.8L13.14,13.8z M12.18,18.49l-5.64,1.42
	c-0.64,0.16-1.29-0.23-1.45-0.88c-0.01-0.05-0.02-0.1-0.03-0.15c-0.17-1.52-0.01-3.05,0.48-4.5c0.21-0.63,0.89-0.97,1.52-0.76
	c0.05,0.02,0.1,0.04,0.14,0.06l5.22,2.56C13.43,16.73,13.28,18.22,12.18,18.49L12.18,18.49z M13.18,20.15
	c0.75-0.84,2.13-0.28,2.09,0.85l-0.21,5.84c-0.03,0.73-0.68,1.27-1.4,1.15c-1.49-0.25-2.91-0.83-4.16-1.69
	c-0.54-0.38-0.68-1.13-0.31-1.68c0.03-0.04,0.06-0.08,0.1-0.12L13.18,20.15L13.18,20.15z"></path></symbol><symbol id="templates/_global/social/youtube" viewBox="0 0 30 30"><path d="M26.4584,8.993c-0.2292-1.2608-1.2452-2.2299-2.5151-2.3992h-0.0001c-5.9358-0.7917-11.9506-0.7917-17.8865,0H6.0566
	c-1.27,0.1693-2.2859,1.1384-2.515,2.3992c-0.7221,3.9721-0.7221,8.0419,0,12.0141c0.2291,1.2608,1.2451,2.2299,2.515,2.3993h0.0001
	c5.9358,0.7916,11.9506,0.7916,17.8865,0h0.0001c1.27-0.1693,2.2859-1.1385,2.5151-2.3993
	C27.1805,17.0349,27.1805,12.9651,26.4584,8.993z M12,19v-8l7,4L12,19z"></path></symbol></svg>