<svg id="Layer_1" data-name="Layer 1" xmlns="http://www.w3.org/2000/svg" viewBox="0 0 388 388"><defs><style>.cls-1{fill:#fff;}</style></defs><rect width="388" height="388"/><path class="cls-1" d="M532.69,382.08c17.93-6.41,28.18-20.68,28.18-40.44,0-27.81-20.13-44.64-53.43-44.64H476v15.92h30.93c23.42,0,35.68,10.43,35.68,28.72s-12.26,28.91-35.68,28.91H476V386.1h31.48c2.75,0,5.49-.18,8.05-.36l27.63,39.34h19.94Z" transform="translate(-228 -166)"/><polygon class="cls-1" points="225.9 131 210.89 131 210.89 259.07 226.21 259.07 226.21 131.52 225.9 131"/><polygon class="cls-1" points="74.98 131 59.98 131 59.98 259.07 75.28 259.07 75.28 131.52 74.98 131"/><polygon class="cls-1" points="143.27 215.77 93.07 131.19 93.07 162.18 138.7 238.28 147.11 238.28 192.11 162.7 192.11 132.35 143.27 215.77"/></svg>