<?xml version="1.0" encoding="utf-8"?>
<!-- Generator: Adobe Illustrator 26.0.1, SVG Export Plug-In . SVG Version: 6.00 Build 0)  -->
<svg version="1.1" id="Layer_1" xmlns="http://www.w3.org/2000/svg" xmlns:xlink="http://www.w3.org/1999/xlink" x="0px" y="0px"
	 viewBox="0 0 807.1 134.8" style="enable-background:new 0 0 807.1 134.8;" xml:space="preserve">
<path d="M55.7,69.3V27.9L39.6,69.3h-5.3L18.1,27.9v41.4H5.9V11.9H23l13.9,35.9l13.9-35.9H68v57.4H55.7z"/>
<path d="M119,69.3l-3.6-9.7H90.8l-3.6,9.7H73.4l22.1-57.4h15.3l22.1,57.4H119z M103.1,24.1l-8.9,24.7h17.9L103.1,24.1z"/>
<path d="M170.6,69.3l-11.3-20.4h-8.9v20.4h-12.2V11.9H165c12,0,19.3,7.8,19.3,18.5c0,10.1-6.4,15.6-12.6,17l13,21.8H170.6z
	 M171.8,30.3c0-4.7-3.7-7.7-8.5-7.7h-12.9v15.5h12.9C168.1,38.2,171.8,35.2,171.8,30.3z"/>
<path d="M190.8,40.6c0-17.7,13.3-29.7,30.6-29.7c12.6,0,19.9,6.8,23.9,14l-10.5,5.2c-2.4-4.6-7.6-8.3-13.4-8.3
	c-10.5,0-18.1,8-18.1,18.8s7.6,18.8,18.1,18.8c5.8,0,11-3.7,13.4-8.3l10.5,5.1c-4,7.1-11.4,14.1-23.9,14.1
	C204.1,70.3,190.8,58.3,190.8,40.6z"/>
<path d="M314.3,69.3l-3.6-9.7h-24.6l-3.6,9.7h-13.8l22.1-57.4h15.3l22.1,57.4H314.3z M298.4,24.1l-8.9,24.7h17.9L298.4,24.1z"/>
<path d="M331.9,63.3c0-3.8,3.2-7,7-7s7,3.2,7,7c0,3.8-3.2,7-7,7S331.9,67,331.9,63.3z"/>
<path d="M410.1,69.3l-11.3-20.4h-8.9v20.4h-12.2V11.9h26.8c12,0,19.3,7.8,19.3,18.5c0,10.1-6.4,15.6-12.6,17l13,21.8H410.1z
	 M411.3,30.3c0-4.7-3.7-7.7-8.5-7.7h-12.9v15.5h12.9C407.6,38.2,411.3,35.2,411.3,30.3z"/>
<path d="M472.7,69.3l-3.6-9.7h-24.6l-3.6,9.7H427l22.1-57.4h15.3l22.1,57.4H472.7z M456.7,24.1l-8.9,24.7h17.9L456.7,24.1z"/>
<path d="M502.1,69.3V45.8l-22-33.9H494l14.2,23l14.2-23h13.8l-21.9,33.9v23.5H502.1z"/>
<path d="M591.4,69.3V27.9l-16.2,41.4h-5.3l-16.2-41.4v41.4h-12.2V11.9h17.1l13.9,35.9l13.9-35.9h17.2v57.4H591.4z"/>
<path d="M612.3,40.6c0-17.3,12.6-29.7,30-29.7c17.3,0,29.9,12.4,29.9,29.7c0,17.3-12.6,29.7-29.9,29.7
	C625,70.3,612.3,57.9,612.3,40.6z M659.7,40.6c0-10.7-6.8-18.8-17.4-18.8c-10.7,0-17.5,8.1-17.5,18.8c0,10.7,6.8,18.8,17.5,18.8
	C652.9,59.5,659.7,51.3,659.7,40.6z"/>
<path d="M720.4,69.3l-27.3-37.4v37.4h-12.2V11.9h12.6L720,48v-36h12.2v57.4H720.4z"/>
<path d="M743.6,69.3V11.9h22.6c18,0,30.4,11.4,30.4,28.6c0,17.4-12.5,28.7-30.4,28.7H743.6z M784.1,40.6c0-10.1-6.2-17.9-17.9-17.9
	h-10.5v35.9h10.4C777.5,58.5,784.1,50.4,784.1,40.6z"/>
<path d="M7.1,115.7c1.7,1.9,4.5,3.6,8.1,3.6c4.2,0,5.6-2.1,5.6-4c0-2.7-2.9-3.5-6.2-4.3c-4.1-1.1-8.9-2.3-8.9-7.5
	c0-4.2,3.7-7.3,9.1-7.3c4,0,7.1,1.3,9.4,3.6l-2.2,2.9c-2-2.1-4.7-3-7.4-3c-2.9,0-4.8,1.5-4.8,3.6c0,2.3,2.8,3,6,3.9
	c4.2,1.1,9.1,2.4,9.1,7.9c0,4-2.8,7.8-9.7,7.8c-4.6,0-7.9-1.7-10.1-4.1L7.1,115.7z"/>
<path d="M29.3,96.6h17.3v3.4H33.1v7.5h13.2v3.4H33.1v8h13.4v3.4H29.3V96.6z"/>
<path d="M55.2,102.5v19.8h-3.9V96.6h4l14,19.3V96.6h3.9v25.7h-3.7L55.2,102.5z"/>
<path d="M78.9,96.6h3.9v25.7h-3.9V96.6z"/>
<path d="M100.4,96.1c7.7,0,13,5.7,13,13.3c0,7.6-5.3,13.3-13,13.3c-7.7,0-13-5.7-13-13.3C87.4,101.8,92.7,96.1,100.4,96.1z
	 M100.4,99.6c-5.5,0-9,4.2-9,9.9c0,5.6,3.5,9.9,9,9.9c5.4,0,9-4.2,9-9.9C109.4,103.8,105.8,99.6,100.4,99.6z"/>
<path d="M126.7,112.4h-4.8v9.9H118V96.6h10.8c4.9,0,8.3,3.2,8.3,7.9c0,4.6-3.1,7.1-6.4,7.5l6.6,10.3h-4.5L126.7,112.4z M128.4,99.9
	h-6.5v9h6.5c2.8,0,4.8-1.8,4.8-4.5C133.1,101.8,131.1,99.9,128.4,99.9z"/>
<path d="M151.8,96.6h9.2c8,0,13.3,5.5,13.3,12.9c0,7.4-5.3,12.8-13.3,12.8h-9.2V96.6z M161,118.9c5.9,0,9.4-4.2,9.4-9.5
	c0-5.3-3.3-9.5-9.4-9.5h-5.3v18.9H161z"/>
<path d="M179,96.6h17.3v3.4h-13.4v7.5H196v3.4h-13.2v8h13.4v3.4H179V96.6z"/>
<path d="M201.7,115.7c1.7,1.9,4.5,3.6,8.1,3.6c4.2,0,5.6-2.1,5.6-4c0-2.7-2.9-3.5-6.2-4.3c-4.1-1.1-8.9-2.3-8.9-7.5
	c0-4.2,3.7-7.3,9.1-7.3c4,0,7.1,1.3,9.4,3.6l-2.2,2.9c-2-2.1-4.7-3-7.4-3c-2.9,0-4.8,1.5-4.8,3.6c0,2.3,2.8,3,6,3.9
	c4.2,1.1,9.1,2.4,9.1,7.9c0,4-2.8,7.8-9.7,7.8c-4.6,0-7.9-1.7-10.1-4.1L201.7,115.7z"/>
<path d="M223.9,96.6h3.9v25.7h-3.9V96.6z"/>
<path d="M245.8,96.1c4.8,0,8,2.2,10.2,5.1l-3.1,1.8c-1.5-2-4.1-3.5-7.1-3.5c-5.4,0-9.4,4.1-9.4,9.9c0,5.7,4,9.9,9.4,9.9
	c2.9,0,5.3-1.4,6.5-2.5v-4.6H244v-3.4h12.1v9.5c-2.5,2.7-6,4.6-10.4,4.6c-7.4,0-13.3-5.3-13.3-13.3
	C232.4,101.4,238.4,96.1,245.8,96.1z"/>
<path d="M264.9,102.5v19.8h-3.9V96.6h4l14,19.3V96.6h3.9v25.7h-3.7L264.9,102.5z"/>
<path d="M288.6,96.6h17.3v3.4h-13.4v7.5h13.2v3.4h-13.2v8h13.4v3.4h-17.3V96.6z"/>
<path d="M319.4,112.4h-4.8v9.9h-3.9V96.6h10.8c4.9,0,8.3,3.2,8.3,7.9c0,4.6-3.1,7.1-6.4,7.5l6.6,10.3h-4.5L319.4,112.4z M321.1,99.9
	h-6.5v9h6.5c2.8,0,4.8-1.8,4.8-4.5C325.9,101.8,323.9,99.9,321.1,99.9z"/>
<path d="M333.9,125.9c1.2-0.8,2.4-2.3,2.6-3.6c-0.1,0-0.4,0.1-0.6,0.1c-1.2,0-2.1-0.9-2.1-2.2c0-1.3,1-2.4,2.4-2.4
	c1.4,0,2.7,1.2,2.7,3.2c0,2.5-1.4,4.8-3.4,6.2L333.9,125.9z"/>
<path d="M353.7,96.6H371v3.4h-13.4v7.5h13.2v3.4h-13.2v8H371v3.4h-17.3V96.6z"/>
<path d="M385.6,111.8l-7.7,10.5h-4.7l9.9-13.2l-9.3-12.5h4.7l7.1,9.9l7.1-9.9h4.7l-9.2,12.5l9.8,13.2h-4.6L385.6,111.8z"/>
<path d="M401.1,96.6H412c5.3,0,8.2,3.6,8.2,7.9c0,4.3-3,7.9-8.2,7.9h-7v9.9h-3.9V96.6z M411.5,99.9H405v9h6.5c2.8,0,4.7-1.8,4.7-4.5
	C416.2,101.8,414.3,99.9,411.5,99.9z"/>
<path d="M424.2,96.6h17.3v3.4H428v7.5h13.2v3.4H428v8h13.4v3.4h-17.3V96.6z"/>
<path d="M455,112.4h-4.8v9.9h-3.9V96.6h10.8c4.9,0,8.3,3.2,8.3,7.9c0,4.6-3.1,7.1-6.4,7.5l6.6,10.3h-4.5L455,112.4z M456.6,99.9
	h-6.5v9h6.5c2.8,0,4.8-1.8,4.8-4.5C461.4,101.8,459.4,99.9,456.6,99.9z"/>
<path d="M470.1,96.6h3.9v25.7h-3.9V96.6z"/>
<path d="M479.7,96.6H497v3.4h-13.4v7.5h13.2v3.4h-13.2v8H497v3.4h-17.3V96.6z"/>
<path d="M505.7,102.5v19.8h-3.9V96.6h4l14,19.3V96.6h3.9v25.7h-3.7L505.7,102.5z"/>
<path d="M528.3,109.4c0-7.9,5.9-13.3,13.2-13.3c5.1,0,8.2,2.4,10.2,5.4l-3.3,1.7c-1.4-2.2-3.9-3.7-6.9-3.7c-5.2,0-9.2,4.1-9.2,9.9
	c0,5.7,4,9.9,9.2,9.9c3,0,5.6-1.6,6.9-3.7l3.3,1.7c-2,3-5.2,5.4-10.2,5.4C534.2,122.7,528.3,117.3,528.3,109.4z"/>
<path d="M555.6,96.6h17.3v3.4h-13.4v7.5h13.2v3.4h-13.2v8h13.4v3.4h-17.3V96.6z"/>
<path d="M608.7,122.3H604c-0.7-0.6-1.6-1.5-2.5-2.5c-1.9,1.7-4.3,2.9-7.3,2.9c-4.5,0-8.1-2.4-8.1-7.3c0-4,2.7-6.1,5.6-7.6
	c-1.1-2-1.9-3.9-1.9-5.7c0-3.4,2.9-6,6.7-6c3.4,0,6.1,1.9,6.1,5.2c0,3.9-3.2,5.6-6.5,7.2c1,1.3,2,2.5,2.7,3.4c1,1.1,1.9,2.2,2.8,3.2
	c1.3-2,2.2-4.2,2.7-5.6l2.9,1.3c-0.9,2-2,4.4-3.5,6.5C605.2,118.9,606.8,120.5,608.7,122.3z M599.5,117.7c-1.4-1.4-2.7-2.9-3.4-3.7
	c-1-1.2-2-2.5-3-3.9c-1.9,1.2-3.4,2.7-3.4,5.1c0,3,2.3,4.7,4.8,4.7C596.5,119.9,598.1,119,599.5,117.7z M594.7,106.4
	c2.5-1.3,4.7-2.5,4.7-4.9c0-1.7-1.2-2.7-2.8-2.7c-1.9,0-3.3,1.4-3.3,3.5C593.3,103.5,593.9,105,594.7,106.4z"/>
<path d="M621.3,109.4c0-7.9,5.9-13.3,13.2-13.3c5.1,0,8.2,2.4,10.2,5.4l-3.3,1.7c-1.4-2.2-3.9-3.7-6.9-3.7c-5.2,0-9.2,4.1-9.2,9.9
	c0,5.7,4,9.9,9.2,9.9c3,0,5.6-1.6,6.9-3.7l3.3,1.7c-2,3-5.2,5.4-10.2,5.4C627.1,122.7,621.3,117.3,621.3,109.4z"/>
<path d="M657.2,112.4h-4.8v9.9h-3.9V96.6h10.8c4.9,0,8.3,3.2,8.3,7.9c0,4.6-3.1,7.1-6.4,7.5l6.6,10.3h-4.5L657.2,112.4z M658.9,99.9
	h-6.5v9h6.5c2.8,0,4.8-1.8,4.8-4.5C663.7,101.8,661.7,99.9,658.9,99.9z"/>
<path d="M672.4,96.6h17.3v3.4h-13.4v7.5h13.2v3.4h-13.2v8h13.4v3.4h-17.3V96.6z"/>
<path d="M710.8,117h-12.6l-2.1,5.3h-4.2l10.2-25.7h4.8l10.2,25.7h-4.2L710.8,117z M699.3,113.5h10.4l-5.2-13.6L699.3,113.5z"/>
<path d="M723.9,99.9h-8v-3.4h19.8v3.4h-7.9v22.3h-3.9V99.9z"/>
<path d="M739.8,96.6h3.9v25.7h-3.9V96.6z"/>
<path d="M746.7,96.6h4.4l8.2,21.5l8.3-21.5h4.4l-10.2,25.7h-4.8L746.7,96.6z"/>
<path d="M775.1,96.6h17.3v3.4h-13.4v7.5h13.2v3.4h-13.2v8h13.4v3.4h-17.3V96.6z"/>
</svg>
