<?xml version="1.0" encoding="utf-8"?>
<!-- Generator: Adobe Illustrator 25.4.1, SVG Export Plug-In . SVG Version: 6.00 Build 0)  -->
<svg version="1.1" id="Layer_1" xmlns="http://www.w3.org/2000/svg" xmlns:xlink="http://www.w3.org/1999/xlink" x="0px" y="0px"
	 width="290px" height="80px" viewBox="0 0 290 80" enable-background="new 0 0 290 80" xml:space="preserve">
<g>
	<path fill="#E1828D" d="M-5.439,80V0h68.775v80H-5.439z M54.248,51.722c0-5.001-1.235-8.676-3.705-11.025
		c-2.41-2.41-5.242-4.037-8.495-4.88c-3.193-0.904-5.995-1.597-8.404-2.079c-2.651-0.602-5.001-1.386-7.049-2.35
		s-3.073-2.681-3.073-5.151c0-2.109,0.783-3.585,2.35-4.428c1.627-0.843,3.645-1.265,6.055-1.265c1.446,0,2.922,0.181,4.428,0.542
		c1.566,0.361,3.103,1.054,4.609,2.079l0.813,6.868l9.67-0.904l-0.542-12.742c-1.868-1.988-4.549-3.555-8.043-4.699
		c-3.494-1.205-7.169-1.807-11.025-1.807c-5.302,0-10.182,1.356-14.64,4.067c-4.458,2.651-6.687,7.26-6.687,13.827
		c0,4.217,0.964,7.41,2.892,9.579c1.928,2.109,4.308,3.645,7.139,4.609c2.892,0.904,5.754,1.596,8.585,2.079
		c3.253,0.602,6.085,1.476,8.495,2.621c2.41,1.084,3.615,3.253,3.615,6.507c0,2.952-1.024,4.85-3.073,5.693
		c-2.048,0.783-4.669,1.175-7.862,1.175c-1.024,0-2.259-0.09-3.705-0.271c-1.446-0.241-3.193-0.904-5.241-1.988l0.09-7.139
		l-9.67-0.904l-1.807,14.55c2.289,2.048,5.392,3.585,9.308,4.609c3.976,1.024,7.953,1.536,11.929,1.536
		c7.169,0,12.803-1.596,16.899-4.79C52.199,62.446,54.248,57.807,54.248,51.722z"/>
	<path fill="#E1828D" d="M56.831,80V0h68.472v80H56.831z M115.453,63.289l1.175-13.827l-9.85-0.904l-1.265,8.766
		c-2.711,1.627-6.447,2.44-11.206,2.44c-5.061,0-9.218-1.536-12.471-4.609c-3.253-3.073-4.88-8.013-4.88-14.821
		c0-6.446,1.476-11.357,4.428-14.73c3.013-3.374,7.049-5.061,12.11-5.061c1.988,0,4.097,0.271,6.326,0.813s4.127,1.325,5.693,2.35
		l1.265,7.772l9.85-0.904l-1.446-13.646c-1.868-1.747-4.609-3.344-8.224-4.79c-3.615-1.506-7.922-2.259-12.923-2.259
		c-7.41,0-13.315,1.657-17.713,4.97c-4.398,3.314-7.561,7.38-9.489,12.2c-1.928,4.82-2.892,9.519-2.892,14.098
		c0,8.736,2.832,15.815,8.495,21.237c5.663,5.362,12.682,8.043,21.056,8.043c4.217,0,8.435-0.663,12.652-1.988
		C110.422,67.115,113.524,65.398,115.453,63.289z"/>
</g>
<g>
	<g>
		<path fill="#1D1E21" d="M147.73,17.708c0,2.433-1.04,4.518-3.12,6.256c-1.825,1.534-4.044,2.511-6.659,2.93
			c-0.097,0.012-0.177,0.018-0.237,0.018c-0.28,0-0.9-0.842-1.86-2.526c-0.961-1.684-1.441-2.711-1.441-3.083
			c0-0.131,0.091-0.215,0.274-0.251c1.763-0.396,2.931-0.731,3.503-1.007c1.265-0.623,1.898-1.546,1.898-2.768
			c0-0.779-0.414-1.648-1.241-2.607c-1.436-1.63-2.214-2.535-2.335-2.715c-0.839-1.246-1.258-2.624-1.258-4.135
			c0-2.193,1.028-4.015,3.083-5.465c1.679-1.198,3.74-1.978,6.185-2.337C144.653,0.006,144.756,0,144.829,0
			c0.182,0,0.328,0.144,0.438,0.432c0.316,0.875,1.052,2.457,2.209,4.746c0.035,0.072,0.054,0.132,0.054,0.18
			c0,0.204-0.111,0.305-0.33,0.305c-0.097,0-0.262-0.018-0.493-0.054c-0.231-0.036-0.407-0.054-0.529-0.054
			c-0.876,0-1.642,0.198-2.299,0.593c-0.79,0.456-1.186,1.091-1.186,1.905c0,0.732,0.438,1.63,1.314,2.697
			c1.544,1.918,2.354,2.925,2.427,3.02C147.3,15.089,147.73,16.401,147.73,17.708z"/>
		<path fill="#1D1E21" d="M162.835,20.71c0,0.359-0.045,0.905-0.137,1.636s-0.137,1.267-0.137,1.609c0,0.341-0.038,0.56-0.111,0.656
			s-0.273,0.234-0.6,0.413c-1.57,0.851-3.31,1.277-5.219,1.277c-3.515,0-5.271-1.324-5.271-3.973c0-0.791,0.031-1.981,0.092-3.569
			c0.059-1.587,0.089-2.777,0.089-3.568c0-0.527-0.308-0.791-0.93-0.791c-0.049,0-0.127,0-0.238,0
			c-0.108,0.012-0.188,0.018-0.235,0.018c-0.464,0-0.695-0.162-0.695-0.486c0-0.191,0.016-0.485,0.047-0.88
			c0.028-0.396,0.045-0.689,0.045-0.881c0-0.252-0.016-0.635-0.045-1.151c-0.031-0.515-0.047-0.899-0.047-1.151
			c0-0.24,0.391-0.371,1.168-0.396c0.438-0.012,0.676-0.131,0.711-0.36c0.073-0.455,0.099-1.174,0.073-2.157
			c-0.047-1.546-0.073-2.283-0.073-2.211c0-1.39,0.134-2.085,0.403-2.085c0.327,0,0.796,0.072,1.405,0.216
			c0.692,0.155,1.172,0.245,1.441,0.27c0.619,0.084,1.556,0.198,2.809,0.341c0.304,0.024,0.457,0.126,0.457,0.305
			c0,0.48-0.04,1.205-0.12,2.175c-0.078,0.971-0.118,1.702-0.118,2.194c0,0.587,0.177,0.88,0.53,0.88
			c0.426,0,1.069-0.018,1.933-0.054c0.864-0.036,1.514-0.054,1.952-0.054c0.268,0,0.403,0.09,0.403,0.27
			c0,0.276-0.031,0.689-0.092,1.241c-0.061,0.551-0.092,0.965-0.092,1.24c0,0.288,0.007,0.707,0.019,1.258
			c0.012,0.551,0.019,0.971,0.019,1.258c0,0.252-0.177,0.378-0.53,0.378c-0.242,0-0.65-0.009-1.222-0.027
			c-0.572-0.018-0.979-0.027-1.222-0.027h-1.368c-0.184,0-0.275,0.264-0.275,0.791c0,0.288,0,0.713,0,1.277
			c0.012,0.575,0.019,1.001,0.019,1.277c0,1.006,0.115,1.702,0.346,2.085c0.33,0.515,0.975,0.773,1.935,0.773
			c0.304,0,0.739-0.069,1.304-0.207c0.565-0.138,0.963-0.207,1.194-0.207C162.708,20.315,162.835,20.447,162.835,20.71z"/>
		<path fill="#1D1E21" d="M181.462,16.215c0,1.211-0.396,1.9-1.187,2.068c-0.132,0.024-1.391,0.156-3.776,0.396
			c-1.434,0.156-3.574,0.341-6.42,0.557c0.17,0.779,0.685,1.373,1.549,1.78c0.706,0.335,1.509,0.503,2.408,0.503
			c1.083,0,2.171-0.288,3.265-0.863c0.464-0.288,0.925-0.576,1.387-0.863c0.257,0.12,0.685,0.731,1.288,1.833
			c0.6,1.103,0.902,1.804,0.902,2.104c0,0.084-0.092,0.222-0.273,0.413c-1.483,1.57-3.788,2.355-6.914,2.355
			c-2.896,0-5.229-0.833-7.006-2.499c-1.825-1.69-2.736-3.949-2.736-6.777c0-2.756,0.815-5.016,2.444-6.777
			c1.679-1.822,3.906-2.733,6.679-2.733c2.333,0,4.315,0.839,5.947,2.517C180.647,11.907,181.462,13.903,181.462,16.215z
			 M175.077,15.119c0-0.743-0.268-1.396-0.803-1.959c-0.534-0.563-1.175-0.845-1.916-0.845c-0.765,0-1.398,0.318-1.898,0.953
			c-0.461,0.587-0.692,1.277-0.692,2.068c0,0.324,0.17,0.485,0.511,0.485c0.899,0,2.298-0.137,4.195-0.413
			C174.877,15.347,175.077,15.251,175.077,15.119z"/>
		<path fill="#1D1E21" d="M201.019,13.501c0,2.049-0.066,3.26-0.2,3.631c-0.28,0.851-1.118,2.295-2.517,4.332
			c-1.217,1.75-2.258,3.116-3.122,4.099c-0.315,0.372-1.269,0.557-2.863,0.557c-1.387,0-2.288-0.048-2.7-0.144
			c-0.257-0.06-0.469-0.18-0.638-0.36c-0.73-0.779-1.77-2.133-3.119-4.063c-1.448-2.073-2.312-3.494-2.592-4.261
			c-0.304-0.827-0.457-2.067-0.457-3.721c0-0.467,0.007-1.171,0.019-2.112c0.012-0.941,0.019-1.65,0.019-2.13
			c0-0.311,0.212-0.467,0.638-0.467c0.622,0,1.554,0.018,2.802,0.054c1.245,0.036,2.18,0.054,2.799,0.054
			c0.28,0,0.419,0.186,0.419,0.557c0,0.335-0.024,0.842-0.073,1.519c-0.047,0.677-0.073,1.189-0.073,1.537
			c0,1.247,0.038,2.265,0.111,3.056c0.035,0.408,0.388,1.175,1.057,2.301c0.695,1.187,1.198,1.78,1.516,1.78
			c0.304,0,0.789-0.581,1.457-1.744c0.645-1.091,0.991-1.834,1.041-2.229c0.097-0.85,0.146-1.881,0.146-3.092
			c0-0.348-0.035-0.872-0.108-1.573c-0.073-0.701-0.111-1.219-0.111-1.555c0-0.371,0.127-0.557,0.384-0.557
			c0.292,0,0.727,0.006,1.304,0.018s1.012,0.018,1.304,0.018c0.292,0,0.732-0.024,1.323-0.072c0.589-0.048,1.031-0.072,1.323-0.072
			c0.304,0,0.504,0.156,0.6,0.467C200.915,10.014,201.019,11.404,201.019,13.501z"/>
		<path fill="#1D1E21" d="M220.21,16.215c0,1.211-0.396,1.9-1.187,2.068c-0.132,0.024-1.391,0.156-3.776,0.396
			c-1.434,0.156-3.574,0.341-6.42,0.557c0.17,0.779,0.685,1.373,1.549,1.78c0.706,0.335,1.509,0.503,2.408,0.503
			c1.083,0,2.171-0.288,3.265-0.863c0.464-0.288,0.925-0.576,1.387-0.863c0.257,0.12,0.685,0.731,1.288,1.833
			c0.6,1.103,0.902,1.804,0.902,2.104c0,0.084-0.092,0.222-0.273,0.413c-1.483,1.57-3.788,2.355-6.914,2.355
			c-2.896,0-5.229-0.833-7.006-2.499c-1.825-1.69-2.736-3.949-2.736-6.777c0-2.756,0.815-5.016,2.444-6.777
			c1.679-1.822,3.906-2.733,6.679-2.733c2.333,0,4.315,0.839,5.947,2.517C219.396,11.907,220.21,13.903,220.21,16.215z
			 M213.826,15.119c0-0.743-0.268-1.396-0.803-1.959s-1.175-0.845-1.916-0.845c-0.765,0-1.398,0.318-1.898,0.953
			c-0.461,0.587-0.692,1.277-0.692,2.068c0,0.324,0.17,0.485,0.511,0.485c0.899,0,2.298-0.137,4.195-0.413
			C213.626,15.347,213.826,15.251,213.826,15.119z"/>
		<path fill="#1D1E21" d="M156.596,51.913c0,0.191-0.127,0.443-0.384,0.756c-2.237,2.625-5.21,3.936-8.92,3.936
			c-3.795,0-6.872-1.276-9.232-3.828c-2.298-2.47-3.448-5.587-3.448-9.349c0-3.644,1.125-6.736,3.375-9.277
			c2.347-2.66,5.333-3.991,8.958-3.991c3.942,0,7.03,1.193,9.267,3.578c0.245,0.264,0.365,0.497,0.365,0.701
			c0,0.228-0.421,1.073-1.267,2.535c-0.845,1.462-1.377,2.282-1.596,2.463c-0.099,0.095-0.219,0.145-0.365,0.145
			c-0.061,0-0.365-0.24-0.913-0.72c-0.657-0.576-1.3-1.025-1.933-1.348c-0.961-0.479-1.959-0.719-2.992-0.719
			c-1.788,0-3.218,0.659-4.288,1.978c-0.985,1.222-1.477,2.733-1.477,4.53c0,1.822,0.492,3.35,1.477,4.586
			c1.07,1.342,2.5,2.013,4.288,2.013c1.059,0,2.062-0.228,3.011-0.683c0.619-0.301,1.252-0.72,1.898-1.26
			c0.534-0.454,0.831-0.683,0.892-0.683c0.122,0,0.245,0.066,0.365,0.198c0.195,0.217,0.725,0.965,1.589,2.246
			C156.154,51.049,156.596,51.781,156.596,51.913z"/>
		<path fill="#1D1E21" d="M170.534,44.776c0,0.467-0.261,0.7-0.784,0.7c-0.231,0-0.57-0.014-1.012-0.045
			c-0.445-0.029-0.775-0.045-0.993-0.045c-1.01,0-1.697,0.155-2.062,0.468c-0.365,0.311-0.549,0.939-0.549,1.886
			c0,0.516,0.009,1.3,0.028,2.347s0.028,1.832,0.028,2.345c0,0.348,0.024,0.866,0.073,1.556c0.047,0.69,0.073,1.201,0.073,1.537
			c0,0.287-0.202,0.45-0.603,0.485c-0.584,0.047-1.478,0.073-2.681,0.073c-1.156,0-2.081-0.038-2.773-0.108
			c-0.403-0.049-0.603-0.247-0.603-0.593c0-0.958,0.007-2.394,0.019-4.306c0.012-1.912,0.019-3.348,0.019-4.306
			c0-2.816-0.261-5.135-0.786-6.957c-0.024-0.108-0.035-0.198-0.035-0.27c0-0.18,0.092-0.3,0.273-0.359
			c0.669-0.073,1.648-0.204,2.938-0.396c1.921-0.371,2.912-0.557,2.973-0.557c0.219,0,0.358,0.377,0.419,1.132
			c0.061,0.756,0.169,1.132,0.33,1.132c-0.172,0,0.327-0.314,1.495-0.944c1.168-0.629,2.293-0.943,3.376-0.943
			c0.68,0,1.022,0.144,1.022,0.431c0,0.347-0.038,0.839-0.111,1.475c-0.073,0.683-0.115,1.175-0.127,1.474
			c0,0.347,0.005,0.809,0.019,1.384C170.522,44.081,170.534,44.549,170.534,44.776z"/>
		<path fill="#1D1E21" d="M189.379,46.214c0,1.212-0.396,1.9-1.187,2.069c-0.132,0.024-1.391,0.155-3.776,0.396
			c-1.434,0.155-3.574,0.341-6.42,0.556c0.17,0.779,0.685,1.373,1.549,1.78c0.706,0.337,1.509,0.504,2.408,0.504
			c1.083,0,2.171-0.287,3.265-0.864c0.464-0.287,0.925-0.574,1.387-0.862c0.257,0.12,0.685,0.732,1.288,1.834
			c0.6,1.102,0.902,1.803,0.902,2.102c0,0.085-0.092,0.221-0.273,0.414c-1.483,1.57-3.788,2.354-6.914,2.354
			c-2.896,0-5.229-0.833-7.006-2.498c-1.825-1.69-2.736-3.95-2.736-6.778c0-2.757,0.815-5.016,2.444-6.778
			c1.679-1.821,3.906-2.732,6.679-2.732c2.333,0,4.315,0.839,5.947,2.517C188.565,41.905,189.379,43.902,189.379,46.214z
			 M182.995,45.118c0-0.743-0.268-1.396-0.803-1.96c-0.534-0.563-1.175-0.845-1.916-0.845c-0.765,0-1.398,0.318-1.898,0.953
			c-0.461,0.587-0.692,1.276-0.692,2.067c0,0.325,0.17,0.485,0.511,0.485c0.899,0,2.298-0.137,4.195-0.412
			C182.794,45.345,182.995,45.251,182.995,45.118z"/>
		<path fill="#1D1E21" d="M209.72,46.988c0,0.923,0.057,2.295,0.165,4.115c0.111,1.822,0.165,3.19,0.165,4.099
			c0,0.48-0.214,0.737-0.638,0.775c-1.509,0.108-3.237,0.16-5.182,0.16c-0.231,0-0.386-0.344-0.466-1.034
			c-0.078-0.687-0.172-1.038-0.283-1.05c-0.097,0.047-0.226,0.148-0.384,0.306c-1.361,1.354-2.82,2.029-4.377,2.029
			c-2.373,0-4.337-0.923-5.893-2.769c-1.474-1.726-2.208-3.786-2.208-6.182c0-2.769,0.76-4.998,2.281-6.688
			c1.58-1.75,3.746-2.624,6.493-2.624c1.909,0,3.418,0.659,4.525,1.977c0.049,0.061,0.092,0.089,0.127,0.089
			c0.111,0,0.235-0.29,0.374-0.871c0.141-0.581,0.308-0.872,0.501-0.872c0.45,0,1.309,0.126,2.573,0.378
			c1.203,0.24,2.067,0.443,2.59,0.611c0.184,0.072,0.275,0.168,0.275,0.288c0,0.047-0.019,0.173-0.057,0.377
			C209.915,42.272,209.72,44.567,209.72,46.988z M203.846,47.097c0-1.019-0.325-1.862-0.975-2.526
			c-0.652-0.666-1.5-0.998-2.545-0.998c-1.048,0-1.893,0.33-2.538,0.989c-0.643,0.659-0.965,1.504-0.965,2.536
			c0,0.97,0.339,1.803,1.022,2.498c0.68,0.694,1.507,1.043,2.481,1.043c1.034,0,1.879-0.332,2.536-0.998
			C203.519,48.973,203.846,48.125,203.846,47.097z"/>
		<path fill="#1D1E21" d="M225.557,50.708c0,0.36-0.047,0.906-0.137,1.636c-0.092,0.732-0.139,1.269-0.139,1.61
			c0,0.341-0.035,0.56-0.108,0.654c-0.073,0.097-0.273,0.235-0.603,0.414c-1.568,0.852-3.308,1.276-5.217,1.276
			c-3.515,0-5.273-1.323-5.273-3.972c0-0.791,0.031-1.982,0.092-3.569c0.061-1.589,0.092-2.778,0.092-3.569
			c0-0.527-0.311-0.791-0.93-0.791c-0.049,0-0.129,0-0.238,0c-0.111,0.012-0.188,0.019-0.238,0.019
			c-0.461,0-0.692-0.162-0.692-0.486c0-0.192,0.014-0.485,0.045-0.88s0.045-0.689,0.045-0.882c0-0.252-0.014-0.634-0.045-1.15
			c-0.031-0.514-0.045-0.898-0.045-1.15c0-0.24,0.388-0.372,1.168-0.396c0.438-0.012,0.673-0.132,0.711-0.36
			c0.073-0.455,0.097-1.174,0.073-2.157c-0.049-1.546-0.073-2.283-0.073-2.211c0-1.39,0.134-2.085,0.4-2.085
			c0.33,0,0.798,0.072,1.405,0.216c0.695,0.155,1.175,0.245,1.441,0.27c0.622,0.084,1.556,0.198,2.811,0.341
			c0.304,0.024,0.454,0.126,0.454,0.305c0,0.48-0.038,1.205-0.118,2.175c-0.08,0.971-0.118,1.702-0.118,2.194
			c0,0.587,0.174,0.88,0.527,0.88c0.426,0,1.071-0.018,1.935-0.054c0.864-0.036,1.514-0.054,1.952-0.054c0.266,0,0.4,0.09,0.4,0.269
			c0,0.277-0.031,0.69-0.089,1.241c-0.061,0.552-0.092,0.965-0.092,1.241c0,0.287,0.005,0.707,0.019,1.258
			c0.012,0.552,0.016,0.971,0.016,1.258c0,0.252-0.177,0.378-0.527,0.378c-0.245,0-0.652-0.008-1.224-0.027
			c-0.57-0.018-0.977-0.027-1.222-0.027h-1.368c-0.181,0-0.273,0.264-0.273,0.791c0,0.288,0,0.713,0,1.277
			c0.012,0.574,0.019,1.001,0.019,1.276c0,1.008,0.115,1.702,0.346,2.086c0.327,0.516,0.972,0.772,1.933,0.772
			c0.304,0,0.739-0.068,1.304-0.207c0.567-0.137,0.965-0.207,1.196-0.207C225.427,50.312,225.557,50.444,225.557,50.708z"/>
		<path fill="#1D1E21" d="M234.223,47.725c0,0.873,0.016,2.178,0.054,3.91c0.035,1.73,0.054,3.028,0.054,3.892
			c0,0.252-0.153,0.4-0.457,0.45c-0.412,0.071-1.344,0.108-2.79,0.108c-1.46,0-2.397-0.038-2.811-0.108
			c-0.266-0.049-0.431-0.127-0.492-0.235c-0.024-0.047-0.035-0.226-0.035-0.539c0-0.826,0.016-2.069,0.054-3.729
			c0.035-1.66,0.054-2.91,0.054-3.748c0-3.404-0.134-6.113-0.4-8.127c-0.026-0.191-0.038-0.317-0.038-0.377
			c0-0.24,0.165-0.36,0.492-0.36c0.341,0,0.862,0.036,1.561,0.108s1.224,0.108,1.577,0.108c0.353,0,0.883-0.029,1.587-0.089
			c0.706-0.06,1.236-0.09,1.589-0.09c0.292,0,0.438,0.12,0.438,0.359c0,0.048-0.014,0.162-0.038,0.341
			C234.355,41.936,234.223,44.645,234.223,47.725z M234.696,34.368c0,2.085-1.191,3.128-3.576,3.128
			c-1.022,0-1.867-0.263-2.536-0.79c-0.73-0.576-1.095-1.354-1.095-2.337c0-0.935,0.377-1.702,1.132-2.301
			c0.692-0.551,1.526-0.827,2.498-0.827c0.949,0,1.77,0.282,2.463,0.845C234.324,32.684,234.696,33.445,234.696,34.368z"/>
		<path fill="#1D1E21" d="M255.293,43.499c0,2.051-0.066,3.261-0.2,3.633c-0.28,0.85-1.118,2.295-2.517,4.332
			c-1.217,1.749-2.258,3.117-3.122,4.099c-0.315,0.372-1.269,0.558-2.863,0.558c-1.387,0-2.288-0.049-2.7-0.144
			c-0.257-0.061-0.469-0.181-0.638-0.36c-0.73-0.779-1.77-2.133-3.119-4.063c-1.448-2.072-2.312-3.494-2.592-4.259
			c-0.304-0.829-0.457-2.068-0.457-3.722c0-0.468,0.007-1.172,0.019-2.113s0.019-1.65,0.019-2.129c0-0.312,0.212-0.468,0.638-0.468
			c0.622,0,1.554,0.018,2.802,0.054c1.245,0.036,2.18,0.054,2.799,0.054c0.28,0,0.419,0.186,0.419,0.558
			c0,0.334-0.024,0.842-0.073,1.518c-0.047,0.678-0.073,1.189-0.073,1.537c0,1.247,0.038,2.265,0.111,3.056
			c0.035,0.407,0.388,1.175,1.057,2.3c0.695,1.187,1.198,1.78,1.516,1.78c0.304,0,0.789-0.579,1.457-1.742
			c0.645-1.09,0.991-1.834,1.041-2.229c0.097-0.851,0.146-1.881,0.146-3.092c0-0.347-0.035-0.872-0.108-1.574
			c-0.073-0.7-0.111-1.219-0.111-1.554c0-0.372,0.127-0.558,0.384-0.558c0.292,0,0.727,0.006,1.304,0.018s1.012,0.018,1.304,0.018
			c0.292,0,0.732-0.024,1.323-0.072c0.589-0.048,1.031-0.072,1.323-0.072c0.304,0,0.504,0.156,0.6,0.468
			C255.19,40.013,255.293,41.403,255.293,43.499z"/>
		<path fill="#1D1E21" d="M274.485,46.214c0,1.212-0.396,1.9-1.187,2.069c-0.132,0.024-1.391,0.155-3.776,0.396
			c-1.434,0.155-3.574,0.341-6.42,0.556c0.169,0.779,0.685,1.373,1.549,1.78c0.706,0.337,1.509,0.504,2.408,0.504
			c1.083,0,2.171-0.287,3.265-0.864c0.464-0.287,0.925-0.574,1.387-0.862c0.257,0.12,0.685,0.732,1.288,1.834
			c0.6,1.102,0.902,1.803,0.902,2.102c0,0.085-0.092,0.221-0.273,0.414c-1.483,1.57-3.788,2.354-6.914,2.354
			c-2.896,0-5.229-0.833-7.006-2.498c-1.825-1.69-2.736-3.95-2.736-6.778c0-2.757,0.815-5.016,2.444-6.778
			c1.679-1.821,3.906-2.732,6.679-2.732c2.333,0,4.315,0.839,5.947,2.517C273.67,41.905,274.485,43.902,274.485,46.214z
			 M268.1,45.118c0-0.743-0.268-1.396-0.803-1.96c-0.534-0.563-1.175-0.845-1.916-0.845c-0.765,0-1.398,0.318-1.898,0.953
			c-0.461,0.587-0.692,1.276-0.692,2.067c0,0.325,0.169,0.485,0.511,0.485c0.899,0,2.298-0.137,4.195-0.412
			C267.9,45.345,268.1,45.251,268.1,45.118z"/>
	</g>
	<g>
		<path fill="#7B7B7B" d="M144.141,75.797c-0.686,0.246-2.04,0.65-3.641,0.65c-1.794,0-3.272-0.457-4.433-1.565
			c-1.021-0.985-1.654-2.568-1.654-4.415c0.018-3.536,2.445-6.122,6.421-6.122c1.372,0,2.445,0.299,2.955,0.545l-0.37,1.25
			c-0.633-0.282-1.425-0.511-2.621-0.511c-2.885,0-4.767,1.795-4.767,4.768c0,3.007,1.812,4.784,4.574,4.784
			c1.003,0,1.689-0.14,2.041-0.317v-3.536h-2.411v-1.232h3.905V75.797z"/>
		<path fill="#7B7B7B" d="M146.432,70.466c0-1.003-0.018-1.865-0.07-2.656h1.354l0.052,1.671h0.072
			c0.385-1.144,1.319-1.865,2.356-1.865c0.176,0,0.299,0.018,0.44,0.054v1.459c-0.158-0.034-0.317-0.052-0.529-0.052
			c-1.09,0-1.864,0.827-2.076,1.987c-0.036,0.212-0.07,0.458-0.07,0.721v4.539h-1.531V70.466z"/>
		<path fill="#7B7B7B" d="M156.813,76.324l-0.122-1.074h-0.052c-0.475,0.669-1.39,1.268-2.604,1.268
			c-1.725,0-2.604-1.214-2.604-2.446c0-2.058,1.831-3.184,5.12-3.167V70.73c0-0.705-0.194-1.971-1.935-1.971
			c-0.791,0-1.619,0.246-2.217,0.633l-0.351-1.02c0.703-0.457,1.723-0.757,2.797-0.757c2.604,0,3.237,1.777,3.237,3.484v3.184
			c0,0.739,0.034,1.46,0.14,2.041H156.813z M156.584,71.979c-1.689-0.036-3.606,0.264-3.606,1.917c0,1.003,0.669,1.478,1.46,1.478
			c1.108,0,1.811-0.703,2.058-1.425c0.054-0.158,0.088-0.334,0.088-0.493V71.979z"/>
		<path fill="#7B7B7B" d="M160.581,70.588c0-1.09-0.036-1.97-0.07-2.779h1.39l0.07,1.46h0.034c0.633-1.038,1.636-1.654,3.027-1.654
			c2.058,0,3.606,1.742,3.606,4.327c0,3.061-1.865,4.575-3.87,4.575c-1.126,0-2.111-0.493-2.621-1.338h-0.036v4.627h-1.531V70.588z
			 M162.112,72.858c0,0.228,0.036,0.44,0.07,0.633c0.282,1.074,1.214,1.813,2.322,1.813c1.636,0,2.586-1.338,2.586-3.289
			c0-1.707-0.897-3.167-2.533-3.167c-1.056,0-2.041,0.757-2.34,1.917c-0.054,0.194-0.106,0.423-0.106,0.633V72.858z"/>
		<path fill="#7B7B7B" d="M170.595,63.833h1.548v5.313h0.034c0.246-0.439,0.633-0.826,1.109-1.09c0.457-0.264,1.002-0.44,1.583-0.44
			c1.144,0,2.973,0.705,2.973,3.642v5.066h-1.548v-4.89c0-1.372-0.511-2.534-1.97-2.534c-1.003,0-1.795,0.705-2.077,1.548
			c-0.087,0.211-0.105,0.44-0.105,0.739v5.137h-1.548V63.833z"/>
		<path fill="#7B7B7B" d="M182.087,65.418c0.017,0.527-0.37,0.95-0.985,0.95c-0.545,0-0.933-0.423-0.933-0.95
			c0-0.546,0.405-0.968,0.968-0.968C181.716,64.45,182.087,64.871,182.087,65.418z M180.362,76.324V67.81h1.548v8.514H180.362z"/>
		<path fill="#7B7B7B" d="M190.55,76.007c-0.405,0.211-1.302,0.493-2.446,0.493c-2.568,0-4.239-1.742-4.239-4.345
			c0-2.622,1.793-4.521,4.574-4.521c0.914,0,1.723,0.228,2.146,0.44l-0.351,1.196c-0.37-0.212-0.951-0.405-1.795-0.405
			c-1.953,0-3.009,1.442-3.009,3.219c0,1.97,1.266,3.184,2.955,3.184c0.881,0,1.46-0.228,1.901-0.423L190.55,76.007z"/>
		<path fill="#7B7B7B" d="M203.449,63.833v10.291c0,0.757,0.017,1.619,0.07,2.199h-1.39l-0.07-1.478h-0.036
			c-0.475,0.951-1.513,1.672-2.903,1.672c-2.058,0-3.64-1.742-3.64-4.329c-0.018-2.831,1.741-4.574,3.817-4.574
			c1.302,0,2.182,0.617,2.568,1.302h0.036v-5.084H203.449z M201.901,71.275c0-0.194-0.018-0.458-0.07-0.651
			c-0.228-0.985-1.074-1.795-2.235-1.795c-1.601,0-2.55,1.408-2.55,3.289c0,1.725,0.845,3.149,2.516,3.149
			c1.038,0,1.987-0.685,2.27-1.847c0.052-0.211,0.07-0.423,0.07-0.669V71.275z"/>
		<path fill="#7B7B7B" d="M206.883,72.347c0.036,2.093,1.372,2.956,2.921,2.956c1.108,0,1.777-0.194,2.358-0.44l0.263,1.108
			c-0.545,0.246-1.477,0.529-2.831,0.529c-2.622,0-4.187-1.725-4.187-4.293s1.513-4.592,3.993-4.592
			c2.779,0,3.518,2.446,3.518,4.011c0,0.317-0.034,0.563-0.052,0.721H206.883z M211.422,71.24c0.018-0.985-0.405-2.516-2.146-2.516
			c-1.566,0-2.252,1.444-2.376,2.516H211.422z"/>
		<path fill="#7B7B7B" d="M214.628,74.741c0.457,0.299,1.266,0.615,2.04,0.615c1.126,0,1.654-0.563,1.654-1.266
			c0-0.739-0.44-1.144-1.584-1.566c-1.531-0.545-2.252-1.389-2.252-2.41c0-1.372,1.109-2.498,2.939-2.498
			c0.862,0,1.619,0.246,2.093,0.529l-0.387,1.126c-0.334-0.212-0.951-0.493-1.742-0.493c-0.914,0-1.425,0.527-1.425,1.16
			c0,0.705,0.511,1.021,1.619,1.442c1.478,0.563,2.234,1.302,2.234,2.57c0,1.495-1.16,2.55-3.184,2.55
			c-0.933,0-1.795-0.228-2.393-0.581L214.628,74.741z"/>
		<path fill="#7B7B7B" d="M223.531,65.418c0.017,0.527-0.37,0.95-0.985,0.95c-0.545,0-0.933-0.423-0.933-0.95
			c0-0.546,0.405-0.968,0.968-0.968C223.161,64.45,223.531,64.871,223.531,65.418z M221.807,76.324V67.81h1.548v8.514H221.807z"/>
		<path fill="#7B7B7B" d="M233.261,67.81c-0.036,0.615-0.07,1.302-0.07,2.34v4.942c0,1.953-0.387,3.149-1.214,3.888
			c-0.827,0.774-2.023,1.02-3.097,1.02c-1.02,0-2.146-0.246-2.831-0.703l0.387-1.178c0.563,0.351,1.442,0.668,2.498,0.668
			c1.583,0,2.744-0.826,2.744-2.973v-0.95h-0.036c-0.475,0.791-1.39,1.425-2.709,1.425c-2.111,0-3.624-1.793-3.624-4.151
			c0-2.885,1.881-4.521,3.835-4.521c1.478,0,2.288,0.775,2.656,1.478h0.036l0.07-1.284H233.261z M231.66,71.169
			c0-0.264-0.018-0.493-0.088-0.703c-0.282-0.897-1.038-1.636-2.164-1.636c-1.478,0-2.534,1.25-2.534,3.219
			c0,1.671,0.845,3.061,2.516,3.061c0.95,0,1.811-0.597,2.146-1.583c0.088-0.264,0.124-0.563,0.124-0.827V71.169z"/>
		<path fill="#7B7B7B" d="M235.657,70.114c0-0.879-0.018-1.601-0.07-2.304h1.372l0.088,1.407h0.034
			c0.423-0.809,1.408-1.601,2.815-1.601c1.18,0,3.009,0.705,3.009,3.624v5.084h-1.548v-4.908c0-1.372-0.509-2.516-1.97-2.516
			c-1.021,0-1.813,0.721-2.077,1.584c-0.07,0.193-0.105,0.457-0.105,0.721v5.119h-1.548V70.114z"/>
		<path fill="#7B7B7B" d="M246.285,72.347c0.036,2.093,1.372,2.956,2.921,2.956c1.108,0,1.777-0.194,2.358-0.44l0.263,1.108
			c-0.545,0.246-1.477,0.529-2.831,0.529c-2.622,0-4.187-1.725-4.187-4.293s1.513-4.592,3.993-4.592
			c2.779,0,3.518,2.446,3.518,4.011c0,0.317-0.034,0.563-0.052,0.721H246.285z M250.825,71.24c0.018-0.985-0.405-2.516-2.146-2.516
			c-1.566,0-2.252,1.444-2.376,2.516H250.825z"/>
		<path fill="#7B7B7B" d="M254.241,70.466c0-1.003-0.018-1.865-0.07-2.656h1.354l0.052,1.671h0.072
			c0.387-1.144,1.319-1.865,2.356-1.865c0.176,0,0.3,0.018,0.44,0.054v1.459c-0.158-0.034-0.317-0.052-0.529-0.052
			c-1.09,0-1.864,0.827-2.076,1.987c-0.034,0.212-0.07,0.458-0.07,0.721v4.539h-1.531V70.466z"/>
	</g>
</g>
</svg>
